<?xml version="1.0" encoding="UTF-8"?>
<!DOCTYPE svg PUBLIC "-//W3C//DTD SVG 1.1//EN" "http://www.w3.org/Graphics/SVG/1.1/DTD/svg11.dtd">
<svg xmlns:inkscape="http://www.inkscape.org/namespaces/inkscape" xmlns:sodipodi="http://sodipodi.sourceforge.net/DTD/sodipodi-0.dtd" xmlns:svg="http://www.w3.org/2000/svg" xmlns="http://www.w3.org/2000/svg" width="1280" height="720" overflow="hidden" version="1.1" id="svg260" sodipodi:docname="graph_api-01_base.svg" inkscape:version="1.2.1 (9c6d41e410, 2022-07-14)">
  <sodipodi:namedview id="namedview262" pagecolor="#ffffff" bordercolor="#000000" borderopacity="0.25" inkscape:showpageshadow="2" inkscape:pageopacity="0.0" inkscape:pagecheckerboard="0" inkscape:deskcolor="#d1d1d1" showgrid="false" inkscape:zoom="1.0773438" inkscape:cx="271.03698" inkscape:cy="363.39376" inkscape:window-width="2560" inkscape:window-height="1361" inkscape:window-x="2391" inkscape:window-y="-9" inkscape:window-maximized="1" inkscape:current-layer="g258"/>
  <defs id="defs86">
    <clipPath id="clip0">
      <rect x="0" y="0" width="1280" height="720" id="rect2"/>
    </clipPath>
    <clipPath id="clip1">
      <rect x="112" y="94" width="189" height="189" id="rect5"/>
    </clipPath>
    <clipPath id="clip2">
      <rect x="112" y="94" width="189" height="189" id="rect8"/>
    </clipPath>
    <clipPath id="clip3">
      <rect x="112" y="94" width="189" height="189" id="rect11"/>
    </clipPath>
    <clipPath id="clip4">
      <rect x="977" y="94" width="189" height="189" id="rect14"/>
    </clipPath>
    <clipPath id="clip5">
      <rect x="977" y="94" width="189" height="189" id="rect17"/>
    </clipPath>
    <clipPath id="clip6">
      <rect x="977" y="94" width="189" height="189" id="rect20"/>
    </clipPath>
    <clipPath id="clip7">
      <rect x="162" y="148" width="61" height="61" id="rect23"/>
    </clipPath>
    <clipPath id="clip8">
      <rect x="162" y="148" width="61" height="61" id="rect26"/>
    </clipPath>
    <clipPath id="clip9">
      <rect x="162" y="148" width="61" height="61" id="rect29"/>
    </clipPath>
    <clipPath id="clip10">
      <rect x="1021" y="146" width="63" height="62" id="rect32"/>
    </clipPath>
    <clipPath id="clip11">
      <rect x="1021" y="146" width="63" height="62" id="rect35"/>
    </clipPath>
    <clipPath id="clip12">
      <rect x="1021" y="146" width="63" height="62" id="rect38"/>
    </clipPath>
    <clipPath id="clip13">
      <rect x="544" y="0" width="189" height="189" id="rect41"/>
    </clipPath>
    <clipPath id="clip14">
      <rect x="544" y="0" width="189" height="189" id="rect44"/>
    </clipPath>
    <clipPath id="clip15">
      <rect x="544" y="0" width="189" height="189" id="rect47"/>
    </clipPath>
    <clipPath id="clip16">
      <rect x="977" y="420" width="192" height="189" id="rect50"/>
    </clipPath>
    <clipPath id="clip17">
      <rect x="977" y="420" width="192" height="189" id="rect53"/>
    </clipPath>
    <clipPath id="clip18">
      <rect x="977" y="420" width="192" height="189" id="rect56"/>
    </clipPath>
    <clipPath id="clip19">
      <rect x="112" y="420" width="189" height="189" id="rect59"/>
    </clipPath>
    <clipPath id="clip20">
      <rect x="112" y="420" width="189" height="189" id="rect62"/>
    </clipPath>
    <clipPath id="clip21">
      <rect x="112" y="420" width="189" height="189" id="rect65"/>
    </clipPath>
    <clipPath id="clip22">
      <rect x="528" y="375" width="114" height="113" id="rect68"/>
    </clipPath>
    <clipPath id="clip23">
      <rect x="528" y="375" width="114" height="113" id="rect71"/>
    </clipPath>
    <clipPath id="clip24">
      <rect x="528" y="375" width="114" height="113" id="rect74"/>
    </clipPath>
    <clipPath id="clip25">
      <rect x="637" y="382" width="113" height="113" id="rect77"/>
    </clipPath>
    <clipPath id="clip26">
      <rect x="637" y="382" width="113" height="113" id="rect80"/>
    </clipPath>
    <clipPath id="clip27">
      <rect x="637" y="382" width="113" height="113" id="rect83"/>
    </clipPath>
  </defs>
  <g clip-path="url(#clip0)" id="g258">
    <rect x="0" y="0" width="1280" height="720" fill="#FFFFFF" id="rect88"/>
    <g clip-path="url(#clip1)" id="g100">
      <g clip-path="url(#clip2)" id="g98">
        <g clip-path="url(#clip3)" id="g96">
          <path d="M263.594 216.051 263.594 145.188 149.406 145.188 149.406 216.082ZM153.344 149.125 259.656 149.125 259.656 212.111 153.344 212.145Z" fill="#00B0F000" id="path90"/>
          <path d="M143.5 143.219C143.5 141.044 145.263 139.281 147.438 139.281L265.562 139.281C267.737 139.281 269.5 141.044 269.5 143.219L269.5 223.963 273.438 223.963 273.438 143.219C273.438 138.87 269.912 135.344 265.562 135.344L147.438 135.344C143.088 135.344 139.562 138.87 139.562 143.219L139.562 223.963 143.5 223.963Z" fill="#00B0F000" id="path92"/>
          <path d="M216.344 229.832 216.344 233.769 196.656 233.769 196.656 229.832 115.938 229.832 115.938 233.769C115.944 239.203 120.347 243.607 125.781 243.613L287.219 243.613C292.653 243.607 297.056 239.203 297.062 233.769L297.062 229.832ZM287.219 239.676 125.781 239.676C122.519 239.676 119.875 237.031 119.875 233.769L192.719 233.769C192.647 235.872 194.293 237.635 196.396 237.707 196.483 237.71 196.569 237.71 196.656 237.707L216.344 237.707C218.446 237.779 220.209 236.133 220.281 234.03 220.284 233.943 220.284 233.856 220.281 233.769L293.125 233.769C293.125 237.031 290.481 239.676 287.219 239.676Z" fill="#00B0F000" id="path94"/>
        </g>
      </g>
    </g>
    <g clip-path="url(#clip4)" id="g110">
      <g clip-path="url(#clip5)" id="g108">
        <g clip-path="url(#clip6)" id="g106">
          <path d="M1087.25 208.188 992.75 208.188 992.75 145.188 1087.25 145.188 1087.25 208.188ZM1091.19 133.375 988.812 133.375C984.481 133.375 980.938 136.919 980.938 141.25L980.938 212.125C980.938 216.456 984.481 220 988.812 220L1028.19 220 1028.19 231.812 1010.47 231.812 1010.47 243.625 1069.53 243.625 1069.53 231.812 1051.81 231.812 1051.81 220 1091.19 220C1095.52 220 1099.06 216.456 1099.06 212.125L1099.06 141.25C1099.06 136.919 1095.52 133.375 1091.19 133.375Z" fill="#04316A" id="path102"/>
          <path d="M1154.19 153.062 1114.81 153.062 1114.81 141.25 1154.19 141.25 1154.19 153.062ZM1154.19 172.75 1114.81 172.75 1114.81 160.938 1154.19 160.938 1154.19 172.75ZM1134.5 231.812C1131.15 231.812 1128.59 229.253 1128.59 225.906 1128.59 222.559 1131.15 220 1134.5 220 1137.85 220 1140.41 222.559 1140.41 225.906 1140.41 229.253 1137.85 231.812 1134.5 231.812ZM1154.19 133.375 1114.81 133.375C1110.48 133.375 1106.94 136.919 1106.94 141.25L1106.94 235.75C1106.94 240.081 1110.48 243.625 1114.81 243.625L1154.19 243.625C1158.52 243.625 1162.06 240.081 1162.06 235.75L1162.06 141.25C1162.06 136.919 1158.52 133.375 1154.19 133.375Z" fill="#04316A" id="path104"/>
        </g>
      </g>
    </g>
    <g clip-path="url(#clip7)" id="g122">
      <g clip-path="url(#clip8)" id="g120">
        <g clip-path="url(#clip9)" id="g118">
          <path d="M177.822 187.968 176.043 186.189 181.507 180.724 176.043 175.259 177.822 173.48 185.066 180.724Z" fill="#00B0F000" id="path112"/>
          <path d="M167.083 158.802 167.083 198.198 217.917 198.198 217.917 158.802 167.083 158.802ZM210.927 162.615C211.626 162.615 212.198 163.186 212.198 163.885 212.198 164.584 211.626 165.156 210.927 165.156 210.228 165.156 209.656 164.584 209.656 163.885 209.656 163.186 210.228 162.615 210.927 162.615ZM206.479 162.615C207.178 162.615 207.75 163.186 207.75 163.885 207.75 164.584 207.178 165.156 206.479 165.156 205.78 165.156 205.208 164.584 205.208 163.885 205.208 163.186 205.78 162.615 206.479 162.615ZM202.031 162.615C202.73 162.615 203.302 163.186 203.302 163.885 203.302 164.584 202.73 165.156 202.031 165.156 201.332 165.156 200.76 164.584 200.76 163.885 200.76 163.186 201.332 162.615 202.031 162.615ZM214.104 194.385 170.896 194.385 170.896 168.969 214.104 168.969 214.104 194.385Z" fill="#00B0F000" id="path114"/>
          <path d="M186.146 185.49 196.312 185.49 196.312 188.031 186.146 188.031Z" fill="#00B0F000" id="path116"/>
        </g>
      </g>
    </g>
    <g clip-path="url(#clip10)" id="g140">
      <g clip-path="url(#clip11)" id="g138">
        <g clip-path="url(#clip12)" id="g136">
          <path d="M56.8443 10.9792 5.09627 10.9792 5.09627 51.037 56.8443 51.037ZM55.5526 49.7453 6.38794 49.7453 6.38794 21.3125 55.5526 21.3125ZM55.5526 20.0208 6.38794 20.0208 6.38794 12.2708 55.5526 12.2708Z" fill="#04316A" transform="matrix(1.01613 0 0 1 1021 146)" id="path124"/>
          <path d="M41.9792 16.1458C41.9792 16.8592 41.4009 17.4375 40.6875 17.4375 39.9741 17.4375 39.3958 16.8592 39.3958 16.1458 39.3958 15.4325 39.9741 14.8542 40.6875 14.8542 41.4009 14.8542 41.9792 15.4325 41.9792 16.1458Z" fill="#04316A" transform="matrix(1.01613 0 0 1 1021 146)" id="path126"/>
          <path d="M46.5 16.1458C46.5 16.8592 45.9217 17.4375 45.2083 17.4375 44.495 17.4375 43.9167 16.8592 43.9167 16.1458 43.9167 15.4325 44.495 14.8542 45.2083 14.8542 45.9217 14.8542 46.5 15.4325 46.5 16.1458Z" fill="#04316A" transform="matrix(1.01613 0 0 1 1021 146)" id="path128"/>
          <path d="M51.0208 16.1458C51.0208 16.8592 50.4425 17.4375 49.7292 17.4375 49.0158 17.4375 48.4375 16.8592 48.4375 16.1458 48.4375 15.4325 49.0158 14.8542 49.7292 14.8542 50.4425 14.8542 51.0208 15.4325 51.0208 16.1458Z" fill="#04316A" transform="matrix(1.01613 0 0 1 1021 146)" id="path130"/>
          <path d="M14.7205 39.2621 15.6337 40.1754 22.2257 33.5833 15.3108 26.6684 14.3976 27.5816 20.3993 33.5833 14.7205 39.2621Z" fill="#04316A" transform="matrix(1.01613 0 0 1 1021 146)" id="path132"/>
          <path d="M24.5417 38.75 34.875 38.75 34.875 40.0417 24.5417 40.0417Z" fill="#04316A" transform="matrix(1.01613 0 0 1 1021 146)" id="path134"/>
        </g>
      </g>
    </g>
    <g clip-path="url(#clip13)" id="g148">
      <g clip-path="url(#clip14)" id="g146">
        <g clip-path="url(#clip15)" id="g144">
          <path d="M583.378 141.592C585.368 141.701 591.176 141.75 591.176 141.75L697.571 141.75C710.666 141.698 721.24 131.04 721.188 117.945 721.137 105 710.712 94.4886 697.768 94.3299L695.799 94.3299C695.781 84.7897 691.163 75.8441 683.396 70.3041 675.527 64.7985 665.493 63.4069 656.423 66.5634 647.517 49.1508 626.181 42.2547 608.769 51.1605 596.986 57.1869 589.547 69.2801 589.482 82.5142L589.482 82.908C587.937 82.6552 586.375 82.528 584.81 82.5274 568.47 82.5085 555.208 95.7393 555.189 112.079 555.184 116.426 556.137 120.72 557.98 124.657 562.762 134.478 572.473 140.953 583.378 141.592ZM564.276 96.6975C569.188 90.3176 576.757 86.5453 584.808 86.4645 586.16 86.4657 587.51 86.5756 588.844 86.7931L593.418 87.5413 593.418 82.5135C593.525 65.1276 607.706 51.1206 625.091 51.2275 636.837 51.2997 647.566 57.9055 652.919 68.3611L654.483 71.4066 657.716 70.2818C671.001 65.5322 685.62 72.4512 690.37 85.7361 691.356 88.4939 691.861 91.401 691.861 94.3299L691.861 98.2674 697.768 98.2674C708.687 98.4281 717.409 107.41 717.248 118.33 717.09 129.099 708.342 137.761 697.571 137.812L587.1 137.812 583.592 137.661C569.478 137.052 558.53 125.117 559.138 111.004 559.361 105.824 561.153 100.835 564.276 96.6975Z" fill="#0070C000" id="path142"/>
        </g>
      </g>
    </g>
    <g clip-path="url(#clip16)" id="g158">
      <g clip-path="url(#clip17)" id="g156">
        <g clip-path="url(#clip18)" id="g154">
          <path d="M61.425 101.391C53.9437 104.344 47.0531 108.281 40.7531 113.203 36.4219 116.747 33.6656 122.062 33.4688 127.772L30.1219 156.909C29.5312 161.241 31.5 165.572 35.0437 167.934 38.5875 170.297 42.3281 172.069 46.2656 173.644L48.0375 173.644 48.0375 165.966C45.0844 164.784 42.1312 163.209 39.375 161.438 38.1937 160.65 37.6031 159.272 37.8 157.894L41.3438 128.362 41.3438 127.969C41.5406 124.425 43.1156 121.275 45.8719 119.109 51.1875 114.581 58.8656 110.447 69.4969 106.509 75.4031 110.053 84.4594 112.219 94.5 112.219 104.541 112.219 113.597 110.053 119.503 106.509 130.331 110.447 137.812 114.581 143.128 119.109 145.884 121.275 147.459 124.622 147.656 127.969L151.2 157.697C151.397 159.075 150.806 160.453 149.625 161.241L149.625 161.241C146.869 163.013 144.112 164.587 140.962 165.769L140.962 173.447 142.734 173.447C146.672 172.069 150.413 170.1 153.956 167.737L153.956 167.737C157.5 165.178 159.469 161.044 158.878 156.712L155.531 127.772C155.334 122.062 152.578 116.747 148.247 113.203 141.947 108.281 135.056 104.147 127.575 101.391 127.575 91.35 127.969 63.7875 127.969 52.5656 127.969 49.4156 127.575 46.2656 126.788 43.1156 124.228 33.6656 117.731 25.7906 109.069 21.2625 108.281 20.8688 107.1 20.8688 106.509 21.4594L104.738 22.8375 102.769 20.0812C102.178 19.0969 101.194 18.5062 100.209 18.3094 98.2406 17.9156 96.4688 17.7188 94.5 17.7188 86.625 17.7188 78.75 20.6719 72.8438 25.7906 65.3625 32.4844 61.2281 41.9344 61.425 51.975L61.425 101.391ZM71.2688 69.3 72.6469 53.1562 116.156 53.1562 117.534 69.3C115.172 82.0969 102.966 90.5625 89.9719 88.2 80.5219 86.4281 73.0406 78.9469 71.2688 69.3ZM79.1438 102.178C81.3094 100.406 82.6875 97.4531 82.6875 94.5L82.6875 94.1062C90.1687 97.2563 98.8313 97.2563 106.312 94.1062L106.312 94.5C106.312 97.4531 107.691 100.209 109.856 102.178 104.934 103.753 99.6187 104.344 94.5 104.344 89.3813 104.344 84.0656 103.753 79.1438 102.178Z" fill="#04316A" transform="matrix(1.01587 0 0 1 977 420)" id="path150"/>
          <path d="M137.025 128.559C137.025 125.803 134.859 123.637 132.103 123.637L132.103 123.637 57.0938 123.637C54.3375 123.637 52.1719 125.803 52.1719 128.559L52.1719 128.559 52.1719 177.581 37.2094 177.581 37.2094 180.141C37.2094 182.897 39.375 185.062 42.1312 185.062L147.066 185.062C149.822 185.062 151.987 182.897 151.987 180.141L151.987 177.581 137.025 177.581 137.025 128.559ZM84.2625 161.044 81.5063 163.8 70.4812 152.775 81.5063 141.75 84.2625 144.506 75.9937 152.775 84.2625 161.044ZM91.7437 165.178 88.2 163.603 97.4531 141.356 100.997 142.931 91.7437 165.178ZM107.494 163.997 104.738 161.241 113.006 152.972 104.738 144.703 107.494 141.947 118.519 152.972 107.494 163.997Z" fill="#04316A" transform="matrix(1.01587 0 0 1 977 420)" id="path152"/>
        </g>
      </g>
    </g>
    <g clip-path="url(#clip19)" id="g174">
      <g clip-path="url(#clip20)" id="g172">
        <g clip-path="url(#clip21)" id="g170">
          <path d="M231.172 524.344C242.272 528.478 250.797 532.894 256.406 537.662 259.564 540.194 261.468 543.97 261.625 548.014L265.084 575.622C265.367 577.758 264.437 579.873 262.672 581.109 259.871 582.954 256.88 584.495 253.75 585.704L253.75 589.946C257.665 588.529 261.399 586.654 264.875 584.361 267.856 582.297 269.438 578.743 268.976 575.147L265.562 547.827C265.328 542.702 262.93 537.917 258.965 534.66 253.679 530.386 247.808 526.889 241.532 524.277 241.585 518.821 241.89 486.999 241.945 474.375 242.011 471.014 241.617 467.66 240.776 464.405 238.071 454.413 231.235 446.047 221.982 441.404 220.473 440.66 218.676 440.812 217.312 441.798L217.092 441.956 216.22 440.737C215.304 439.427 213.908 438.531 212.335 438.244 201.962 436.426 191.32 439.365 183.349 446.249 175.423 453.219 170.972 463.327 171.181 473.879L171.496 524.279C165.213 526.892 159.337 530.391 154.047 534.67 150.081 537.926 147.683 542.711 147.447 547.837L144.037 575.171C143.587 578.759 145.169 582.301 148.142 584.359 151.613 586.651 155.341 588.525 159.25 589.944L159.25 585.7C156.13 584.49 153.147 582.95 150.353 581.107 148.594 579.876 147.664 577.771 147.94 575.641L151.375 548.217 151.391 548.02C151.546 543.977 153.447 540.201 156.602 537.668 162.302 532.809 170.436 528.535 181.828 524.344 187.159 528.008 196.459 530.25 206.5 530.25 216.541 530.25 225.841 528.008 231.172 524.344ZM180.198 520.763C178.537 521.374 176.946 521.989 175.423 522.607L175.118 473.853C174.916 464.463 178.862 455.46 185.903 449.244 192.977 443.124 202.429 440.51 211.642 442.127 212.198 442.241 212.687 442.565 213.009 443.032L215.023 445.848C215.654 446.73 216.881 446.936 217.765 446.306L219.586 445.009C219.767 444.872 220.007 444.842 220.216 444.93 228.465 449.073 234.557 456.534 236.966 465.445 237.715 468.355 238.063 471.353 238 474.357 237.949 486.036 237.683 514.177 237.606 522.617 236.122 522.016 234.576 521.418 232.968 520.822L226.668 518.237C225.188 517.632 224.22 516.193 224.219 514.594L224.219 508.023C230.458 502.797 234.063 495.076 234.062 486.938L234.062 477.094C234.062 473.832 231.418 471.188 228.156 471.188L184.844 471.188C181.582 471.188 178.938 473.832 178.938 477.094L178.938 486.938C178.938 495.067 182.537 502.779 188.766 508.003L188.766 514.587C188.771 516.187 187.808 517.631 186.328 518.241ZM182.875 486.938 182.875 477.094C182.875 476.006 183.756 475.125 184.844 475.125L228.156 475.125C229.244 475.125 230.125 476.006 230.125 477.094L230.125 486.938C230.125 499.985 219.548 510.562 206.5 510.562 193.452 510.562 182.875 499.985 182.875 486.938ZM206.5 526.312C199.616 526.471 192.779 525.15 186.45 522.438L187.828 521.875C190.789 520.669 192.723 517.789 192.719 514.593L192.719 510.759C201.231 515.736 211.764 515.741 220.281 510.773L220.281 514.593C220.276 517.788 222.207 520.669 225.166 521.877L226.544 522.442C220.217 525.152 213.381 526.472 206.5 526.312Z" fill="#00B05000" id="path160"/>
          <path d="M249.812 549.032C249.802 545.172 246.664 542.052 242.804 542.062 242.8 542.062 242.796 542.062 242.792 542.062L170.165 542.062C166.314 542.062 163.192 545.182 163.188 549.032L163.188 593.624 149.406 593.624 149.406 598.101C149.432 601.941 152.543 605.045 156.383 605.062L256.64 605.062C260.474 605.032 263.572 601.927 263.594 598.093L263.594 593.624 249.812 593.624ZM259.656 597.562 259.656 598.085C259.646 599.754 258.3 601.106 256.632 601.125L156.391 601.125C154.717 601.12 153.358 599.768 153.344 598.093L153.344 597.562 167.125 597.562 167.125 549.032C167.127 547.355 168.488 545.998 170.165 546L242.851 546C244.521 546.006 245.873 547.361 245.875 549.032L245.875 597.562Z" fill="#00B05000" id="path162"/>
          <path d="M200.015 583.761 203.657 585.277 212.871 562.99 209.248 561.474 200.015 583.761Z" fill="#00B05000" id="path164"/>
          <path d="M193.538 561.809 182.493 572.854 193.538 583.898 196.314 581.122 188.065 572.854 196.314 564.585 193.538 561.809Z" fill="#00B05000" id="path166"/>
          <path d="M216.631 564.585 224.88 572.854 216.631 581.122 219.407 583.898 230.452 572.854 219.407 561.809 216.631 564.585Z" fill="#00B05000" id="path168"/>
        </g>
      </g>
    </g>
    <text fill="#04316A" font-family="Calibri,Calibri_MSFontService,sans-serif" font-weight="700" font-size="24" transform="translate(988.418 647)" id="text176">Programmier</text>
    <text fill="#04316A" font-family="Calibri,Calibri_MSFontService,sans-serif" font-weight="700" font-size="24" transform="translate(1118.76 647)" id="text178">*In</text>
    <text fill="#00B05000" font-family="Calibri,Calibri_MSFontService,sans-serif" font-weight="400" font-size="24" transform="translate(139.182 647)" id="text180">Developer*In</text>
    <g clip-path="url(#clip22)" id="g200">
      <g clip-path="url(#clip23)" id="g198">
        <g clip-path="url(#clip24)" id="g196">
          <path d="M32.9583 49.4375 80.0417 49.4375 80.0417 51.7917 32.9583 51.7917Z" fill="#E6002E" transform="matrix(1.00885 0 0 1 528 375)" id="path182"/>
          <path d="M32.9583 40.0208 55.3229 40.0208 55.3229 42.375 32.9583 42.375Z" fill="#E6002E" transform="matrix(1.00885 0 0 1 528 375)" id="path184"/>
          <path d="M32.9583 58.8542 80.0417 58.8542 80.0417 61.2083 32.9583 61.2083Z" fill="#E6002E" transform="matrix(1.00885 0 0 1 528 375)" id="path186"/>
          <path d="M32.9583 68.2708 80.0417 68.2708 80.0417 70.625 32.9583 70.625Z" fill="#E6002E" transform="matrix(1.00885 0 0 1 528 375)" id="path188"/>
          <path d="M32.9583 77.6875 80.0417 77.6875 80.0417 80.0417 32.9583 80.0417Z" fill="#E6002E" transform="matrix(1.00885 0 0 1 528 375)" id="path190"/>
          <path d="M32.9583 87.1042 80.0417 87.1042 80.0417 89.4583 32.9583 89.4583Z" fill="#E6002E" transform="matrix(1.00885 0 0 1 528 375)" id="path192"/>
          <path d="M21.1875 9.41667 21.1875 103.583 91.8125 103.583 91.8125 34.8252 66.404 9.41667ZM67.1138 13.4552 87.7739 34.1154C87.7785 34.12 87.7784 34.1275 87.7738 34.132 87.7716 34.1341 87.7687 34.1354 87.7657 34.1354L67.0938 34.1354 67.0938 13.4635C67.0939 13.457 67.0992 13.4518 67.1056 13.4518 67.1087 13.4519 67.1116 13.4531 67.1138 13.4552ZM23.5417 101.229 23.5417 11.7708 64.7396 11.7708 64.7396 36.4896 89.4583 36.4896 89.4583 101.229Z" fill="#E6002E" transform="matrix(1.00885 0 0 1 528 375)" id="path194"/>
        </g>
      </g>
    </g>
    <text fill="#E6002E" font-family="Calibri,Calibri_MSFontService,sans-serif" font-weight="700" font-size="24" transform="translate(587.847 522)" id="text202">API Referenzen</text>
    <g clip-path="url(#clip25)" id="g222">
      <g clip-path="url(#clip26)" id="g220">
        <g clip-path="url(#clip27)" id="g218">
          <path d="M678.543 431.782 665.94 444.385 678.543 456.988 680.207 455.324 669.269 444.385 680.207 433.447 678.543 431.782Z" fill="#E6002E" id="path204"/>
          <path d="M706.793 433.447 717.731 444.385 706.793 455.324 708.457 456.988 721.06 444.385 708.457 431.782 706.793 433.447Z" fill="#E6002E" id="path206"/>
          <path d="M686.535 458.041 698.306 430.968 700.465 431.906 688.694 458.98Z" fill="#E6002E" id="path208"/>
          <path d="M646.417 474.99 740.583 474.99 740.583 402.01 646.417 402.01ZM648.771 472.635 648.771 420.844 738.229 420.844 738.229 472.635ZM738.229 404.365 738.229 418.49 648.771 418.49 648.771 404.365Z" fill="#E6002E" id="path210"/>
          <path d="M713.51 411.427C713.51 412.727 712.456 413.781 711.156 413.781 709.856 413.781 708.802 412.727 708.802 411.427 708.802 410.127 709.856 409.073 711.156 409.073 712.456 409.073 713.51 410.127 713.51 411.427Z" fill="#E6002E" id="path212"/>
          <path d="M721.75 411.427C721.75 412.727 720.696 413.781 719.396 413.781 718.096 413.781 717.042 412.727 717.042 411.427 717.042 410.127 718.096 409.073 719.396 409.073 720.696 409.073 721.75 410.127 721.75 411.427Z" fill="#E6002E" id="path214"/>
          <path d="M729.99 411.427C729.99 412.727 728.936 413.781 727.635 413.781 726.335 413.781 725.281 412.727 725.281 411.427 725.281 410.127 726.335 409.073 727.635 409.073 728.936 409.073 729.99 410.127 729.99 411.427Z" fill="#E6002E" id="path216"/>
        </g>
      </g>
    </g>
    <text fill="#00B0F000" font-family="Corbel,Corbel_MSFontService,sans-serif" font-weight="700" font-size="24" transform="translate(163.438 92)" id="text224">Website</text>
    <text fill="#00B0F000" font-family="Corbel,Corbel_MSFontService,sans-serif" font-weight="700" font-size="24" transform="translate(168.298 121)" id="text226">(</text>
    <text fill="#00B0F000" font-family="Corbel,Corbel_MSFontService,sans-serif" font-weight="700" font-size="24" transform="translate(174.692 121)" id="text228">C</text>
    <text fill="#00B0F000" font-family="Corbel,Corbel_MSFontService,sans-serif" font-weight="700" font-size="24" transform="translate(188.692 121)" id="text230">lient)</text>
    <path d="M976.814 515.977 758.849 443.069 760.117 439.275 978.083 512.184ZM759.477 447.497 750 438 763.284 436.117Z" fill="#E6002E" id="path232"/>
    <path d="M1071.08 419.425 1070.08 293.016 1074.08 292.984 1075.08 419.394ZM1066.1 295.047 1072 283 1078.09 294.952Z" fill="#04316A" id="path234"/>
    <path d="M0.683575-1.87955 218.734 77.4231 217.367 81.1822-0.683575 1.87955ZM218.221 72.9804 227.448 82.7205 214.12 84.2577Z" fill="#00B05000" transform="matrix(-1 0 0 1 528.448 432)" id="path236"/>
    <path d="M2-1.53929e-06 2.0001 126.41-1.9999 126.41-2 1.53929e-06ZM6.0001 124.41 0.000104987 136.41-5.9999 124.41Z" fill="#00B0F000" transform="matrix(1 0 0 -1 206 419.41)" id="path238"/>
    <path d="M0.724433-1.86419 234.55 89.0018 233.101 92.7302-0.724433 1.86419ZM234.135 84.549 243.147 94.4882 229.788 95.7342Z" fill="#0070C000" transform="matrix(1 0 0 -1 309 173.488)" id="path240"/>
    <path d="M733.721 86.1344 968.937 177.018 967.495 180.749 732.279 89.8656ZM968.513 172.566 977.544 182.488 964.188 183.76Z" fill="#0070C000" id="path242"/>
    <path d="M966.422 200.352 732.597 109.486 734.045 105.758 967.871 196.624ZM733.012 113.939 724 104 737.358 102.754Z" fill="#0070C000" id="path244"/>
    <path d="M0.720833-1.86558 235.937 89.0183 234.495 92.7494-0.720833 1.86558ZM235.513 84.5664 244.544 94.4882 231.188 95.7599Z" fill="#0070C000" transform="matrix(-1 0 0 1 550.544 100)" id="path246"/>
    <text fill="#E6002E" font-family="Calibri,Calibri_MSFontService,sans-serif" font-weight="700" font-size="24" transform="translate(813.469 439)" id="text248">dokumentier</text>
    <text fill="#E6002E" font-family="Calibri,Calibri_MSFontService,sans-serif" font-weight="700" font-size="24" transform="translate(941.956 439)" id="text250">t</text>
    <text fill="#00B05000" font-family="Calibri,Calibri_MSFontService,sans-serif" font-weight="400" font-size="24" transform="translate(401.689 442)" id="text252">nutzt</text>
    <text fill="#04316A" font-family="Corbel,Corbel_MSFontService,sans-serif" font-weight="700" font-size="24" transform="translate(1022.5 92)" id="text254">Plattform</text>
    <text fill="#04316A" font-family="Corbel,Corbel_MSFontService,sans-serif" font-weight="700" font-size="24" transform="translate(1032.35 121)" id="text256">(Server)</text>
  </g>
</svg>
