<svg width="1280" height="720" xmlns="http://www.w3.org/2000/svg" xmlns:xlink="http://www.w3.org/1999/xlink" overflow="hidden"><defs><clipPath id="clip0"><rect x="0" y="0" width="1280" height="720"/></clipPath><clipPath id="clip1"><rect x="73" y="135" width="151" height="150"/></clipPath><clipPath id="clip2"><rect x="73" y="135" width="151" height="150"/></clipPath><clipPath id="clip3"><rect x="73" y="135" width="151" height="150"/></clipPath><clipPath id="clip4"><rect x="73" y="435" width="150" height="150"/></clipPath><clipPath id="clip5"><rect x="73" y="435" width="150" height="150"/></clipPath><clipPath id="clip6"><rect x="73" y="435" width="150" height="150"/></clipPath><clipPath id="clip7"><rect x="349" y="450" width="121" height="120"/></clipPath><clipPath id="clip8"><rect x="349" y="450" width="121" height="120"/></clipPath><clipPath id="clip9"><rect x="349" y="450" width="121" height="120"/></clipPath><clipPath id="clip10"><rect x="1098" y="29" width="57" height="57"/></clipPath><clipPath id="clip11"><rect x="1098" y="29" width="57" height="57"/></clipPath><clipPath id="clip12"><rect x="1098" y="29" width="57" height="57"/></clipPath><clipPath id="clip13"><rect x="1108" y="481" width="54" height="56"/></clipPath><clipPath id="clip14"><rect x="1108" y="481" width="54" height="56"/></clipPath><clipPath id="clip15"><rect x="1108" y="481" width="54" height="56"/></clipPath><clipPath id="clip16"><rect x="1105" y="255" width="57" height="57"/></clipPath><clipPath id="clip17"><rect x="1105" y="255" width="57" height="57"/></clipPath><clipPath id="clip18"><rect x="1105" y="255" width="57" height="57"/></clipPath><clipPath id="clip19"><rect x="1186" y="229" width="43" height="38"/></clipPath><clipPath id="clip20"><rect x="1186" y="229" width="43" height="38"/></clipPath><clipPath id="clip21"><rect x="1186" y="229" width="43" height="38"/></clipPath><clipPath id="clip22"><rect x="1186" y="378" width="38" height="38"/></clipPath><clipPath id="clip23"><rect x="1186" y="378" width="38" height="38"/></clipPath><clipPath id="clip24"><rect x="1186" y="378" width="38" height="38"/></clipPath><clipPath id="clip25"><rect x="1190" y="151" width="34" height="38"/></clipPath><clipPath id="clip26"><rect x="1190" y="151" width="34" height="38"/></clipPath><clipPath id="clip27"><rect x="1190" y="151" width="34" height="38"/></clipPath><clipPath id="clip28"><rect x="1190" y="303" width="34" height="38"/></clipPath><clipPath id="clip29"><rect x="1190" y="303" width="34" height="38"/></clipPath><clipPath id="clip30"><rect x="1190" y="303" width="34" height="38"/></clipPath><clipPath id="clip31"><rect x="1187" y="526" width="38" height="38"/></clipPath><clipPath id="clip32"><rect x="1187" y="526" width="38" height="38"/></clipPath><clipPath id="clip33"><rect x="1187" y="526" width="38" height="38"/></clipPath><clipPath id="clip34"><rect x="1183" y="458" width="47" height="38"/></clipPath><clipPath id="clip35"><rect x="1183" y="458" width="47" height="38"/></clipPath><clipPath id="clip36"><rect x="1183" y="458" width="47" height="38"/></clipPath></defs><g clip-path="url(#clip0)"><rect x="0" y="0" width="1280" height="720" fill="#FFFFFF"/><path d="M976 83.1672C976 69.2677 987.268 58 1001.17 58L1101.83 58C1115.73 58 1127 69.2677 1127 83.1672L1127 185.833C1127 199.732 1115.73 211 1101.83 211L1001.17 211C987.268 211 976 199.732 976 185.833Z" stroke="#C55A11" stroke-width="2" stroke-miterlimit="8" fill="none" fill-rule="evenodd"/><g clip-path="url(#clip1)"><g clip-path="url(#clip2)"><g clip-path="url(#clip3)"><path d="M56.5125 96.95C56.332 96.1664 55.8819 95.4713 55.2406 94.9859 53.8625 93.9523 52.3003 93.1903 50.6375 92.7406 48.0991 92.0052 45.4041 92.0052 42.8656 92.7406 41.1997 93.1902 39.6347 93.9533 38.2547 94.9891 37.6119 95.4741 37.1605 96.17 36.9797 96.9547 36.9672 97.0078 36.9562 97.0625 36.9484 97.1109L34.3906 115.408C34.2709 116.262 34.8661 117.052 35.7203 117.172 35.7922 117.182 35.8648 117.188 35.9375 117.188 36.7158 117.187 37.3747 116.613 37.4828 115.842L40.0281 97.6469C40.0425 97.5848 40.0778 97.5297 40.1281 97.4906 41.1906 96.6931 42.3955 96.1056 43.6781 95.7594 45.6833 95.1677 47.8167 95.1677 49.8219 95.7594 51.1011 96.1053 52.3028 96.6917 53.3625 97.4875 53.4128 97.5266 53.4481 97.5817 53.4625 97.6438L56.0078 115.838C56.1159 116.608 56.7739 117.181 57.5516 117.183 57.6253 117.183 57.6989 117.178 57.7719 117.167 58.6261 117.047 59.2212 116.257 59.1016 115.403L56.5453 97.1125C56.5375 97.0578 56.5266 97.0034 56.5125 96.95Z" fill="#04316A" transform="matrix(1.00667 0 0 1 73 135)"/><path d="M46.7375 90.625C50.1892 90.625 52.9875 87.8267 52.9875 84.375 52.9875 80.9233 50.1892 78.125 46.7375 78.125 43.2858 78.125 40.4875 80.9233 40.4875 84.375 40.4875 87.8267 43.2858 90.625 46.7375 90.625ZM46.7375 81.25C48.4634 81.25 49.8625 82.6491 49.8625 84.375 49.8625 86.1009 48.4634 87.5 46.7375 87.5 45.0116 87.5 43.6125 86.1009 43.6125 84.375 43.6125 82.6491 45.0116 81.25 46.7375 81.25Z" fill="#04316A" transform="matrix(1.00667 0 0 1 73 135)"/><path d="M28.5266 96.9516C28.3458 96.1669 27.8944 95.4709 27.2516 94.9859 25.8763 93.9525 24.3167 93.1905 22.6562 92.7406 21.3877 92.3838 20.0772 92.1978 18.7594 92.1875 17.4464 92.1983 16.1408 92.3833 14.8766 92.7375 13.2114 93.1878 11.6471 93.9508 10.2672 94.9859 9.62433 95.4709 9.17291 96.1669 8.99219 96.9516 8.97969 97.0047 8.96875 97.0594 8.96094 97.1078L6.40625 115.408C6.28656 116.262 6.88177 117.052 7.73594 117.172 7.80838 117.182 7.88148 117.188 7.95469 117.188 8.73295 117.187 9.39183 116.613 9.5 115.842L12.0422 97.6469C12.0559 97.5845 12.0914 97.5292 12.1422 97.4906 13.2045 96.6937 14.4087 96.1061 15.6906 95.7594 16.6892 95.4753 17.7213 95.325 18.7594 95.3125 19.8002 95.3234 20.8348 95.4731 21.8359 95.7578 23.1152 96.1038 24.3169 96.6902 25.3766 97.4859 25.4273 97.5245 25.4628 97.5798 25.4766 97.6422L28.0219 115.838C28.13 116.608 28.7889 117.182 29.5672 117.183 29.6405 117.183 29.7134 117.178 29.7859 117.167 30.6406 117.048 31.2366 116.258 31.1172 115.404 31.1172 115.403 31.1172 115.403 31.1172 115.403L28.5578 97.1125C28.5505 97.0583 28.54 97.0045 28.5266 96.9516Z" fill="#04316A" transform="matrix(1.00667 0 0 1 73 135)"/><path d="M18.75 90.625C22.2017 90.625 25 87.8267 25 84.375 25 80.9233 22.2017 78.125 18.75 78.125 15.2982 78.125 12.5 80.9233 12.5 84.375 12.5 87.8267 15.2982 90.625 18.75 90.625ZM18.75 81.25C20.4759 81.25 21.875 82.6491 21.875 84.375 21.875 86.1009 20.4759 87.5 18.75 87.5 17.0241 87.5 15.625 86.1009 15.625 84.375 15.625 82.6491 17.0241 81.25 18.75 81.25Z" fill="#04316A" transform="matrix(1.00667 0 0 1 73 135)"/><path d="M51.425 101.562C51.425 100.7 50.7255 100 49.8625 100 48.9995 100 48.3 100.7 48.3 101.562L48.3 115.625 45.175 115.625 45.175 101.562C45.175 100.7 44.4755 100 43.6125 100 42.7495 100 42.05 100.7 42.05 101.562L42.05 140.558 45.175 140.558 45.175 118.75 48.3 118.75 48.3 140.558 51.425 140.558 51.425 106.25 51.425 106.25Z" fill="#04316A" transform="matrix(1.00667 0 0 1 73 135)"/><path d="M23.4375 101.562C23.4375 100.7 22.738 100 21.875 100L21.875 100C21.012 100 20.3125 100.7 20.3125 101.562L20.3125 108.734 25.1125 121.875 12.3906 121.875 17.1875 108.733 17.1875 108.458 17.1875 108.458 17.1875 101.562C17.1875 100.7 16.488 100 15.625 100L15.625 100C14.762 100 14.0625 100.7 14.0625 101.562L14.0625 108.183 7.92344 125 14.0625 125 14.0625 140.625 17.1875 140.625 17.1875 125 20.3125 125 20.3125 140.625 23.4375 140.625 23.4375 125 29.5781 125 23.4375 108.18Z" fill="#04316A" transform="matrix(1.00667 0 0 1 73 135)"/><path d="M112.762 96.95C112.582 96.1664 112.132 95.4713 111.491 94.9859 110.113 93.9523 108.55 93.1903 106.887 92.7406 104.349 92.0052 101.654 92.0052 99.1156 92.7406 97.4497 93.1902 95.8847 93.9533 94.5047 94.9891 93.8619 95.4741 93.4105 96.17 93.2297 96.9547 93.2172 97.0078 93.2063 97.0625 93.1984 97.1109L90.6406 115.408C90.5209 116.262 91.1161 117.052 91.9703 117.172 92.0422 117.182 92.1148 117.188 92.1875 117.188 92.9658 117.187 93.6247 116.613 93.7328 115.842L96.2781 97.6469C96.2925 97.5848 96.3278 97.5297 96.3781 97.4906 97.4406 96.6931 98.6455 96.1056 99.9281 95.7594 101.933 95.1677 104.067 95.1677 106.072 95.7594 107.351 96.1053 108.553 96.6917 109.613 97.4875 109.663 97.5266 109.698 97.5817 109.713 97.6438L112.258 115.838C112.366 116.608 113.024 117.181 113.802 117.183 113.875 117.183 113.949 117.178 114.022 117.167 114.876 117.047 115.471 116.257 115.352 115.403L112.795 97.1125C112.787 97.0578 112.777 97.0034 112.762 96.95Z" fill="#04316A" transform="matrix(1.00667 0 0 1 73 135)"/><path d="M102.988 90.625C106.439 90.625 109.238 87.8267 109.238 84.375 109.238 80.9233 106.439 78.125 102.988 78.125 99.5358 78.125 96.7375 80.9233 96.7375 84.375 96.7375 87.8267 99.5358 90.625 102.988 90.625ZM102.988 81.25C104.713 81.25 106.113 82.6491 106.113 84.375 106.113 86.1009 104.713 87.5 102.988 87.5 101.262 87.5 99.8625 86.1009 99.8625 84.375 99.8625 82.6491 101.262 81.25 102.988 81.25Z" fill="#04316A" transform="matrix(1.00667 0 0 1 73 135)"/><path d="M84.7766 96.9516C84.5958 96.1669 84.1444 95.4709 83.5016 94.9859 82.1263 93.9525 80.5667 93.1905 78.9062 92.7406 76.3673 92.0052 73.6717 92.0052 71.1328 92.7406 69.4677 93.1909 67.9033 93.9539 66.5234 94.9891 65.8806 95.4741 65.4292 96.17 65.2484 96.9547 65.2359 97.0078 65.225 97.0625 65.2172 97.1109L62.6562 115.408C62.5366 116.262 63.1317 117.052 63.9859 117.172 64.0584 117.182 64.1316 117.188 64.2047 117.188 64.983 117.187 65.6419 116.613 65.75 115.842L68.2953 97.6469C68.3091 97.5845 68.3445 97.5292 68.3953 97.4906 69.4577 96.6937 70.6619 96.1061 71.9437 95.7594 73.9495 95.1677 76.0833 95.1677 78.0891 95.7594 79.3683 96.1053 80.57 96.6917 81.6297 97.4875 81.6805 97.5261 81.7159 97.5814 81.7297 97.6438L84.275 115.839C84.3831 116.61 85.042 117.183 85.8203 117.184 85.8934 117.185 85.9666 117.179 86.0391 117.169 86.8938 117.049 87.4897 116.26 87.3703 115.405 87.3703 115.405 87.3703 115.405 87.3703 115.405L84.8078 97.1125C84.8005 97.0583 84.79 97.0045 84.7766 96.9516Z" fill="#04316A" transform="matrix(1.00667 0 0 1 73 135)"/><path d="M75 78.125C71.5483 78.125 68.75 80.9233 68.75 84.375 68.75 87.8267 71.5483 90.625 75 90.625 78.4517 90.625 81.25 87.8267 81.25 84.375 81.25 80.9233 78.4517 78.125 75 78.125ZM75 87.5C73.2741 87.5 71.875 86.1009 71.875 84.375 71.875 82.6491 73.2741 81.25 75 81.25 76.7259 81.25 78.125 82.6491 78.125 84.375 78.125 86.1009 76.7259 87.5 75 87.5Z" fill="#04316A" transform="matrix(1.00667 0 0 1 73 135)"/><path d="M107.675 101.562C107.675 100.7 106.975 100 106.113 100 105.25 100 104.55 100.7 104.55 101.562L104.55 115.625 101.425 115.625 101.425 101.562C101.425 100.7 100.725 100 99.8625 100 98.9995 100 98.3 100.7 98.3 101.562L98.3 140.558 101.425 140.558 101.425 118.75 104.55 118.75 104.55 140.558 107.675 140.558 107.675 106.25 107.675 106.25Z" fill="#04316A" transform="matrix(1.00667 0 0 1 73 135)"/><path d="M79.6875 101.562C79.6875 100.7 78.988 100 78.125 100L78.125 100C77.262 100 76.5625 100.7 76.5625 101.562L76.5625 108.734 81.3625 121.875 68.6406 121.875 73.4375 108.733 73.4375 108.458 73.4375 108.458 73.4375 101.562C73.4375 100.7 72.738 100 71.875 100L71.875 100C71.012 100 70.3125 100.7 70.3125 101.562L70.3125 108.183 64.1734 125 70.3125 125 70.3125 140.625 73.4375 140.625 73.4375 125 76.5625 125 76.5625 140.625 79.6875 140.625 79.6875 125 85.8281 125 79.6875 108.18Z" fill="#04316A" transform="matrix(1.00667 0 0 1 73 135)"/><path d="M56.5125 28.2C56.332 27.4164 55.8819 26.7213 55.2406 26.2359 53.8625 25.2023 52.3003 24.4403 50.6375 23.9906 48.0991 23.2552 45.4041 23.2552 42.8656 23.9906 41.1997 24.4402 39.6347 25.2033 38.2547 26.2391 37.6119 26.7241 37.1605 27.42 36.9797 28.2047 36.9672 28.2578 36.9562 28.3125 36.9484 28.3609L34.3906 46.6578C34.2709 47.512 34.8661 48.3017 35.7203 48.4219 35.7922 48.4323 35.8648 48.4375 35.9375 48.4375 36.7158 48.4366 37.3747 47.863 37.4828 47.0922L40.0281 28.8969C40.0425 28.8348 40.0778 28.7797 40.1281 28.7406 41.1906 27.9431 42.3955 27.3556 43.6781 27.0094 45.6833 26.4177 47.8167 26.4177 49.8219 27.0094 51.1011 27.3553 52.3028 27.9417 53.3625 28.7375 53.4128 28.7766 53.4481 28.8317 53.4625 28.8938L56.0078 47.0875C56.1159 47.8577 56.7739 48.4311 57.5516 48.4328 57.6253 48.433 57.6989 48.4278 57.7719 48.4172 58.6261 48.297 59.2212 47.5073 59.1016 46.6531L56.5453 28.3625C56.5375 28.3078 56.5266 28.2534 56.5125 28.2Z" fill="#04316A" transform="matrix(1.00667 0 0 1 73 135)"/><path d="M46.7375 21.875C50.1892 21.875 52.9875 19.0767 52.9875 15.625 52.9875 12.1732 50.1892 9.375 46.7375 9.375 43.2858 9.375 40.4875 12.1732 40.4875 15.625 40.4875 19.0767 43.2858 21.875 46.7375 21.875ZM46.7375 12.5C48.4634 12.5 49.8625 13.8991 49.8625 15.625 49.8625 17.3509 48.4634 18.75 46.7375 18.75 45.0116 18.75 43.6125 17.3509 43.6125 15.625 43.6125 13.8991 45.0116 12.5 46.7375 12.5Z" fill="#04316A" transform="matrix(1.00667 0 0 1 73 135)"/><path d="M45.175 37.5 45.175 32.8125C45.175 31.9495 44.4755 31.25 43.6125 31.25 42.7495 31.25 42.05 31.9495 42.05 32.8125L42.05 71.8078 45.175 71.8078 45.175 50 48.3 50 48.3 71.8078 51.425 71.8078 51.425 37.5 51.425 37.5 51.425 32.8125C51.425 31.9495 50.7255 31.25 49.8625 31.25 48.9995 31.25 48.3 31.9495 48.3 32.8125L48.3 46.875 45.175 46.875 45.175 37.5Z" fill="#04316A" transform="matrix(1.00667 0 0 1 73 135)"/><path d="M112.762 28.2C112.582 27.4164 112.132 26.7213 111.491 26.2359 110.113 25.2023 108.55 24.4403 106.887 23.9906 104.349 23.2552 101.654 23.2552 99.1156 23.9906 97.4497 24.4402 95.8847 25.2033 94.5047 26.2391 93.8619 26.7241 93.4105 27.42 93.2297 28.2047 93.2172 28.2578 93.2063 28.3125 93.1984 28.3609L90.6406 46.6578C90.5209 47.512 91.1161 48.3017 91.9703 48.4219 92.0422 48.4323 92.1148 48.4375 92.1875 48.4375 92.9658 48.4366 93.6247 47.863 93.7328 47.0922L96.2781 28.8969C96.2925 28.8348 96.3278 28.7797 96.3781 28.7406 97.4406 27.9431 98.6455 27.3556 99.9281 27.0094 101.933 26.4177 104.067 26.4177 106.072 27.0094 107.351 27.3553 108.553 27.9417 109.613 28.7375 109.663 28.7766 109.698 28.8317 109.713 28.8938L112.258 47.0875C112.366 47.8577 113.024 48.4311 113.802 48.4328 113.875 48.433 113.949 48.4278 114.022 48.4172 114.876 48.297 115.471 47.5073 115.352 46.6531L112.795 28.3625C112.787 28.3078 112.777 28.2534 112.762 28.2Z" fill="#04316A" transform="matrix(1.00667 0 0 1 73 135)"/><path d="M102.988 21.875C106.439 21.875 109.238 19.0767 109.238 15.625 109.238 12.1732 106.439 9.375 102.988 9.375 99.5358 9.375 96.7375 12.1732 96.7375 15.625 96.7375 19.0767 99.5358 21.875 102.988 21.875ZM102.988 12.5C104.713 12.5 106.113 13.8991 106.113 15.625 106.113 17.3509 104.713 18.75 102.988 18.75 101.262 18.75 99.8625 17.3509 99.8625 15.625 99.8625 13.8991 101.262 12.5 102.988 12.5Z" fill="#04316A" transform="matrix(1.00667 0 0 1 73 135)"/><path d="M84.7766 28.2016C84.5958 27.4169 84.1444 26.7209 83.5016 26.2359 82.1263 25.2025 80.5667 24.4405 78.9062 23.9906 76.3673 23.2552 73.6717 23.2552 71.1328 23.9906 69.4677 24.4408 67.9033 25.2039 66.5234 26.2391 65.8806 26.7241 65.4292 27.42 65.2484 28.2047 65.2359 28.2578 65.225 28.3125 65.2172 28.3609L62.6562 46.6578C62.5366 47.512 63.1317 48.3017 63.9859 48.4219 64.0584 48.4323 64.1316 48.4377 64.2047 48.4375 64.983 48.4366 65.6419 47.863 65.75 47.0922L68.2953 28.8969C68.3091 28.8345 68.3445 28.7792 68.3953 28.7406 69.4577 27.9438 70.6619 27.3561 71.9437 27.0094 73.9495 26.4177 76.0833 26.4177 78.0891 27.0094 79.3683 27.3553 80.57 27.9417 81.6297 28.7375 81.6805 28.7761 81.7159 28.8314 81.7297 28.8938L84.275 47.0891C84.3831 47.8598 85.042 48.4334 85.8203 48.4344 85.8934 48.4345 85.9666 48.4294 86.0391 48.4188 86.8938 48.2994 87.4897 47.5097 87.3703 46.6552 87.3703 46.655 87.3703 46.6548 87.3703 46.6547L84.8078 28.3625C84.8005 28.3083 84.79 28.2545 84.7766 28.2016Z" fill="#04316A" transform="matrix(1.00667 0 0 1 73 135)"/><path d="M75 21.875C78.4517 21.875 81.25 19.0767 81.25 15.625 81.25 12.1732 78.4517 9.375 75 9.375 71.5483 9.375 68.75 12.1732 68.75 15.625 68.75 19.0767 71.5483 21.875 75 21.875ZM75 12.5C76.7259 12.5 78.125 13.8991 78.125 15.625 78.125 17.3509 76.7259 18.75 75 18.75 73.2741 18.75 71.875 17.3509 71.875 15.625 71.875 13.8991 73.2741 12.5 75 12.5Z" fill="#04316A" transform="matrix(1.00667 0 0 1 73 135)"/><path d="M101.425 37.5 101.425 32.8125C101.425 31.9495 100.725 31.25 99.8625 31.25 98.9995 31.25 98.3 31.9495 98.3 32.8125L98.3 71.8078 101.425 71.8078 101.425 50 104.55 50 104.55 71.8078 107.675 71.8078 107.675 37.5 107.675 37.5 107.675 32.8125C107.675 31.9495 106.975 31.25 106.113 31.25 105.25 31.25 104.55 31.9495 104.55 32.8125L104.55 46.875 101.425 46.875 101.425 37.5Z" fill="#04316A" transform="matrix(1.00667 0 0 1 73 135)"/><path d="M66.3203 56.25 70.3125 56.25 70.3125 71.875 73.4375 71.875 73.4375 56.25 76.5625 56.25 76.5625 71.875 79.6875 71.875 79.6875 56.25 85.8281 56.25 79.6875 39.4297 79.6875 32.8125C79.6875 31.9495 78.988 31.25 78.125 31.25L78.125 31.25C77.262 31.25 76.5625 31.9495 76.5625 32.8125L76.5625 39.9844 81.3625 53.125 68.6406 53.125 73.4375 39.9828 73.4375 39.7078 73.4375 39.7078 73.4375 32.8125C73.4375 31.9495 72.738 31.25 71.875 31.25L71.875 31.25C71.012 31.25 70.3125 31.9495 70.3125 32.8125L70.3125 39.4328 64.1734 56.25Z" fill="#04316A" transform="matrix(1.00667 0 0 1 73 135)"/><path d="M141.027 96.9516C140.846 96.1669 140.394 95.4709 139.752 94.9859 138.376 93.9525 136.817 93.1905 135.156 92.7406 132.617 92.0052 129.922 92.0052 127.383 92.7406 125.718 93.1909 124.153 93.9539 122.773 94.9891 122.131 95.4741 121.679 96.17 121.498 96.9547 121.486 97.0078 121.475 97.0625 121.467 97.1109L118.906 115.408C118.787 116.262 119.382 117.052 120.236 117.172 120.308 117.182 120.382 117.188 120.455 117.188 121.233 117.187 121.892 116.613 122 115.842L124.545 97.6469C124.559 97.5845 124.595 97.5292 124.645 97.4906 125.708 96.6937 126.912 96.1061 128.194 95.7594 130.2 95.1677 132.333 95.1677 134.339 95.7594 135.618 96.1053 136.82 96.6917 137.88 97.4875 137.93 97.5261 137.966 97.5814 137.98 97.6438L140.525 115.839C140.633 116.61 141.292 117.183 142.07 117.184 142.143 117.185 142.217 117.179 142.289 117.169 143.144 117.049 143.74 116.26 143.62 115.405 143.62 115.405 143.62 115.405 143.62 115.405L141.058 97.1125C141.05 97.0583 141.04 97.0045 141.027 96.9516Z" fill="#04316A" transform="matrix(1.00667 0 0 1 73 135)"/><path d="M131.25 90.625C134.702 90.625 137.5 87.8267 137.5 84.375 137.5 80.9233 134.702 78.125 131.25 78.125 127.798 78.125 125 80.9233 125 84.375 125 87.8267 127.798 90.625 131.25 90.625ZM131.25 81.25C132.976 81.25 134.375 82.6491 134.375 84.375 134.375 86.1009 132.976 87.5 131.25 87.5 129.524 87.5 128.125 86.1009 128.125 84.375 128.125 82.6491 129.524 81.25 131.25 81.25Z" fill="#04316A" transform="matrix(1.00667 0 0 1 73 135)"/><path d="M135.938 101.562C135.938 100.7 135.238 100 134.375 100L134.375 100C133.512 100 132.812 100.7 132.812 101.562L132.812 108.734 137.613 121.875 124.891 121.875 129.688 108.733 129.688 108.458 129.688 108.458 129.688 101.562C129.688 100.7 128.988 100 128.125 100L128.125 100C127.262 100 126.562 100.7 126.562 101.562L126.562 108.183 120.423 125 126.562 125 126.562 140.625 129.688 140.625 129.688 125 132.812 125 132.812 140.625 135.938 140.625 135.938 125 142.078 125 135.938 108.18Z" fill="#04316A" transform="matrix(1.00667 0 0 1 73 135)"/></g></g></g><g clip-path="url(#clip4)"><g clip-path="url(#clip5)"><g clip-path="url(#clip6)"><path d="M146.125 479.42C149.577 479.42 152.375 476.622 152.375 473.17 152.375 469.719 149.577 466.92 146.125 466.92 142.673 466.92 139.875 469.719 139.875 473.17 139.895 476.614 142.682 479.4 146.125 479.42ZM146.125 470.045C147.851 470.045 149.25 471.444 149.25 473.17 149.25 474.896 147.851 476.295 146.125 476.295 144.399 476.295 143 474.896 143 473.17 143.022 471.454 144.408 470.067 146.125 470.045Z" fill="#FFFF00"/><path d="M127.375 509.628C130.827 509.628 133.625 506.83 133.625 503.378 133.625 499.926 130.827 497.128 127.375 497.128 123.923 497.128 121.125 499.926 121.125 503.378 121.125 506.83 123.923 509.628 127.375 509.628ZM127.375 500.253C129.101 500.253 130.5 501.652 130.5 503.378 130.5 505.104 129.101 506.503 127.375 506.503 125.649 506.503 124.25 505.104 124.25 503.378 124.25 501.652 125.649 500.253 127.375 500.253Z" fill="#FFFF00"/><path d="M114.734 510.223 113.395 514.092 116.364 517.069 120.233 515.878C121.258 516.477 122.363 516.928 123.514 517.217L125.297 520.938 129.462 520.938 131.1 517.366C132.251 517.076 133.356 516.625 134.381 516.027L138.248 517.366 141.217 514.397 140.031 510.52C140.629 509.497 141.08 508.395 141.37 507.247L145.089 505.461 145.237 500.997 141.514 499.219C141.224 498.068 140.773 496.963 140.175 495.938L141.514 492.069 138.545 489.092 134.677 490.431C133.653 489.834 132.552 489.383 131.403 489.092L129.619 485.372 125.297 485.372 123.512 489.092C122.361 489.383 121.257 489.833 120.231 490.431L116.363 489.092 113.394 492.069 114.734 495.938C114.136 496.96 113.686 498.062 113.395 499.211L109.677 500.997 109.677 505.164 113.395 506.95C113.686 508.099 114.136 509.201 114.734 510.223ZM112.802 502.969 114.748 502.031 116.072 501.397 116.427 499.972C116.647 499.1 116.991 498.265 117.448 497.491L118.152 496.259 117.683 494.919 116.983 492.898 117.192 492.689 119.213 493.388 120.553 493.856 121.784 493.153C122.559 492.696 123.394 492.352 124.266 492.131L125.689 491.775 126.325 490.452 127.262 488.505 127.644 488.505 128.581 490.452 129.217 491.775 130.641 492.131C131.512 492.352 132.348 492.696 133.122 493.153L134.353 493.856 135.694 493.388 137.714 492.689 137.922 492.898 137.219 494.916 136.75 496.256 137.453 497.487C137.909 498.262 138.253 499.098 138.475 499.969L138.83 501.394 140.153 502.028 142.028 502.931 142.011 503.464 139.998 504.43 138.675 505.066 138.319 506.489C138.099 507.361 137.755 508.196 137.298 508.97L136.627 510.145 137.025 511.439 137.663 513.511 137.4 513.773 135.381 513.073 134.041 512.605 132.808 513.309C132.034 513.766 131.199 514.109 130.328 514.33L128.87 514.694 128.245 516.059 127.458 517.812 127.264 517.812 126.327 515.866 125.691 514.542 124.267 514.186C123.396 513.965 122.56 513.621 121.786 513.164L120.611 512.492 119.317 512.891 117.247 513.528 116.984 513.266 117.688 511.25 118.156 509.909 117.453 508.678C116.996 507.904 116.652 507.068 116.431 506.197L116.077 504.772 114.753 504.138 112.806 503.2Z" fill="#FFFF00"/><path d="M133.331 480.164 131.992 484.033 134.961 487.009 138.83 485.67C139.853 486.268 140.955 486.718 142.103 487.009L143.887 490.73 148.053 490.73 149.839 487.158C150.99 486.867 152.095 486.417 153.12 485.819L156.987 487.158 159.964 484.181 158.625 480.312C159.269 479.295 159.77 478.194 160.112 477.039L163.831 475.253 163.831 470.789 160.112 469.003C159.822 467.855 159.371 466.753 158.773 465.73L160.112 461.859 157.144 458.891 153.275 460.23C152.252 459.632 151.15 459.181 150.002 458.891L148.209 455.312 144.044 455.312 142.258 459.033C141.106 459.322 140.002 459.773 138.977 460.372L135.109 459.033 132.141 462.009 133.331 465.878C132.734 466.901 132.283 468.003 131.992 469.152L128.273 470.938 128.273 475.105 131.992 476.891C132.283 478.039 132.734 479.141 133.331 480.164ZM131.398 472.903 133.345 471.966 134.669 471.331 135.023 469.906C135.245 469.035 135.589 468.2 136.045 467.425L136.716 466.25 136.319 464.956 135.681 462.884 135.944 462.623 137.962 463.322 139.303 463.791 140.536 463.087C141.31 462.63 142.145 462.286 143.016 462.066L144.441 461.709 145.075 460.386 146.013 458.439 146.281 458.439 147.203 460.283 147.844 461.562 149.238 461.911C150.109 462.132 150.944 462.475 151.719 462.931L152.95 463.636 154.291 463.167 156.311 462.467 156.519 462.677 155.812 464.708 155.344 466.047 156.047 467.28C156.504 468.054 156.848 468.89 157.069 469.761L157.423 471.184 158.747 471.82 160.694 472.758 160.694 473.281 158.747 474.219 157.423 474.853 157.069 476.278C156.788 477.152 156.394 477.986 155.898 478.759L155.195 479.991 155.664 481.331 156.363 483.352 156.153 483.561 154.134 482.862 152.794 482.394 151.561 483.097C150.787 483.554 149.952 483.898 149.081 484.119L147.686 484.467 147.044 485.753 146.122 487.597 145.855 487.597 144.917 485.648 144.281 484.325 142.858 483.969C141.986 483.749 141.151 483.405 140.377 482.948L139.145 482.245 137.805 482.714 135.784 483.413 135.577 483.203 136.275 481.183 136.744 479.842 136.041 478.611C135.584 477.836 135.24 477.001 135.019 476.13L134.664 474.705 133.341 474.07 131.394 473.133Z" fill="#FFFF00"/><path d="M113.312 530.339 113.312 569.881 162.688 569.881 162.688 551.131 170.344 551.131C175.271 551.122 179.993 549.155 183.469 545.662 186.896 542.093 188.802 537.33 188.781 532.381L188.781 523.006 195.656 523.006C199.719 522.537 203.312 517.85 199.562 512.069L188.781 493.319 188.781 492.538C189.796 466.606 169.597 444.762 143.665 443.747 117.734 442.732 95.8898 462.931 94.875 488.863 94.827 490.087 94.827 491.313 94.875 492.538 94.8211 507.317 101.633 521.283 113.312 530.339ZM119.431 453.009C140.259 440.638 167.173 447.493 179.545 468.321 183.863 475.591 185.988 483.954 185.664 492.403L185.664 494.131 186.08 494.855 196.861 513.605 196.903 513.677 196.948 513.747C197.963 514.971 198.263 516.638 197.739 518.139 197.296 519.045 196.445 519.685 195.452 519.858L185.656 519.858 185.656 532.358C185.673 536.479 184.097 540.447 181.258 543.434 178.376 546.354 174.446 547.999 170.344 548.002L159.562 548.002 159.562 566.752 116.438 566.752 116.438 528.806 115.225 527.869C104.285 519.415 97.9145 506.341 98 492.516L98 492.459 98 492.403C97.3656 476.332 105.595 461.207 119.433 453.009Z" fill="#FFFF00"/></g></g></g><g clip-path="url(#clip7)"><g clip-path="url(#clip8)"><g clip-path="url(#clip9)"><path d="M56.25 31.25 85 31.25 85 33.75 56.25 33.75Z" fill="#70AD47" transform="matrix(1.00833 0 0 1 349 450)"/><path d="M56.25 50 85 50 85 52.5 56.25 52.5Z" fill="#70AD47" transform="matrix(1.00833 0 0 1 349 450)"/><path d="M56.25 68.75 85 68.75 85 71.25 56.25 71.25Z" fill="#70AD47" transform="matrix(1.00833 0 0 1 349 450)"/><path d="M56.25 87.5 85 87.5 85 90 56.25 90Z" fill="#70AD47" transform="matrix(1.00833 0 0 1 349 450)"/><path d="M22.5 110 97.5 110 97.5 10 22.5 10ZM25 12.5 95 12.5 95 107.5 25 107.5Z" fill="#70AD47" transform="matrix(1.00833 0 0 1 349 450)"/><path d="M35 38.125 46.25 38.125 46.25 26.875 35 26.875ZM37.5 29.375 43.75 29.375 43.75 35.625 37.5 35.625Z" fill="#70AD47" transform="matrix(1.00833 0 0 1 349 450)"/><path d="M35 56.875 46.25 56.875 46.25 45.625 35 45.625ZM37.5 48.125 43.75 48.125 43.75 54.375 37.5 54.375Z" fill="#70AD47" transform="matrix(1.00833 0 0 1 349 450)"/><path d="M35 75.625 46.25 75.625 46.25 64.375 35 64.375ZM37.5 66.875 43.75 66.875 43.75 73.125 37.5 73.125Z" fill="#70AD47" transform="matrix(1.00833 0 0 1 349 450)"/><path d="M35 94.375 46.25 94.375 46.25 83.125 35 83.125ZM37.5 85.625 43.75 85.625 43.75 91.875 37.5 91.875Z" fill="#70AD47" transform="matrix(1.00833 0 0 1 349 450)"/></g></g></g><path d="M298.5 145C298.5 138.096 304.096 132.5 311 132.5 317.904 132.5 323.5 138.096 323.5 145 323.5 151.904 317.904 157.5 311 157.5 304.096 157.5 298.5 151.904 298.5 145Z" stroke="#04316A" stroke-width="1.33333" stroke-miterlimit="8" fill="#04316A" fill-rule="evenodd"/><path d="M566.5 139C566.5 132.096 572.096 126.5 579 126.5 585.904 126.5 591.5 132.096 591.5 139 591.5 145.904 585.904 151.5 579 151.5 572.096 151.5 566.5 145.904 566.5 139Z" stroke="#04316A" stroke-width="1.33333" stroke-miterlimit="8" fill="#04316A" fill-rule="evenodd"/><path d="M476.5 139C476.5 132.096 482.096 126.5 489 126.5 495.904 126.5 501.5 132.096 501.5 139 501.5 145.904 495.904 151.5 489 151.5 482.096 151.5 476.5 145.904 476.5 139Z" stroke="#04316A" stroke-width="1.33333" stroke-miterlimit="8" fill="#04316A" fill-rule="evenodd"/><path d="M267.5 129C267.5 122.096 273.096 116.5 280 116.5 286.904 116.5 292.5 122.096 292.5 129 292.5 135.904 286.904 141.5 280 141.5 273.096 141.5 267.5 135.904 267.5 129Z" stroke="#04316A" stroke-width="1.33333" stroke-miterlimit="8" fill="#04316A" fill-rule="evenodd"/><path d="M507.5 88.5001C507.5 81.3204 513.096 75.5001 520 75.5001 526.904 75.5001 532.5 81.3204 532.5 88.5001 532.5 95.6798 526.904 101.5 520 101.5 513.096 101.5 507.5 95.6798 507.5 88.5001Z" stroke="#04316A" stroke-width="1.33333" stroke-miterlimit="8" fill="#04316A" fill-rule="evenodd"/><path d="M417.5 87.0001C417.5 80.0965 423.096 74.5001 430 74.5001 436.904 74.5001 442.5 80.0965 442.5 87.0001 442.5 93.9036 436.904 99.5001 430 99.5001 423.096 99.5001 417.5 93.9036 417.5 87.0001Z" stroke="#04316A" stroke-width="1.33333" stroke-miterlimit="8" fill="#04316A" fill-rule="evenodd"/><path d="M471.5 230C471.5 223.096 477.096 217.5 484 217.5 490.904 217.5 496.5 223.096 496.5 230 496.5 236.904 490.904 242.5 484 242.5 477.096 242.5 471.5 236.904 471.5 230Z" stroke="#04316A" stroke-width="1.33333" stroke-miterlimit="8" fill="#04316A" fill-rule="evenodd"/><path d="M439.5 196.5C439.5 189.32 445.096 183.5 452 183.5 458.904 183.5 464.5 189.32 464.5 196.5 464.5 203.68 458.904 209.5 452 209.5 445.096 209.5 439.5 203.68 439.5 196.5Z" stroke="#04316A" stroke-width="1.33333" stroke-miterlimit="8" fill="#04316A" fill-rule="evenodd"/><path d="M557.5 279C557.5 272.096 563.32 266.5 570.5 266.5 577.68 266.5 583.5 272.096 583.5 279 583.5 285.904 577.68 291.5 570.5 291.5 563.32 291.5 557.5 285.904 557.5 279Z" stroke="#04316A" stroke-width="1.33333" stroke-miterlimit="8" fill="#04316A" fill-rule="evenodd"/><path d="M525.5 225C525.5 218.096 531.32 212.5 538.5 212.5 545.68 212.5 551.5 218.096 551.5 225 551.5 231.904 545.68 237.5 538.5 237.5 531.32 237.5 525.5 231.904 525.5 225Z" stroke="#04316A" stroke-width="1.33333" stroke-miterlimit="8" fill="#04316A" fill-rule="evenodd"/><path d="M558.5 71.0001C558.5 64.0965 564.32 58.5001 571.5 58.5001 578.68 58.5001 584.5 64.0965 584.5 71.0001 584.5 77.9036 578.68 83.5001 571.5 83.5001 564.32 83.5001 558.5 77.9036 558.5 71.0001Z" stroke="#04316A" stroke-width="1.33333" stroke-miterlimit="8" fill="#04316A" fill-rule="evenodd"/><path d="M523.5 171C523.5 164.096 529.32 158.5 536.5 158.5 543.68 158.5 549.5 164.096 549.5 171 549.5 177.904 543.68 183.5 536.5 183.5 529.32 183.5 523.5 177.904 523.5 171Z" stroke="#04316A" stroke-width="1.33333" stroke-miterlimit="8" fill="#04316A" fill-rule="evenodd"/><path d="M340.5 104C340.5 97.0965 346.32 91.5001 353.5 91.5001 360.68 91.5001 366.5 97.0965 366.5 104 366.5 110.904 360.68 116.5 353.5 116.5 346.32 116.5 340.5 110.904 340.5 104Z" stroke="#04316A" stroke-width="1.33333" stroke-miterlimit="8" fill="#04316A" fill-rule="evenodd"/><path d="M300.5 255C300.5 248.096 306.096 242.5 313 242.5 319.904 242.5 325.5 248.096 325.5 255 325.5 261.904 319.904 267.5 313 267.5 306.096 267.5 300.5 261.904 300.5 255Z" stroke="#04316A" stroke-width="1.33333" stroke-miterlimit="8" fill="#04316A" fill-rule="evenodd"/><path d="M342.5 203C342.5 196.096 348.096 190.5 355 190.5 361.904 190.5 367.5 196.096 367.5 203 367.5 209.904 361.904 215.5 355 215.5 348.096 215.5 342.5 209.904 342.5 203Z" stroke="#04316A" stroke-width="1.33333" stroke-miterlimit="8" fill="#04316A" fill-rule="evenodd"/><path d="M375.5 244C375.5 237.096 381.32 231.5 388.5 231.5 395.68 231.5 401.5 237.096 401.5 244 401.5 250.904 395.68 256.5 388.5 256.5 381.32 256.5 375.5 250.904 375.5 244Z" stroke="#04316A" stroke-width="1.33333" stroke-miterlimit="8" fill="#04316A" fill-rule="evenodd"/><path d="M506.5 281C506.5 274.096 512.096 268.5 519 268.5 525.904 268.5 531.5 274.096 531.5 281 531.5 287.904 525.904 293.5 519 293.5 512.096 293.5 506.5 287.904 506.5 281Z" stroke="#04316A" stroke-width="1.33333" stroke-miterlimit="8" fill="#04316A" fill-rule="evenodd"/><path d="M548.5 341C548.5 334.096 554.096 328.5 561 328.5 567.904 328.5 573.5 334.096 573.5 341 573.5 347.904 567.904 353.5 561 353.5 554.096 353.5 548.5 347.904 548.5 341Z" stroke="#04316A" stroke-width="1.33333" stroke-miterlimit="8" fill="#04316A" fill-rule="evenodd"/><path d="M421.5 276C421.5 269.096 427.096 263.5 434 263.5 440.904 263.5 446.5 269.096 446.5 276 446.5 282.904 440.904 288.5 434 288.5 427.096 288.5 421.5 282.904 421.5 276Z" stroke="#04316A" stroke-width="1.33333" stroke-miterlimit="8" fill="#04316A" fill-rule="evenodd"/><path d="M2-0.00285907 2.19935 139.45-1.80064 139.456-2 0.00285907ZM6.19649 137.444 0.213648 149.453-5.8035 137.461Z" fill="#FFFF00" transform="matrix(1 0 0 -1 148 434.453)"/><path d="M0 0 151.977 161.781" stroke="#70AD47" stroke-width="2" stroke-miterlimit="8" fill="none" fill-rule="evenodd" transform="matrix(1 0 0 -1 409 449.781)"/><path d="M409.693 449.677 311 157" stroke="#70AD47" stroke-width="2" stroke-miterlimit="8" fill="none" fill-rule="evenodd"/><g clip-path="url(#clip10)"><g clip-path="url(#clip11)"><g clip-path="url(#clip12)"><path d="M1149.14 45.8903C1149.18 46.3966 1149.18 46.903 1149.18 47.4093 1149.18 62.8528 1137.42 80.6472 1115.94 80.6472 1109.32 80.6472 1103.17 78.7303 1098 75.403 1098.94 75.5114 1099.84 75.5476 1100.82 75.5476 1106.28 75.5476 1111.31 73.7031 1115.32 70.5566 1110.19 70.448 1105.88 67.0845 1104.4 62.455 1105.12 62.5634 1105.85 62.6358 1106.61 62.6358 1107.66 62.6358 1108.71 62.4911 1109.68 62.238 1104.33 61.1529 1100.31 56.4512 1100.31 50.7729L1100.31 50.6283C1101.87 51.4963 1103.68 52.0388 1105.59 52.111 1102.45 50.0133 1100.39 46.4328 1100.39 42.382 1100.39 40.212 1100.97 38.2228 1101.98 36.4867 1107.73 43.5755 1116.37 48.2049 1126.07 48.7113 1125.89 47.8433 1125.78 46.9392 1125.78 46.035 1125.78 39.5971 1130.98 34.3529 1137.46 34.3529 1140.82 34.3529 1143.86 35.7634 1145.99 38.042 1148.63 37.5356 1151.17 36.5591 1153.41 35.2209 1152.54 37.9335 1150.7 40.2121 1148.27 41.6587 1150.62 41.4056 1152.9 40.7545 1155 39.8504 1153.41 42.165 1151.42 44.2265 1149.14 45.8903Z" fill="#04316A"/></g></g></g><path d="M976 536.167C976 522.268 987.268 511 1001.17 511L1101.83 511C1115.73 511 1127 522.268 1127 536.167L1127 636.833C1127 650.732 1115.73 662 1101.83 662L1001.17 662C987.268 662 976 650.732 976 636.833Z" stroke="#C55A11" stroke-width="2" stroke-miterlimit="8" fill="none" fill-rule="evenodd"/><path d="M976 309.667C976 296.044 987.044 285 1000.67 285L1102.33 285C1115.96 285 1127 296.044 1127 309.667L1127 408.333C1127 421.956 1115.96 433 1102.33 433L1000.67 433C987.044 433 976 421.956 976 408.333Z" stroke="#C55A11" stroke-width="2" stroke-miterlimit="8" fill="none" fill-rule="evenodd"/><g clip-path="url(#clip13)"><g clip-path="url(#clip14)"><g clip-path="url(#clip15)"><path d="M53.375 28.6344C53.375 44.1109 42.7766 55.125 27.125 55.125 12.1188 55.125 0 43.0063 0 28 0 12.9938 12.1188 0.875 27.125 0.875 34.4312 0.875 40.5781 3.55469 45.3141 7.97344L37.9312 15.0719C28.2734 5.75312 10.3141 12.7531 10.3141 28 10.3141 37.4609 17.8719 45.1281 27.125 45.1281 37.8656 45.1281 41.8906 37.4281 42.525 33.4359L27.125 33.4359 27.125 24.1062 52.9484 24.1062C53.2 25.4953 53.375 26.8297 53.375 28.6344Z" fill="#04316A" transform="matrix(1.01171 0 0 1 1108 481)"/></g></g></g><g clip-path="url(#clip16)"><g clip-path="url(#clip17)"><g clip-path="url(#clip18)"><path d="M1161.11 283.5C1161.11 268.248 1148.75 255.891 1133.5 255.891 1118.25 255.891 1105.89 268.248 1105.89 283.5 1105.89 297.28 1115.99 308.702 1129.19 310.775L1129.19 291.481 1122.17 291.481 1122.17 283.5 1129.19 283.5 1129.19 277.417C1129.19 270.498 1133.31 266.676 1139.61 266.676 1142.64 266.676 1145.8 267.215 1145.8 267.215L1145.8 274.006 1142.31 274.006C1138.88 274.006 1137.81 276.135 1137.81 278.318L1137.81 283.5 1145.47 283.5 1144.25 291.481 1137.81 291.481 1137.81 310.775C1151.01 308.702 1161.11 297.28 1161.11 283.5Z" fill="#04316A"/></g></g></g><g clip-path="url(#clip19)"><g clip-path="url(#clip20)"><g clip-path="url(#clip21)"><path d="M40.7947 9.20928C40.3285 7.45401 38.955 6.07161 37.2111 5.60248 34.0502 4.75 21.375 4.75 21.375 4.75 21.375 4.75 8.69992 4.75 5.53887 5.60248 3.79495 6.07169 2.42146 7.45401 1.95529 9.20928 1.10831 12.3908 1.10831 19.0288 1.10831 19.0288 1.10831 19.0288 1.10831 25.6668 1.95529 28.8483 2.42146 30.6036 3.79495 31.9284 5.53887 32.3975 8.69992 33.25 21.375 33.25 21.375 33.25 21.375 33.25 34.0501 33.25 37.2111 32.3975 38.955 31.9284 40.3285 30.6036 40.7947 28.8483 41.6417 25.6668 41.6417 19.0288 41.6417 19.0288 41.6417 19.0288 41.6417 12.3908 40.7947 9.20928ZM17.2295 25.0556 17.2295 13.002 27.8234 19.0289 17.2295 25.0556Z" fill="#04316A" transform="matrix(1.00585 0 0 1 1186 229)"/></g></g></g><g clip-path="url(#clip22)"><g clip-path="url(#clip23)"><g clip-path="url(#clip24)"><path d="M1200.96 400.674C1199.93 400.674 1199.11 399.85 1199.11 398.848 1199.11 397.824 1199.93 397 1200.96 397 1201.96 397 1202.78 397.824 1202.78 398.848 1202.78 399.857 1201.96 400.674 1200.96 400.674ZM1223.41 397C1223.41 407.168 1215.17 415.406 1205 415.406 1194.83 415.406 1186.59 407.168 1186.59 397 1186.59 386.832 1194.83 378.594 1205 378.594 1215.17 378.594 1223.41 386.832 1223.41 397ZM1213.59 393.942C1212.89 393.942 1212.27 394.232 1211.82 394.684 1210.16 393.534 1207.92 392.792 1205.43 392.71L1206.72 386.899 1210.83 387.827C1210.83 388.836 1211.66 389.652 1212.66 389.652 1213.68 389.652 1214.51 388.814 1214.51 387.804 1214.51 386.795 1213.68 385.956 1212.66 385.956 1211.94 385.956 1211.32 386.387 1211.02 386.98L1206.48 385.971C1206.25 385.912 1206.02 386.075 1205.96 386.298L1204.55 392.71C1202.08 392.814 1199.86 393.549 1198.2 394.699 1197.75 394.224 1197.11 393.942 1196.41 393.942 1193.82 393.942 1192.98 397.423 1195.34 398.603 1195.26 398.974 1195.22 399.36 1195.22 399.754 1195.22 403.657 1199.61 406.819 1205.01 406.819 1210.44 406.819 1214.83 403.657 1214.83 399.754 1214.83 399.36 1214.79 398.952 1214.69 398.581 1217.02 397.393 1216.16 393.942 1213.59 393.942ZM1208.47 402.566C1207.12 403.917 1202.83 403.895 1201.53 402.566 1201.36 402.403 1201.07 402.403 1200.91 402.566 1200.72 402.752 1200.72 403.041 1200.91 403.205 1202.6 404.897 1207.39 404.897 1209.09 403.205 1209.28 403.041 1209.28 402.752 1209.09 402.566 1208.93 402.403 1208.64 402.403 1208.47 402.566ZM1209.04 397C1208.04 397 1207.22 397.824 1207.22 398.848 1207.22 399.857 1208.04 400.674 1209.04 400.674 1210.07 400.674 1210.89 399.85 1210.89 398.848 1210.89 397.824 1210.08 397 1209.04 397Z" fill="#04316A"/></g></g></g><g clip-path="url(#clip25)"><g clip-path="url(#clip26)"><g clip-path="url(#clip27)"><path d="M16.6324 10.4648C11.9121 10.4648 8.10469 14.2723 8.10469 18.9926 8.10469 23.7129 11.9121 27.5203 16.6324 27.5203 21.3527 27.5203 25.1602 23.7129 25.1602 18.9926 25.1602 14.2723 21.3527 10.4648 16.6324 10.4648ZM16.6324 24.5367C13.582 24.5367 11.0883 22.0504 11.0883 18.9926 11.0883 15.9348 13.5746 13.4484 16.6324 13.4484 19.6902 13.4484 22.1766 15.9348 22.1766 18.9926 22.1766 22.0504 19.6828 24.5367 16.6324 24.5367ZM27.498 10.116C27.498 11.2219 26.6074 12.1051 25.509 12.1051 24.4031 12.1051 23.5199 11.2145 23.5199 10.116 23.5199 9.01758 24.4105 8.12695 25.509 8.12695 26.6074 8.12695 27.498 9.01758 27.498 10.116ZM33.1461 12.1348C33.0199 9.47031 32.4113 7.11016 30.4594 5.16563 28.5148 3.22109 26.1547 2.6125 23.4902 2.47891 20.7441 2.32305 12.5133 2.32305 9.76719 2.47891 7.11016 2.60508 4.75 3.21367 2.79805 5.1582 0.846094 7.10273 0.244922 9.46289 0.111328 12.1273-0.0445313 14.8734-0.0445313 23.1043 0.111328 25.8504 0.2375 28.5148 0.846094 30.875 2.79805 32.8195 4.75 34.7641 7.10273 35.3727 9.76719 35.5062 12.5133 35.6621 20.7441 35.6621 23.4902 35.5062 26.1547 35.3801 28.5148 34.7715 30.4594 32.8195 32.4039 30.875 33.0125 28.5148 33.1461 25.8504 33.302 23.1043 33.302 14.8809 33.1461 12.1348ZM29.5984 28.7969C29.0195 30.2516 27.8988 31.3723 26.4367 31.9586 24.2473 32.827 19.052 32.6266 16.6324 32.6266 14.2129 32.6266 9.01016 32.8195 6.82812 31.9586 5.37344 31.3797 4.25273 30.259 3.66641 28.7969 2.79805 26.6074 2.99844 21.4121 2.99844 18.9926 2.99844 16.573 2.80547 11.3703 3.66641 9.18828 4.24531 7.73359 5.36602 6.61289 6.82812 6.02656 9.01758 5.1582 14.2129 5.35859 16.6324 5.35859 19.052 5.35859 24.2547 5.16563 26.4367 6.02656 27.8914 6.60547 29.0121 7.72617 29.5984 9.18828 30.4668 11.3777 30.2664 16.573 30.2664 18.9926 30.2664 21.4121 30.4668 26.6148 29.5984 28.7969Z" fill="#04316A" transform="matrix(1.02256 0 0 1 1190 151)"/></g></g></g><g clip-path="url(#clip28)"><g clip-path="url(#clip29)"><g clip-path="url(#clip30)"><path d="M33.25 15.5793C29.9825 15.5871 26.7951 14.568 24.1382 12.6662L24.1382 25.9305C24.1357 32.5935 18.7324 37.9928 12.0695 37.9904 5.40658 37.9879 0.00720404 32.5846 0.00965066 25.9217 0.0120972 19.2588 5.41543 13.8594 12.0784 13.8618 12.631 13.8621 13.183 13.9002 13.7305 13.9761L13.7305 20.6477C10.8127 19.7299 7.70346 21.3512 6.78569 24.2689 5.86793 27.1866 7.48919 30.2959 10.407 31.2137 13.3247 32.1314 16.434 30.5101 17.3518 27.5925 17.5209 27.0547 17.6069 26.4942 17.6069 25.9305L17.6069 0 24.1382 0C24.1336 0.551549 24.1799 1.10235 24.2762 1.64543L24.2762 1.64543C24.7349 4.09563 26.182 6.24895 28.2773 7.59926 29.7524 8.57457 31.4817 9.09439 33.25 9.09402Z" fill="#04316A" transform="matrix(1.02256 0 0 1 1190 303)"/></g></g></g><g clip-path="url(#clip31)"><g clip-path="url(#clip32)"><g clip-path="url(#clip33)"><path d="M1223.88 553.209C1223.63 552.528 1223.15 552.163 1222.61 551.861 1222.51 551.801 1222.42 551.754 1222.34 551.717 1222.17 551.633 1222.01 551.552 1221.84 551.466 1220.15 550.569 1218.83 549.437 1217.91 548.095 1217.65 547.718 1217.43 547.317 1217.24 546.899 1217.16 546.675 1217.16 546.548 1217.22 546.432 1217.27 546.343 1217.35 546.266 1217.44 546.207 1217.73 546.015 1218.03 545.82 1218.23 545.688 1218.59 545.453 1218.88 545.267 1219.06 545.136 1219.76 544.65 1220.24 544.134 1220.55 543.557 1220.98 542.75 1221.03 541.797 1220.7 540.945 1220.24 539.734 1219.1 538.982 1217.71 538.982 1217.42 538.981 1217.13 539.012 1216.84 539.074 1216.77 539.09 1216.69 539.108 1216.62 539.127 1216.63 538.299 1216.61 537.425 1216.54 536.564 1216.28 533.539 1215.22 531.953 1214.11 530.689 1213.41 529.897 1212.57 529.226 1211.65 528.705 1209.97 527.748 1208.07 527.262 1206 527.262 1203.93 527.262 1202.04 527.748 1200.36 528.705 1199.43 529.226 1198.6 529.898 1197.89 530.693 1196.78 531.957 1195.73 533.546 1195.46 536.568 1195.39 537.428 1195.37 538.307 1195.38 539.131 1195.31 539.112 1195.23 539.094 1195.16 539.077 1194.87 539.016 1194.58 538.985 1194.29 538.985 1192.9 538.985 1191.76 539.737 1191.3 540.948 1190.97 541.801 1191.02 542.755 1191.45 543.563 1191.75 544.14 1192.24 544.656 1192.93 545.142 1193.12 545.271 1193.41 545.457 1193.77 545.694 1193.97 545.821 1194.25 546.007 1194.53 546.193 1194.63 546.257 1194.71 546.34 1194.78 546.439 1194.84 546.559 1194.84 546.689 1194.75 546.929 1194.56 547.338 1194.34 547.73 1194.09 548.1 1193.19 549.412 1191.91 550.523 1190.27 551.413 1189.4 551.873 1188.5 552.181 1188.12 553.216 1187.83 553.997 1188.02 554.886 1188.75 555.636 1189.02 555.915 1189.33 556.15 1189.67 556.332 1190.38 556.723 1191.14 557.026 1191.92 557.233 1192.08 557.275 1192.24 557.344 1192.38 557.437 1192.64 557.669 1192.6 558.02 1192.96 558.534 1193.14 558.799 1193.36 559.029 1193.62 559.211 1194.37 559.724 1195.2 559.757 1196.09 559.791 1196.89 559.821 1197.8 559.856 1198.83 560.197 1199.26 560.339 1199.7 560.613 1200.22 560.934 1201.46 561.696 1203.16 562.738 1206 562.738 1208.84 562.738 1210.55 561.69 1211.8 560.925 1212.31 560.611 1212.75 560.339 1213.17 560.201 1214.2 559.859 1215.11 559.825 1215.91 559.794 1216.79 559.76 1217.63 559.728 1218.37 559.214 1218.68 558.998 1218.94 558.715 1219.13 558.386 1219.39 557.953 1219.38 557.65 1219.62 557.438 1219.75 557.35 1219.9 557.284 1220.05 557.243 1220.84 557.035 1221.61 556.73 1222.33 556.334 1222.69 556.139 1223.02 555.883 1223.3 555.577L1223.31 555.566C1223.99 554.834 1224.16 553.971 1223.88 553.209ZM1221.36 554.565C1219.82 555.415 1218.79 555.324 1218 555.837 1217.32 556.272 1217.72 557.211 1217.23 557.55 1216.63 557.967 1214.84 557.52 1212.54 558.281 1210.64 558.91 1209.42 560.717 1206 560.717 1202.58 560.717 1201.4 558.914 1199.47 558.277 1197.16 557.516 1195.38 557.962 1194.77 557.545 1194.28 557.206 1194.68 556.268 1194 555.832 1193.21 555.32 1192.18 555.411 1190.65 554.565 1189.67 554.024 1190.22 553.689 1190.55 553.531 1196.12 550.831 1197.01 546.662 1197.05 546.352 1197.1 545.978 1197.16 545.683 1196.74 545.302 1196.34 544.934 1194.58 543.84 1194.09 543.498 1193.27 542.931 1192.92 542.365 1193.18 541.669 1193.36 541.188 1193.81 541.006 1194.29 541.006 1194.43 541.007 1194.58 541.023 1194.73 541.056 1195.62 541.249 1196.48 541.696 1196.98 541.816 1197.04 541.832 1197.11 541.84 1197.17 541.841 1197.43 541.841 1197.53 541.707 1197.51 541.401 1197.45 540.427 1197.31 538.527 1197.47 536.752 1197.68 534.309 1198.47 533.099 1199.4 532.029 1199.85 531.514 1201.96 529.285 1206 529.285 1210.03 529.285 1212.15 531.505 1212.6 532.018 1213.53 533.088 1214.32 534.298 1214.53 536.741 1214.68 538.516 1214.55 540.416 1214.49 541.39 1214.47 541.711 1214.56 541.83 1214.83 541.83 1214.89 541.829 1214.95 541.821 1215.01 541.805 1215.51 541.685 1216.38 541.238 1217.27 541.045 1217.42 541.012 1217.56 540.996 1217.71 540.995 1218.19 540.995 1218.63 541.179 1218.82 541.658 1219.08 542.354 1218.73 542.92 1217.91 543.487 1217.42 543.829 1215.65 544.922 1215.26 545.291 1214.84 545.672 1214.9 545.967 1214.94 546.341 1214.98 546.655 1215.87 550.824 1221.45 553.52 1221.78 553.684 1222.34 554.019 1221.36 554.565Z" fill="#04316A"/></g></g></g><g clip-path="url(#clip34)"><g clip-path="url(#clip35)"><g clip-path="url(#clip36)"><path d="M47 3.76 46.978 4.65594C44.9144 4.71469 43.6733 5.81625 42.8802 7.61547 41.0442 11.8602 35.2941 25.2405 31.4753 33.9502L30.4766 33.9502 24.462 19.7694C22.0753 24.44 19.4462 29.3162 17.177 33.9502 17.155 33.9722 16.0755 33.9502 16.0755 33.9281 12.6312 25.872 9.01812 17.8747 5.56656 9.79656 4.72937 7.83578 1.93875 4.65594 0.0146875 4.67797 0.0146875 4.45031-0.00734375 3.94359-0.00734375 3.63516L11.8822 3.63516 11.8822 4.65594C10.4722 4.73672 8.00469 5.63266 8.70234 7.1675 10.3106 10.8173 16.3105 24.8145 17.9261 28.3616 19.0277 26.1805 22.1708 20.3422 23.4559 17.8747 22.4352 15.7964 19.1525 8.04141 18.1097 6.12469 17.3973 4.8175 15.4586 4.7 14.0119 4.67797L14.0119 3.65719 24.4767 3.67922 24.4767 4.64125C23.052 4.68531 21.6787 5.21406 22.3177 6.55797 23.7056 9.49547 24.5648 11.5591 25.85 14.2469 26.2612 13.4537 28.3983 9.15031 29.3823 6.84437 30.0359 5.33156 29.0959 4.74406 26.5477 4.68531 26.5697 4.42094 26.5477 3.92891 26.5697 3.68656 29.8303 3.66453 34.7286 3.66453 35.6098 3.6425L35.6098 4.64125C33.9575 4.7 32.2464 5.58125 31.3431 6.96922L26.9956 15.9873C27.4656 17.1697 31.6442 26.4742 32.0775 27.495L41.0662 6.74156C40.4347 5.04516 38.3931 4.67797 37.6 4.66328L37.6 3.6425 46.9853 3.72328 47 3.76Z" fill="#04316A" transform="matrix(1 0 0 1.01064 1183 458)"/></g></g></g><text font-family="Calibri,Calibri_MSFontService,sans-serif" font-weight="400" font-size="24" transform="translate(89.9333 113)">label_box_1</text><text font-family="Calibri,Calibri_MSFontService,sans-serif" font-weight="400" font-size="24" transform="translate(86.2936 614)">label_box_2</text><path d="M586.5 197C586.5 190.096 592.096 184.5 599 184.5 605.904 184.5 611.5 190.096 611.5 197 611.5 203.904 605.904 209.5 599 209.5 592.096 209.5 586.5 203.904 586.5 197Z" stroke="#04316A" stroke-width="1.33333" stroke-miterlimit="8" fill="#04316A" fill-rule="evenodd"/><path d="M1003.5 90.5001C1003.5 83.3204 1009.32 77.5001 1016.5 77.5001 1023.68 77.5001 1029.5 83.3204 1029.5 90.5001 1029.5 97.6798 1023.68 103.5 1016.5 103.5 1009.32 103.5 1003.5 97.6798 1003.5 90.5001Z" stroke="#04316A" stroke-width="1.33333" stroke-miterlimit="8" fill="#7F7F7F" fill-rule="evenodd" fill-opacity="0.6"/><path d="M1087.5 114C1087.5 107.096 1093.1 101.5 1100 101.5 1106.9 101.5 1112.5 107.096 1112.5 114 1112.5 120.904 1106.9 126.5 1100 126.5 1093.1 126.5 1087.5 120.904 1087.5 114Z" stroke="#04316A" stroke-width="1.33333" stroke-miterlimit="8" fill="#7F7F7F" fill-rule="evenodd" fill-opacity="0.6"/><path d="M1033.5 130C1033.5 123.096 1039.32 117.5 1046.5 117.5 1053.68 117.5 1059.5 123.096 1059.5 130 1059.5 136.904 1053.68 142.5 1046.5 142.5 1039.32 142.5 1033.5 136.904 1033.5 130Z" stroke="#04316A" stroke-width="1.33333" stroke-miterlimit="8" fill="#7F7F7F" fill-rule="evenodd" fill-opacity="0.6"/><path d="M1007.07 168.09C1011.67 162.841 1019.66 162.316 1024.91 166.917 1030.15 171.518 1030.68 179.503 1026.08 184.752 1021.48 190.001 1013.49 190.526 1008.24 185.925 1002.99 181.324 1002.47 173.339 1007.07 168.09Z" stroke="#04316A" stroke-width="1.33333" stroke-miterlimit="8" fill="#7F7F7F" fill-rule="evenodd" fill-opacity="0.6"/><path d="M1054.89 326.349C1048.49 323.567 1045.55 316.123 1048.33 309.721 1051.12 303.319 1058.56 300.385 1064.96 303.167 1071.36 305.949 1074.3 313.393 1071.52 319.795 1068.73 326.197 1061.29 329.131 1054.89 326.349Z" stroke="#04316A" stroke-width="1.33333" stroke-miterlimit="8" fill="#7F7F7F" fill-rule="evenodd" fill-opacity="0.6"/><path d="M1094.64 367.079C1088.23 364.297 1085.3 356.852 1088.08 350.45 1090.86 344.049 1098.31 341.114 1104.71 343.896 1111.11 346.678 1114.05 354.123 1111.26 360.525 1108.48 366.926 1101.04 369.861 1094.64 367.079Z" stroke="#04316A" stroke-width="1.33333" stroke-miterlimit="8" fill="#7F7F7F" fill-rule="evenodd" fill-opacity="0.6"/><path d="M1052.03 394.785C1045.63 392.003 1042.69 384.558 1045.48 378.156 1048.26 371.755 1055.7 368.82 1062.1 371.602 1068.51 374.384 1071.44 381.829 1068.66 388.231 1065.88 394.632 1058.43 397.567 1052.03 394.785Z" stroke="#04316A" stroke-width="1.33333" stroke-miterlimit="8" fill="#7F7F7F" fill-rule="evenodd" fill-opacity="0.6"/><path d="M996.429 396.037C993.448 389.725 996.149 382.192 1002.46 379.212 1008.77 376.231 1016.31 378.932 1019.29 385.243 1022.27 391.555 1019.57 399.088 1013.25 402.068 1006.94 405.049 999.409 402.348 996.429 396.037Z" stroke="#04316A" stroke-width="1.33333" stroke-miterlimit="8" fill="#7F7F7F" fill-rule="evenodd" fill-opacity="0.6"/><path d="M1066.5 626C1066.5 619.096 1072.1 613.5 1079 613.5 1085.9 613.5 1091.5 619.096 1091.5 626 1091.5 632.904 1085.9 638.5 1079 638.5 1072.1 638.5 1066.5 632.904 1066.5 626Z" stroke="#04316A" stroke-width="1.33333" stroke-miterlimit="8" fill="#7F7F7F" fill-rule="evenodd" fill-opacity="0.6"/><path d="M1085.5 554C1085.5 547.096 1091.1 541.5 1098 541.5 1104.9 541.5 1110.5 547.096 1110.5 554 1110.5 560.904 1104.9 566.5 1098 566.5 1091.1 566.5 1085.5 560.904 1085.5 554Z" stroke="#04316A" stroke-width="1.33333" stroke-miterlimit="8" fill="#7F7F7F" fill-rule="evenodd" fill-opacity="0.6"/><path d="M993.5 629C993.5 622.096 999.096 616.5 1006 616.5 1012.9 616.5 1018.5 622.096 1018.5 629 1018.5 635.904 1012.9 641.5 1006 641.5 999.096 641.5 993.5 635.904 993.5 629Z" stroke="#04316A" stroke-width="1.33333" stroke-miterlimit="8" fill="#7F7F7F" fill-rule="evenodd" fill-opacity="0.6"/><path d="M1023.25 575.5C1027.85 570.25 1035.83 569.725 1041.08 574.326 1046.33 578.927 1046.86 586.912 1042.26 592.161 1037.66 597.41 1029.67 597.936 1024.42 593.335 1019.17 588.734 1018.65 580.749 1023.25 575.5Z" stroke="#04316A" stroke-width="1.33333" stroke-miterlimit="8" fill="#7F7F7F" fill-rule="evenodd" fill-opacity="0.6"/><path d="M1015.94 157.963C1016.29 157.571 1016.88 157.531 1017.28 157.875 1017.67 158.219 1017.71 158.816 1017.36 159.209 1017.02 159.601 1016.42 159.64 1016.03 159.296 1015.64 158.952 1015.6 158.355 1015.94 157.963Z" stroke="#04316A" stroke-width="0.333333" stroke-miterlimit="8" fill="#7F7F7F" fill-rule="evenodd"/><path d="M1032.54 174.746C1032.88 174.354 1033.48 174.315 1033.87 174.659 1034.26 175.003 1034.3 175.6 1033.96 175.992 1033.62 176.384 1033.02 176.424 1032.63 176.08 1032.23 175.736 1032.19 175.139 1032.54 174.746Z" stroke="#04316A" stroke-width="0.333333" stroke-miterlimit="8" fill="#7F7F7F" fill-rule="evenodd"/><path d="M1016.05 192.541C1016.39 192.149 1016.99 192.11 1017.38 192.454 1017.77 192.798 1017.81 193.395 1017.47 193.787 1017.12 194.18 1016.53 194.219 1016.13 193.875 1015.74 193.531 1015.7 192.934 1016.05 192.541Z" stroke="#04316A" stroke-width="0.333333" stroke-miterlimit="8" fill="#7F7F7F" fill-rule="evenodd"/><path d="M999.447 174.746C999.791 174.354 1000.39 174.315 1000.78 174.659 1001.17 175.003 1001.21 175.6 1000.87 175.992 1000.52 176.384 999.927 176.424 999.534 176.08 999.142 175.736 999.103 175.139 999.447 174.746Z" stroke="#04316A" stroke-width="0.333333" stroke-miterlimit="8" fill="#7F7F7F" fill-rule="evenodd"/><path d="M999.873 180.078C1000.22 179.685 1000.81 179.646 1001.21 179.99 1001.6 180.334 1001.64 180.931 1001.29 181.323 1000.95 181.716 1000.35 181.755 999.961 181.411 999.569 181.067 999.529 180.47 999.873 180.078Z" stroke="#04316A" stroke-width="0.333333" stroke-miterlimit="8" fill="#7F7F7F" fill-rule="evenodd"/><path d="M1002.38 184.837C1002.73 184.445 1003.32 184.406 1003.72 184.75 1004.11 185.094 1004.15 185.691 1003.8 186.083 1003.46 186.475 1002.86 186.515 1002.47 186.171 1002.08 185.827 1002.04 185.23 1002.38 184.837Z" stroke="#04316A" stroke-width="0.333333" stroke-miterlimit="8" fill="#7F7F7F" fill-rule="evenodd"/><path d="M1006.02 188.764C1006.36 188.371 1006.96 188.332 1007.35 188.676 1007.75 189.02 1007.79 189.617 1007.44 190.009 1007.1 190.402 1006.5 190.441 1006.11 190.097 1005.72 189.753 1005.68 189.156 1006.02 188.764Z" stroke="#04316A" stroke-width="0.333333" stroke-miterlimit="8" fill="#7F7F7F" fill-rule="evenodd"/><path d="M1010.5 191.05C1010.84 190.658 1011.44 190.618 1011.83 190.962 1012.22 191.306 1012.26 191.903 1011.92 192.296 1011.58 192.688 1010.98 192.727 1010.59 192.383 1010.19 192.039 1010.15 191.442 1010.5 191.05Z" stroke="#04316A" stroke-width="0.333333" stroke-miterlimit="8" fill="#7F7F7F" fill-rule="evenodd"/><path d="M1001.68 170.996C1001.34 171.388 1000.74 171.428 1000.35 171.084 999.957 170.74 999.918 170.143 1000.26 169.75 1000.61 169.358 1001.2 169.319 1001.6 169.663 1001.99 170.007 1002.03 170.604 1001.68 170.996Z" stroke="#04316A" stroke-width="0.333333" stroke-miterlimit="8" fill="#7F7F7F" fill-rule="evenodd"/><path d="M1004.19 166.236C1003.85 166.629 1003.25 166.668 1002.86 166.324 1002.47 165.98 1002.43 165.383 1002.77 164.991 1003.12 164.598 1003.71 164.559 1004.11 164.903 1004.5 165.247 1004.54 165.844 1004.19 166.236Z" stroke="#04316A" stroke-width="0.333333" stroke-miterlimit="8" fill="#7F7F7F" fill-rule="evenodd"/><path d="M1007.83 162.31C1007.49 162.702 1006.89 162.741 1006.5 162.397 1006.1 162.054 1006.07 161.457 1006.41 161.064 1006.75 160.672 1007.35 160.632 1007.74 160.976 1008.13 161.32 1008.17 161.917 1007.83 162.31Z" stroke="#04316A" stroke-width="0.333333" stroke-miterlimit="8" fill="#7F7F7F" fill-rule="evenodd"/><path d="M1012.31 160.024C1011.96 160.416 1011.37 160.455 1010.98 160.111 1010.58 159.767 1010.54 159.17 1010.89 158.778 1011.23 158.385 1011.83 158.346 1012.22 158.69 1012.61 159.034 1012.65 159.631 1012.31 160.024Z" stroke="#04316A" stroke-width="0.333333" stroke-miterlimit="8" fill="#7F7F7F" fill-rule="evenodd"/><path d="M0 0.944882C-1.20296e-16 0.423038 0.423038 -1.20296e-16 0.944882 -2.40592e-16 1.46673 -4.81184e-16 1.88976 0.423038 1.88976 0.944882 1.88976 1.46673 1.46673 1.88976 0.944882 1.88976 0.423038 1.88976 -6.0148e-16 1.46673 0 0.944882Z" stroke="#04316A" stroke-width="0.333333" stroke-miterlimit="8" fill="#7F7F7F" fill-rule="evenodd" transform="matrix(0.752009 -0.659153 -0.659153 -0.752009 1031.99 171.89)"/><path d="M0 0.944882C-1.20296e-16 0.423038 0.423038 -1.20296e-16 0.944882 -2.40592e-16 1.46673 -4.81184e-16 1.88976 0.423038 1.88976 0.944882 1.88976 1.46673 1.46673 1.88976 0.944882 1.88976 0.423038 1.88976 -6.0148e-16 1.46673 0 0.944882Z" stroke="#04316A" stroke-width="0.333333" stroke-miterlimit="8" fill="#7F7F7F" fill-rule="evenodd" transform="matrix(0.752009 -0.659153 -0.659153 -0.752009 1029.48 167.131)"/><path d="M0 0.944882C-1.20296e-16 0.423038 0.423038 -1.20296e-16 0.944882 -2.40592e-16 1.46673 -4.81184e-16 1.88976 0.423038 1.88976 0.944882 1.88976 1.46673 1.46673 1.88976 0.944882 1.88976 0.423038 1.88976 -6.0148e-16 1.46673 0 0.944882Z" stroke="#04316A" stroke-width="0.333333" stroke-miterlimit="8" fill="#7F7F7F" fill-rule="evenodd" transform="matrix(0.752009 -0.659153 -0.659153 -0.752009 1025.84 163.204)"/><path d="M0 0.944882C-1.20296e-16 0.423038 0.423038 -1.20296e-16 0.944882 -2.40592e-16 1.46673 -4.81184e-16 1.88976 0.423038 1.88976 0.944882 1.88976 1.46673 1.46673 1.88976 0.944882 1.88976 0.423038 1.88976 -6.0148e-16 1.46673 0 0.944882Z" stroke="#04316A" stroke-width="0.333333" stroke-miterlimit="8" fill="#7F7F7F" fill-rule="evenodd" transform="matrix(0.752009 -0.659153 -0.659153 -0.752009 1021.37 160.918)"/><path d="M1031.37 180.542C1031.71 180.15 1032.31 180.11 1032.7 180.454 1033.09 180.798 1033.13 181.395 1032.79 181.788 1032.45 182.18 1031.85 182.219 1031.46 181.875 1031.06 181.531 1031.02 180.934 1031.37 180.542Z" stroke="#04316A" stroke-width="0.333333" stroke-miterlimit="8" fill="#7F7F7F" fill-rule="evenodd"/><path d="M1028.86 185.302C1029.2 184.909 1029.8 184.87 1030.19 185.214 1030.58 185.558 1030.62 186.155 1030.28 186.547 1029.94 186.94 1029.34 186.979 1028.95 186.635 1028.55 186.291 1028.51 185.694 1028.86 185.302Z" stroke="#04316A" stroke-width="0.333333" stroke-miterlimit="8" fill="#7F7F7F" fill-rule="evenodd"/><path d="M1025.22 189.228C1025.57 188.836 1026.16 188.796 1026.55 189.14 1026.95 189.484 1026.99 190.081 1026.64 190.474 1026.3 190.866 1025.7 190.906 1025.31 190.562 1024.92 190.218 1024.88 189.621 1025.22 189.228Z" stroke="#04316A" stroke-width="0.333333" stroke-miterlimit="8" fill="#7F7F7F" fill-rule="evenodd"/><path d="M1020.74 191.514C1021.09 191.122 1021.68 191.083 1022.08 191.427 1022.47 191.771 1022.51 192.368 1022.16 192.76 1021.82 193.152 1021.22 193.192 1020.83 192.848 1020.44 192.504 1020.4 191.907 1020.74 191.514Z" stroke="#04316A" stroke-width="0.333333" stroke-miterlimit="8" fill="#7F7F7F" fill-rule="evenodd"/><path d="M584 70 1003.76 89.8246" stroke="#7F7F7F" stroke-width="2" stroke-miterlimit="8" fill="none" fill-rule="evenodd"/><path d="M387.5 144C387.5 137.096 393.096 131.5 400 131.5 406.904 131.5 412.5 137.096 412.5 144 412.5 150.904 406.904 156.5 400 156.5 393.096 156.5 387.5 150.904 387.5 144Z" stroke="#04316A" stroke-width="1.33333" stroke-miterlimit="8" fill="#04316A" fill-rule="evenodd"/><path d="M309.5 309C309.5 302.096 315.096 296.5 322 296.5 328.904 296.5 334.5 302.096 334.5 309 334.5 315.904 328.904 321.5 322 321.5 315.096 321.5 309.5 315.904 309.5 309Z" stroke="#04316A" stroke-width="1.33333" stroke-miterlimit="8" fill="#04316A" fill-rule="evenodd"/><path d="M261.5 197C261.5 190.096 267.096 184.5 274 184.5 280.904 184.5 286.5 190.096 286.5 197 286.5 203.904 280.904 209.5 274 209.5 267.096 209.5 261.5 203.904 261.5 197Z" stroke="#04316A" stroke-width="1.33333" stroke-miterlimit="8" fill="#04316A" fill-rule="evenodd"/><path d="M0 0 421.217 101.532" stroke="#7F7F7F" stroke-width="2" stroke-miterlimit="8" fill="none" fill-rule="evenodd" transform="matrix(1 0 0 -1 583 278.532)"/><path d="M0 0 441.966 8.70226" stroke="#7F7F7F" stroke-width="2" stroke-miterlimit="8" fill="none" fill-rule="evenodd" transform="matrix(1 0 0 -1 591 138.702)"/><path d="M591 138 1048.05 309.434" stroke="#7F7F7F" stroke-width="2" stroke-miterlimit="8" fill="none" fill-rule="evenodd"/><path d="M591 138 1088.04 544.564" stroke="#7F7F7F" stroke-width="2" stroke-miterlimit="8" fill="none" fill-rule="evenodd"/><path d="M583 279 996.213 386.592" stroke="#7F7F7F" stroke-width="2" stroke-miterlimit="8" fill="none" fill-rule="evenodd"/><path d="M611 197 1045.49 378.406" stroke="#7F7F7F" stroke-width="2" stroke-miterlimit="8" fill="none" fill-rule="evenodd"/><path d="M583 279 1023.5 575.717" stroke="#7F7F7F" stroke-width="2" stroke-miterlimit="8" fill="none" fill-rule="evenodd"/><path d="M569 349 992.956 628.415" stroke="#7F7F7F" stroke-width="2" stroke-miterlimit="8" fill="none" fill-rule="evenodd"/><path d="M765 474 858.917 474 858.917 474 899.167 474 926 474 926 560.917 1011.85 583.594 926 598.167 926 623 899.167 623 858.917 623 858.917 623 765 623 765 598.167 765 560.917 765 560.917Z" stroke="#7030A0" stroke-width="2" stroke-miterlimit="8" fill="#7030A0" fill-rule="evenodd"/><text font-family="Corbel,Corbel_MSFontService,sans-serif" font-weight="700" font-size="24" transform="translate(774.436 498)">box_2_h2</text><text font-family="Arial,Arial_MSFontService,sans-serif" font-weight="400" font-size="24" transform="translate(774.436 527)"></text><text font-family="Corbel,Corbel_MSFontService,sans-serif" font-weight="400" font-size="24" transform="translate(804.436 527)">box_2_t1</text><text font-family="Arial,Arial_MSFontService,sans-serif" font-weight="400" font-size="24" transform="translate(774.436 556)"></text><text font-family="Corbel,Corbel_MSFontService,sans-serif" font-weight="400" font-size="24" transform="translate(804.436 556)">box_2_t2</text><text font-family="Arial,Arial_MSFontService,sans-serif" font-weight="400" font-size="24" transform="translate(774.436 585)"></text><text font-family="Corbel,Corbel_MSFontService,sans-serif" font-weight="400" font-size="24" transform="translate(804.436 585)">box_2_t3</text><path d="M1031.15 565.918C1031.5 565.526 1032.09 565.487 1032.49 565.831 1032.88 566.174 1032.92 566.771 1032.58 567.164 1032.23 567.556 1031.63 567.596 1031.24 567.252 1030.85 566.908 1030.81 566.311 1031.15 565.918Z" stroke="#04316A" stroke-width="0.333333" stroke-miterlimit="8" fill="#7F7F7F" fill-rule="evenodd"/><path d="M1047.75 582.702C1048.09 582.309 1048.69 582.27 1049.08 582.614 1049.48 582.958 1049.52 583.555 1049.17 583.947 1048.83 584.34 1048.23 584.379 1047.84 584.035 1047.45 583.691 1047.41 583.094 1047.75 582.702Z" stroke="#04316A" stroke-width="0.333333" stroke-miterlimit="8" fill="#7F7F7F" fill-rule="evenodd"/><path d="M1031.26 600.497C1031.6 600.104 1032.2 600.065 1032.59 600.409 1032.98 600.753 1033.02 601.35 1032.68 601.742 1032.34 602.135 1031.74 602.174 1031.35 601.83 1030.95 601.486 1030.91 600.889 1031.26 600.497Z" stroke="#04316A" stroke-width="0.333333" stroke-miterlimit="8" fill="#7F7F7F" fill-rule="evenodd"/><path d="M1014.66 582.702C1015 582.309 1015.6 582.27 1015.99 582.614 1016.38 582.958 1016.42 583.555 1016.08 583.947 1015.74 584.34 1015.14 584.379 1014.75 584.035 1014.35 583.691 1014.32 583.094 1014.66 582.702Z" stroke="#04316A" stroke-width="0.333333" stroke-miterlimit="8" fill="#7F7F7F" fill-rule="evenodd"/><path d="M1015.09 588.033C1015.43 587.64 1016.03 587.601 1016.42 587.945 1016.81 588.289 1016.85 588.886 1016.51 589.278 1016.16 589.671 1015.57 589.71 1015.17 589.366 1014.78 589.022 1014.74 588.425 1015.09 588.033Z" stroke="#04316A" stroke-width="0.333333" stroke-miterlimit="8" fill="#7F7F7F" fill-rule="evenodd"/><path d="M1017.6 592.793C1017.94 592.4 1018.54 592.361 1018.93 592.705 1019.32 593.049 1019.36 593.646 1019.02 594.038 1018.67 594.431 1018.08 594.47 1017.68 594.126 1017.29 593.782 1017.25 593.185 1017.6 592.793Z" stroke="#04316A" stroke-width="0.333333" stroke-miterlimit="8" fill="#7F7F7F" fill-rule="evenodd"/><path d="M1021.23 596.719C1021.58 596.327 1022.17 596.287 1022.57 596.631 1022.96 596.975 1023 597.572 1022.65 597.965 1022.31 598.357 1021.71 598.396 1021.32 598.052 1020.93 597.708 1020.89 597.111 1021.23 596.719Z" stroke="#04316A" stroke-width="0.333333" stroke-miterlimit="8" fill="#7F7F7F" fill-rule="evenodd"/><path d="M1025.71 599.005C1026.06 598.613 1026.65 598.574 1027.04 598.917 1027.44 599.261 1027.48 599.858 1027.13 600.251 1026.79 600.643 1026.19 600.683 1025.8 600.339 1025.41 599.995 1025.37 599.398 1025.71 599.005Z" stroke="#04316A" stroke-width="0.333333" stroke-miterlimit="8" fill="#7F7F7F" fill-rule="evenodd"/><path d="M1016.9 578.951C1016.55 579.344 1015.95 579.383 1015.56 579.039 1015.17 578.695 1015.13 578.098 1015.47 577.706 1015.82 577.313 1016.42 577.274 1016.81 577.618 1017.2 577.962 1017.24 578.559 1016.9 578.951Z" stroke="#04316A" stroke-width="0.333333" stroke-miterlimit="8" fill="#7F7F7F" fill-rule="evenodd"/><path d="M1019.41 574.191C1019.06 574.584 1018.46 574.623 1018.07 574.279 1017.68 573.935 1017.64 573.338 1017.98 572.946 1018.33 572.553 1018.93 572.514 1019.32 572.858 1019.71 573.202 1019.75 573.799 1019.41 574.191Z" stroke="#04316A" stroke-width="0.333333" stroke-miterlimit="8" fill="#7F7F7F" fill-rule="evenodd"/><path d="M1023.04 570.265C1022.7 570.657 1022.1 570.697 1021.71 570.353 1021.32 570.009 1021.28 569.412 1021.62 569.019 1021.97 568.627 1022.56 568.588 1022.95 568.932 1023.35 569.276 1023.39 569.873 1023.04 570.265Z" stroke="#04316A" stroke-width="0.333333" stroke-miterlimit="8" fill="#7F7F7F" fill-rule="evenodd"/><path d="M1027.52 567.979C1027.18 568.371 1026.58 568.411 1026.19 568.067 1025.8 567.723 1025.76 567.126 1026.1 566.733 1026.44 566.341 1027.04 566.301 1027.43 566.645 1027.83 566.989 1027.86 567.586 1027.52 567.979Z" stroke="#04316A" stroke-width="0.333333" stroke-miterlimit="8" fill="#7F7F7F" fill-rule="evenodd"/><path d="M0 0.944882C-1.20296e-16 0.423038 0.423038 -1.20296e-16 0.944882 -2.40592e-16 1.46673 -4.81184e-16 1.88976 0.423038 1.88976 0.944882 1.88976 1.46673 1.46673 1.88976 0.944882 1.88976 0.423038 1.88976 -6.0148e-16 1.46673 0 0.944882Z" stroke="#04316A" stroke-width="0.333333" stroke-miterlimit="8" fill="#7F7F7F" fill-rule="evenodd" transform="matrix(0.752009 -0.659153 -0.659153 -0.752009 1047.2 579.846)"/><path d="M0 0.944882C-1.20296e-16 0.423038 0.423038 -1.20296e-16 0.944882 -2.40592e-16 1.46673 -4.81184e-16 1.88976 0.423038 1.88976 0.944882 1.88976 1.46673 1.46673 1.88976 0.944882 1.88976 0.423038 1.88976 -6.0148e-16 1.46673 0 0.944882Z" stroke="#04316A" stroke-width="0.333333" stroke-miterlimit="8" fill="#7F7F7F" fill-rule="evenodd" transform="matrix(0.752009 -0.659153 -0.659153 -0.752009 1044.69 575.086)"/><path d="M0 0.944882C-1.20296e-16 0.423038 0.423038 -1.20296e-16 0.944882 -2.40592e-16 1.46673 -4.81184e-16 1.88976 0.423038 1.88976 0.944882 1.88976 1.46673 1.46673 1.88976 0.944882 1.88976 0.423038 1.88976 -6.0148e-16 1.46673 0 0.944882Z" stroke="#04316A" stroke-width="0.333333" stroke-miterlimit="8" fill="#7F7F7F" fill-rule="evenodd" transform="matrix(0.752009 -0.659153 -0.659153 -0.752009 1041.06 571.159)"/><path d="M0 0.944882C-1.20296e-16 0.423038 0.423038 -1.20296e-16 0.944882 -2.40592e-16 1.46673 -4.81184e-16 1.88976 0.423038 1.88976 0.944882 1.88976 1.46673 1.46673 1.88976 0.944882 1.88976 0.423038 1.88976 -6.0148e-16 1.46673 0 0.944882Z" stroke="#04316A" stroke-width="0.333333" stroke-miterlimit="8" fill="#7F7F7F" fill-rule="evenodd" transform="matrix(0.752009 -0.659153 -0.659153 -0.752009 1036.58 568.873)"/><path d="M1046.58 588.497C1046.93 588.105 1047.52 588.066 1047.91 588.41 1048.31 588.754 1048.35 589.351 1048 589.743 1047.66 590.135 1047.06 590.175 1046.67 589.831 1046.28 589.487 1046.24 588.89 1046.58 588.497Z" stroke="#04316A" stroke-width="0.333333" stroke-miterlimit="8" fill="#7F7F7F" fill-rule="evenodd"/><path d="M1044.07 593.257C1044.41 592.865 1045.01 592.825 1045.4 593.169 1045.8 593.513 1045.84 594.11 1045.49 594.503 1045.15 594.895 1044.55 594.934 1044.16 594.59 1043.77 594.246 1043.73 593.649 1044.07 593.257Z" stroke="#04316A" stroke-width="0.333333" stroke-miterlimit="8" fill="#7F7F7F" fill-rule="evenodd"/><path d="M1040.43 597.183C1040.78 596.791 1041.37 596.752 1041.77 597.096 1042.16 597.44 1042.2 598.037 1041.85 598.429 1041.51 598.822 1040.91 598.861 1040.52 598.517 1040.13 598.173 1040.09 597.576 1040.43 597.183Z" stroke="#04316A" stroke-width="0.333333" stroke-miterlimit="8" fill="#7F7F7F" fill-rule="evenodd"/><path d="M1035.96 599.47C1036.3 599.077 1036.9 599.038 1037.29 599.382 1037.68 599.726 1037.72 600.323 1037.38 600.715 1037.03 601.108 1036.44 601.147 1036.04 600.803 1035.65 600.459 1035.61 599.862 1035.96 599.47Z" stroke="#04316A" stroke-width="0.333333" stroke-miterlimit="8" fill="#7F7F7F" fill-rule="evenodd"/><path d="M765 57 858.917 57 858.917 57 899.167 57 926 57 926 144.5 997.901 174.677 926 182 926 207 899.167 207 858.917 207 858.917 207 765 207 765 182 765 144.5 765 144.5Z" stroke="#7030A0" stroke-width="2" stroke-miterlimit="8" fill="#7030A0" fill-rule="evenodd"/><text font-family="Corbel,Corbel_MSFontService,sans-serif" font-weight="700" font-size="21" transform="translate(774.436 81)">box_1_h1</text><text font-family="Arial,Arial_MSFontService,sans-serif" font-weight="400" font-size="21" transform="translate(774.436 107)"></text><text font-family="Corbel,Corbel_MSFontService,sans-serif" font-weight="400" font-size="21" transform="translate(804.436 107)">box_1_t1</text><text font-family="Arial,Arial_MSFontService,sans-serif" font-weight="400" font-size="21" transform="translate(774.436 132)"></text><text font-family="Corbel,Corbel_MSFontService,sans-serif" font-weight="400" font-size="21" transform="translate(804.436 132)">box_1 _t2</text><text font-family="Arial,Arial_MSFontService,sans-serif" font-weight="400" font-size="21" transform="translate(774.436 158)"></text><text font-family="Corbel,Corbel_MSFontService,sans-serif" font-weight="400" font-size="21" transform="translate(804.436 158)">box_1 _t3</text><text font-family="Arial,Arial_MSFontService,sans-serif" font-weight="400" font-size="21" transform="translate(774.436 183)"></text><text font-family="Corbel,Corbel_MSFontService,sans-serif" font-weight="400" font-size="21" transform="translate(804.436 183)">box_1 _t4</text><text font-family="Corbel,Corbel_MSFontService,sans-serif" font-weight="400" font-size="24" transform="translate(1042.35 88)">field</text><text font-family="Calibri,Calibri_MSFontService,sans-serif" font-weight="400" font-size="24" transform="translate(358.186 614)">label_box_3</text></g></svg>