<?xml version="1.0" encoding="UTF-8" standalone="no"?>
<svg
   width="1280"
   height="720"
   overflow="hidden"
   version="1.1"
   id="svg509"
   sodipodi:docname="graphs3.svg"
   inkscape:version="1.2.1 (9c6d41e410, 2022-07-14)"
   xmlns:inkscape="http://www.inkscape.org/namespaces/inkscape"
   xmlns:sodipodi="http://sodipodi.sourceforge.net/DTD/sodipodi-0.dtd"
   xmlns="http://www.w3.org/2000/svg"
   xmlns:svg="http://www.w3.org/2000/svg">
  <sodipodi:namedview
     id="namedview511"
     pagecolor="#ffffff"
     bordercolor="#000000"
     borderopacity="0.25"
     inkscape:showpageshadow="2"
     inkscape:pageopacity="0.0"
     inkscape:pagecheckerboard="0"
     inkscape:deskcolor="#d1d1d1"
     showgrid="false"
     inkscape:zoom="1.3324543"
     inkscape:cx="531.35031"
     inkscape:cy="458.55231"
     inkscape:window-width="2560"
     inkscape:window-height="1377"
     inkscape:window-x="3752"
     inkscape:window-y="275"
     inkscape:window-maximized="1"
     inkscape:current-layer="g507" />
  <defs
     id="defs113">
    <clipPath
       id="clip0">
      <rect
         x="0"
         y="0"
         width="1280"
         height="720"
         id="rect2" />
    </clipPath>
    <clipPath
       id="clip1">
      <rect
         x="73"
         y="135"
         width="151"
         height="150"
         id="rect5" />
    </clipPath>
    <clipPath
       id="clip2">
      <rect
         x="73"
         y="135"
         width="151"
         height="150"
         id="rect8" />
    </clipPath>
    <clipPath
       id="clip3">
      <rect
         x="73"
         y="135"
         width="151"
         height="150"
         id="rect11" />
    </clipPath>
    <clipPath
       id="clip4">
      <rect
         x="73"
         y="435"
         width="150"
         height="150"
         id="rect14" />
    </clipPath>
    <clipPath
       id="clip5">
      <rect
         x="73"
         y="435"
         width="150"
         height="150"
         id="rect17" />
    </clipPath>
    <clipPath
       id="clip6">
      <rect
         x="73"
         y="435"
         width="150"
         height="150"
         id="rect20" />
    </clipPath>
    <clipPath
       id="clip7">
      <rect
         x="349"
         y="450"
         width="121"
         height="120"
         id="rect23" />
    </clipPath>
    <clipPath
       id="clip8">
      <rect
         x="349"
         y="450"
         width="121"
         height="120"
         id="rect26" />
    </clipPath>
    <clipPath
       id="clip9">
      <rect
         x="349"
         y="450"
         width="121"
         height="120"
         id="rect29" />
    </clipPath>
    <clipPath
       id="clip10">
      <rect
         x="1098"
         y="29"
         width="57"
         height="57"
         id="rect32" />
    </clipPath>
    <clipPath
       id="clip11">
      <rect
         x="1098"
         y="29"
         width="57"
         height="57"
         id="rect35" />
    </clipPath>
    <clipPath
       id="clip12">
      <rect
         x="1098"
         y="29"
         width="57"
         height="57"
         id="rect38" />
    </clipPath>
    <clipPath
       id="clip13">
      <rect
         x="1108"
         y="481"
         width="54"
         height="56"
         id="rect41" />
    </clipPath>
    <clipPath
       id="clip14">
      <rect
         x="1108"
         y="481"
         width="54"
         height="56"
         id="rect44" />
    </clipPath>
    <clipPath
       id="clip15">
      <rect
         x="1108"
         y="481"
         width="54"
         height="56"
         id="rect47" />
    </clipPath>
    <clipPath
       id="clip16">
      <rect
         x="1105"
         y="255"
         width="57"
         height="57"
         id="rect50" />
    </clipPath>
    <clipPath
       id="clip17">
      <rect
         x="1105"
         y="255"
         width="57"
         height="57"
         id="rect53" />
    </clipPath>
    <clipPath
       id="clip18">
      <rect
         x="1105"
         y="255"
         width="57"
         height="57"
         id="rect56" />
    </clipPath>
    <clipPath
       id="clip19">
      <rect
         x="1186"
         y="229"
         width="43"
         height="38"
         id="rect59" />
    </clipPath>
    <clipPath
       id="clip20">
      <rect
         x="1186"
         y="229"
         width="43"
         height="38"
         id="rect62" />
    </clipPath>
    <clipPath
       id="clip21">
      <rect
         x="1186"
         y="229"
         width="43"
         height="38"
         id="rect65" />
    </clipPath>
    <clipPath
       id="clip22">
      <rect
         x="1186"
         y="378"
         width="38"
         height="38"
         id="rect68" />
    </clipPath>
    <clipPath
       id="clip23">
      <rect
         x="1186"
         y="378"
         width="38"
         height="38"
         id="rect71" />
    </clipPath>
    <clipPath
       id="clip24">
      <rect
         x="1186"
         y="378"
         width="38"
         height="38"
         id="rect74" />
    </clipPath>
    <clipPath
       id="clip25">
      <rect
         x="1190"
         y="151"
         width="34"
         height="38"
         id="rect77" />
    </clipPath>
    <clipPath
       id="clip26">
      <rect
         x="1190"
         y="151"
         width="34"
         height="38"
         id="rect80" />
    </clipPath>
    <clipPath
       id="clip27">
      <rect
         x="1190"
         y="151"
         width="34"
         height="38"
         id="rect83" />
    </clipPath>
    <clipPath
       id="clip28">
      <rect
         x="1190"
         y="303"
         width="34"
         height="38"
         id="rect86" />
    </clipPath>
    <clipPath
       id="clip29">
      <rect
         x="1190"
         y="303"
         width="34"
         height="38"
         id="rect89" />
    </clipPath>
    <clipPath
       id="clip30">
      <rect
         x="1190"
         y="303"
         width="34"
         height="38"
         id="rect92" />
    </clipPath>
    <clipPath
       id="clip31">
      <rect
         x="1187"
         y="526"
         width="38"
         height="38"
         id="rect95" />
    </clipPath>
    <clipPath
       id="clip32">
      <rect
         x="1187"
         y="526"
         width="38"
         height="38"
         id="rect98" />
    </clipPath>
    <clipPath
       id="clip33">
      <rect
         x="1187"
         y="526"
         width="38"
         height="38"
         id="rect101" />
    </clipPath>
    <clipPath
       id="clip34">
      <rect
         x="1183"
         y="458"
         width="47"
         height="38"
         id="rect104" />
    </clipPath>
    <clipPath
       id="clip35">
      <rect
         x="1183"
         y="458"
         width="47"
         height="38"
         id="rect107" />
    </clipPath>
    <clipPath
       id="clip36">
      <rect
         x="1183"
         y="458"
         width="47"
         height="38"
         id="rect110" />
    </clipPath>
  </defs>
  <g
     clip-path="url(#clip0)"
     id="g507"
     inkscape:label="g507"
     style="display:inline">
    <rect
       x="0"
       y="0"
       width="1280"
       height="720"
       fill="#ffffff"
       id="rect115"
       inkscape:label="background" />
    <path
       d="M 976,83.1672 C 976,69.2677 987.268,58 1001.17,58 h 100.66 c 13.9,0 25.17,11.2677 25.17,25.1672 V 185.833 C 1127,199.732 1115.73,211 1101.83,211 H 1001.17 C 987.268,211 976,199.732 976,185.833 Z"
       stroke="#2f528f"
       stroke-width="2"
       stroke-miterlimit="8"
       fill="none"
       fill-rule="evenodd"
       id="path117"
       inkscape:label="box_twitter" />
    <g
       clip-path="url(#clip1)"
       id="g171">
      <g
         clip-path="url(#clip2)"
         id="g169">
        <g
           clip-path="url(#clip3)"
           id="g167"
           inkscape:label="symbol_population">
          <path
             d="m 56.5125,96.95 c -0.1805,-0.7836 -0.6306,-1.4787 -1.2719,-1.9641 -1.3781,-1.0336 -2.9403,-1.7956 -4.6031,-2.2453 -2.5384,-0.7354 -5.2334,-0.7354 -7.7719,0 -1.6659,0.4496 -3.2309,1.2127 -4.6109,2.2485 -0.6428,0.485 -1.0942,1.1809 -1.275,1.9656 -0.0125,0.0531 -0.0235,0.1078 -0.0313,0.1562 l -2.5578,18.2971 c -0.1197,0.854 0.4755,1.644 1.3297,1.764 0.0719,0.01 0.1445,0.016 0.2172,0.016 0.7783,-0.001 1.4372,-0.575 1.5453,-1.346 l 2.5453,-18.1951 c 0.0144,-0.0621 0.0497,-0.1172 0.1,-0.1563 1.0625,-0.7975 2.2674,-1.385 3.55,-1.7312 2.0052,-0.5917 4.1386,-0.5917 6.1438,0 1.2792,0.3459 2.4809,0.9323 3.5406,1.7281 0.0503,0.0391 0.0856,0.0942 0.1,0.1563 l 2.5453,18.1942 c 0.1081,0.77 0.7661,1.343 1.5438,1.345 0.0737,0 0.1473,-0.005 0.2203,-0.016 0.8542,-0.12 1.4493,-0.91 1.3297,-1.764 L 56.5453,97.1125 C 56.5375,97.0578 56.5266,97.0034 56.5125,96.95 Z"
             fill="#04316a"
             transform="matrix(1.00667,0,0,1,73,135)"
             id="path119" />
          <path
             d="m 46.7375,90.625 c 3.4517,0 6.25,-2.7983 6.25,-6.25 0,-3.4517 -2.7983,-6.25 -6.25,-6.25 -3.4517,0 -6.25,2.7983 -6.25,6.25 0,3.4517 2.7983,6.25 6.25,6.25 z m 0,-9.375 c 1.7259,0 3.125,1.3991 3.125,3.125 0,1.7259 -1.3991,3.125 -3.125,3.125 -1.7259,0 -3.125,-1.3991 -3.125,-3.125 0,-1.7259 1.3991,-3.125 3.125,-3.125 z"
             fill="#04316a"
             transform="matrix(1.00667,0,0,1,73,135)"
             id="path121" />
          <path
             d="m 28.5266,96.9516 c -0.1808,-0.7847 -0.6322,-1.4807 -1.275,-1.9657 -1.3753,-1.0334 -2.9349,-1.7954 -4.5954,-2.2453 -1.2685,-0.3568 -2.579,-0.5428 -3.8968,-0.5531 -1.313,0.0108 -2.6186,0.1958 -3.8828,0.55 -1.6652,0.4503 -3.2295,1.2133 -4.6094,2.2484 -0.64287,0.485 -1.09429,1.181 -1.27501,1.9657 -0.0125,0.0531 -0.02344,0.1078 -0.03125,0.1562 L 6.40625,115.408 c -0.11969,0.854 0.47552,1.644 1.32969,1.764 0.07244,0.01 0.14554,0.016 0.21875,0.016 0.77826,-0.001 1.43714,-0.575 1.54531,-1.346 l 2.5422,-18.1951 c 0.0137,-0.0624 0.0492,-0.1177 0.1,-0.1563 1.0623,-0.7969 2.2665,-1.3845 3.5484,-1.7312 0.9986,-0.2841 2.0307,-0.4344 3.0688,-0.4469 1.0408,0.0109 2.0754,0.1606 3.0765,0.4453 1.2793,0.346 2.481,0.9324 3.5407,1.7281 0.0507,0.0386 0.0862,0.0939 0.1,0.1563 l 2.5453,18.1958 c 0.1081,0.77 0.767,1.344 1.5453,1.345 0.0733,0 0.1462,-0.005 0.2187,-0.016 0.8547,-0.119 1.4507,-0.909 1.3313,-1.763 0,-10e-4 0,-10e-4 0,-10e-4 L 28.5578,97.1125 C 28.5505,97.0583 28.54,97.0045 28.5266,96.9516 Z"
             fill="#04316a"
             transform="matrix(1.00667,0,0,1,73,135)"
             id="path123" />
          <path
             d="m 18.75,90.625 c 3.4517,0 6.25,-2.7983 6.25,-6.25 0,-3.4517 -2.7983,-6.25 -6.25,-6.25 -3.4518,0 -6.25,2.7983 -6.25,6.25 0,3.4517 2.7982,6.25 6.25,6.25 z m 0,-9.375 c 1.7259,0 3.125,1.3991 3.125,3.125 0,1.7259 -1.3991,3.125 -3.125,3.125 -1.7259,0 -3.125,-1.3991 -3.125,-3.125 0,-1.7259 1.3991,-3.125 3.125,-3.125 z"
             fill="#04316a"
             transform="matrix(1.00667,0,0,1,73,135)"
             id="path125" />
          <path
             d="M 51.425,101.562 C 51.425,100.7 50.7255,100 49.8625,100 48.9995,100 48.3,100.7 48.3,101.562 v 14.063 h -3.125 v -14.063 c 0,-0.862 -0.6995,-1.562 -1.5625,-1.562 -0.863,0 -1.5625,0.7 -1.5625,1.562 v 38.996 h 3.125 V 118.75 H 48.3 v 21.808 h 3.125 v -34.308 0 z"
             fill="#04316a"
             transform="matrix(1.00667,0,0,1,73,135)"
             id="path127" />
          <path
             d="M 23.4375,101.562 C 23.4375,100.7 22.738,100 21.875,100 v 0 c -0.863,0 -1.5625,0.7 -1.5625,1.562 v 7.172 l 4.8,13.141 H 12.3906 l 4.7969,-13.142 v -0.275 0 -6.896 C 17.1875,100.7 16.488,100 15.625,100 v 0 c -0.863,0 -1.5625,0.7 -1.5625,1.562 v 6.621 L 7.92344,125 h 6.13906 v 15.625 h 3.125 V 125 h 3.125 v 15.625 h 3.125 V 125 h 6.1406 l -6.1406,-16.82 z"
             fill="#04316a"
             transform="matrix(1.00667,0,0,1,73,135)"
             id="path129" />
          <path
             d="m 112.762,96.95 c -0.18,-0.7836 -0.63,-1.4787 -1.271,-1.9641 -1.378,-1.0336 -2.941,-1.7956 -4.604,-2.2453 -2.538,-0.7354 -5.233,-0.7354 -7.7714,0 -1.6659,0.4496 -3.2309,1.2127 -4.6109,2.2485 -0.6428,0.485 -1.0942,1.1809 -1.275,1.9656 -0.0125,0.0531 -0.0234,0.1078 -0.0313,0.1562 l -2.5578,18.2971 c -0.1197,0.854 0.4755,1.644 1.3297,1.764 0.0719,0.01 0.1445,0.016 0.2172,0.016 0.7783,-0.001 1.4372,-0.575 1.5453,-1.346 l 2.5453,-18.1951 c 0.0144,-0.0621 0.0497,-0.1172 0.1,-0.1563 1.0625,-0.7975 2.2674,-1.385 3.55,-1.7312 2.0049,-0.5917 4.1389,-0.5917 6.1439,0 1.279,0.3459 2.481,0.9323 3.541,1.7281 0.05,0.0391 0.085,0.0942 0.1,0.1563 l 2.545,18.1942 c 0.108,0.77 0.766,1.343 1.544,1.345 0.073,0 0.147,-0.005 0.22,-0.016 0.854,-0.12 1.449,-0.91 1.33,-1.764 l -2.557,-18.2905 c -0.008,-0.0547 -0.018,-0.1091 -0.033,-0.1625 z"
             fill="#04316a"
             transform="matrix(1.00667,0,0,1,73,135)"
             id="path131" />
          <path
             d="m 102.988,90.625 c 3.451,0 6.25,-2.7983 6.25,-6.25 0,-3.4517 -2.799,-6.25 -6.25,-6.25 -3.4522,0 -6.2505,2.7983 -6.2505,6.25 0,3.4517 2.7983,6.25 6.2505,6.25 z m 0,-9.375 c 1.725,0 3.125,1.3991 3.125,3.125 0,1.7259 -1.4,3.125 -3.125,3.125 -1.726,0 -3.1255,-1.3991 -3.1255,-3.125 0,-1.7259 1.3995,-3.125 3.1255,-3.125 z"
             fill="#04316a"
             transform="matrix(1.00667,0,0,1,73,135)"
             id="path133" />
          <path
             d="m 84.7766,96.9516 c -0.1808,-0.7847 -0.6322,-1.4807 -1.275,-1.9657 -1.3753,-1.0334 -2.9349,-1.7954 -4.5954,-2.2453 -2.5389,-0.7354 -5.2345,-0.7354 -7.7734,0 -1.6651,0.4503 -3.2295,1.2133 -4.6094,2.2485 -0.6428,0.485 -1.0942,1.1809 -1.275,1.9656 -0.0125,0.0531 -0.0234,0.1078 -0.0312,0.1562 l -2.561,18.2971 c -0.1196,0.854 0.4755,1.644 1.3297,1.764 0.0725,0.01 0.1457,0.016 0.2188,0.016 0.7783,-0.001 1.4372,-0.575 1.5453,-1.346 l 2.5453,-18.1951 c 0.0138,-0.0624 0.0492,-0.1177 0.1,-0.1563 1.0624,-0.7969 2.2666,-1.3845 3.5484,-1.7312 2.0058,-0.5917 4.1396,-0.5917 6.1454,0 1.2792,0.3459 2.4809,0.9323 3.5406,1.7281 0.0508,0.0386 0.0862,0.0939 0.1,0.1563 l 2.5453,18.1952 c 0.1081,0.771 0.767,1.344 1.5453,1.345 0.0731,0.001 0.1463,-0.005 0.2188,-0.015 0.8547,-0.12 1.4506,-0.909 1.3312,-1.764 0,0 0,0 0,0 L 84.8078,97.1125 C 84.8005,97.0583 84.79,97.0045 84.7766,96.9516 Z"
             fill="#04316a"
             transform="matrix(1.00667,0,0,1,73,135)"
             id="path135" />
          <path
             d="m 75,78.125 c -3.4517,0 -6.25,2.7983 -6.25,6.25 0,3.4517 2.7983,6.25 6.25,6.25 3.4517,0 6.25,-2.7983 6.25,-6.25 0,-3.4517 -2.7983,-6.25 -6.25,-6.25 z m 0,9.375 c -1.7259,0 -3.125,-1.3991 -3.125,-3.125 0,-1.7259 1.3991,-3.125 3.125,-3.125 1.7259,0 3.125,1.3991 3.125,3.125 0,1.7259 -1.3991,3.125 -3.125,3.125 z"
             fill="#04316a"
             transform="matrix(1.00667,0,0,1,73,135)"
             id="path137" />
          <path
             d="m 107.675,101.562 c 0,-0.862 -0.7,-1.562 -1.562,-1.562 -0.863,0 -1.563,0.7 -1.563,1.562 v 14.063 h -3.125 v -14.063 c 0,-0.862 -0.7,-1.562 -1.5625,-1.562 -0.863,0 -1.5625,0.7 -1.5625,1.562 v 38.996 h 3.125 V 118.75 h 3.125 v 21.808 h 3.125 v -34.308 0 z"
             fill="#04316a"
             transform="matrix(1.00667,0,0,1,73,135)"
             id="path139" />
          <path
             d="M 79.6875,101.562 C 79.6875,100.7 78.988,100 78.125,100 v 0 c -0.863,0 -1.5625,0.7 -1.5625,1.562 v 7.172 l 4.8,13.141 H 68.6406 l 4.7969,-13.142 v -0.275 0 -6.896 C 73.4375,100.7 72.738,100 71.875,100 v 0 c -0.863,0 -1.5625,0.7 -1.5625,1.562 v 6.621 L 64.1734,125 h 6.1391 v 15.625 h 3.125 V 125 h 3.125 v 15.625 h 3.125 V 125 h 6.1406 l -6.1406,-16.82 z"
             fill="#04316a"
             transform="matrix(1.00667,0,0,1,73,135)"
             id="path141" />
          <path
             d="m 56.5125,28.2 c -0.1805,-0.7836 -0.6306,-1.4787 -1.2719,-1.9641 -1.3781,-1.0336 -2.9403,-1.7956 -4.6031,-2.2453 -2.5384,-0.7354 -5.2334,-0.7354 -7.7719,0 -1.6659,0.4496 -3.2309,1.2127 -4.6109,2.2485 -0.6428,0.485 -1.0942,1.1809 -1.275,1.9656 -0.0125,0.0531 -0.0235,0.1078 -0.0313,0.1562 l -2.5578,18.2969 c -0.1197,0.8542 0.4755,1.6439 1.3297,1.7641 0.0719,0.0104 0.1445,0.0156 0.2172,0.0156 0.7783,-9e-4 1.4372,-0.5745 1.5453,-1.3453 l 2.5453,-18.1953 c 0.0144,-0.0621 0.0497,-0.1172 0.1,-0.1563 1.0625,-0.7975 2.2674,-1.385 3.55,-1.7312 2.0052,-0.5917 4.1386,-0.5917 6.1438,0 1.2792,0.3459 2.4809,0.9323 3.5406,1.7281 0.0503,0.0391 0.0856,0.0942 0.1,0.1563 l 2.5453,18.1937 c 0.1081,0.7702 0.7661,1.3436 1.5438,1.3453 0.0737,2e-4 0.1473,-0.005 0.2203,-0.0156 0.8542,-0.1202 1.4493,-0.9099 1.3297,-1.7641 L 56.5453,28.3625 C 56.5375,28.3078 56.5266,28.2534 56.5125,28.2 Z"
             fill="#04316a"
             transform="matrix(1.00667,0,0,1,73,135)"
             id="path143" />
          <path
             d="m 46.7375,21.875 c 3.4517,0 6.25,-2.7983 6.25,-6.25 0,-3.4518 -2.7983,-6.25 -6.25,-6.25 -3.4517,0 -6.25,2.7982 -6.25,6.25 0,3.4517 2.7983,6.25 6.25,6.25 z m 0,-9.375 c 1.7259,0 3.125,1.3991 3.125,3.125 0,1.7259 -1.3991,3.125 -3.125,3.125 -1.7259,0 -3.125,-1.3991 -3.125,-3.125 0,-1.7259 1.3991,-3.125 3.125,-3.125 z"
             fill="#04316a"
             transform="matrix(1.00667,0,0,1,73,135)"
             id="path145" />
          <path
             d="m 45.175,37.5 v -4.6875 c 0,-0.863 -0.6995,-1.5625 -1.5625,-1.5625 -0.863,0 -1.5625,0.6995 -1.5625,1.5625 v 38.9953 h 3.125 V 50 H 48.3 v 21.8078 h 3.125 V 37.5 v 0 -4.6875 c 0,-0.863 -0.6995,-1.5625 -1.5625,-1.5625 -0.863,0 -1.5625,0.6995 -1.5625,1.5625 V 46.875 h -3.125 z"
             fill="#04316a"
             transform="matrix(1.00667,0,0,1,73,135)"
             id="path147" />
          <path
             d="m 112.762,28.2 c -0.18,-0.7836 -0.63,-1.4787 -1.271,-1.9641 -1.378,-1.0336 -2.941,-1.7956 -4.604,-2.2453 -2.538,-0.7354 -5.233,-0.7354 -7.7714,0 -1.6659,0.4496 -3.2309,1.2127 -4.6109,2.2485 -0.6428,0.485 -1.0942,1.1809 -1.275,1.9656 -0.0125,0.0531 -0.0234,0.1078 -0.0313,0.1562 l -2.5578,18.2969 c -0.1197,0.8542 0.4755,1.6439 1.3297,1.7641 0.0719,0.0104 0.1445,0.0156 0.2172,0.0156 0.7783,-9e-4 1.4372,-0.5745 1.5453,-1.3453 l 2.5453,-18.1953 c 0.0144,-0.0621 0.0497,-0.1172 0.1,-0.1563 1.0625,-0.7975 2.2674,-1.385 3.55,-1.7312 2.0049,-0.5917 4.1389,-0.5917 6.1439,0 1.279,0.3459 2.481,0.9323 3.541,1.7281 0.05,0.0391 0.085,0.0942 0.1,0.1563 l 2.545,18.1937 c 0.108,0.7702 0.766,1.3436 1.544,1.3453 0.073,2e-4 0.147,-0.005 0.22,-0.0156 0.854,-0.1202 1.449,-0.9099 1.33,-1.7641 l -2.557,-18.2906 c -0.008,-0.0547 -0.018,-0.1091 -0.033,-0.1625 z"
             fill="#04316a"
             transform="matrix(1.00667,0,0,1,73,135)"
             id="path149" />
          <path
             d="m 102.988,21.875 c 3.451,0 6.25,-2.7983 6.25,-6.25 0,-3.4518 -2.799,-6.25 -6.25,-6.25 -3.4522,0 -6.2505,2.7982 -6.2505,6.25 0,3.4517 2.7983,6.25 6.2505,6.25 z m 0,-9.375 c 1.725,0 3.125,1.3991 3.125,3.125 0,1.7259 -1.4,3.125 -3.125,3.125 -1.726,0 -3.1255,-1.3991 -3.1255,-3.125 0,-1.7259 1.3995,-3.125 3.1255,-3.125 z"
             fill="#04316a"
             transform="matrix(1.00667,0,0,1,73,135)"
             id="path151" />
          <path
             d="m 84.7766,28.2016 c -0.1808,-0.7847 -0.6322,-1.4807 -1.275,-1.9657 -1.3753,-1.0334 -2.9349,-1.7954 -4.5954,-2.2453 -2.5389,-0.7354 -5.2345,-0.7354 -7.7734,0 -1.6651,0.4502 -3.2295,1.2133 -4.6094,2.2485 -0.6428,0.485 -1.0942,1.1809 -1.275,1.9656 -0.0125,0.0531 -0.0234,0.1078 -0.0312,0.1562 l -2.561,18.2969 c -0.1196,0.8542 0.4755,1.6439 1.3297,1.7641 0.0725,0.0104 0.1457,0.0158 0.2188,0.0156 0.7783,-9e-4 1.4372,-0.5745 1.5453,-1.3453 l 2.5453,-18.1953 c 0.0138,-0.0624 0.0492,-0.1177 0.1,-0.1563 1.0624,-0.7968 2.2666,-1.3845 3.5484,-1.7312 2.0058,-0.5917 4.1396,-0.5917 6.1454,0 1.2792,0.3459 2.4809,0.9323 3.5406,1.7281 0.0508,0.0386 0.0862,0.0939 0.1,0.1563 l 2.5453,18.1953 c 0.1081,0.7707 0.767,1.3443 1.5453,1.3453 0.0731,1e-4 0.1463,-0.005 0.2188,-0.0156 0.8547,-0.1194 1.4506,-0.9091 1.3312,-1.7636 0,-2e-4 0,-4e-4 0,-5e-4 L 84.8078,28.3625 C 84.8005,28.3083 84.79,28.2545 84.7766,28.2016 Z"
             fill="#04316a"
             transform="matrix(1.00667,0,0,1,73,135)"
             id="path153" />
          <path
             d="m 75,21.875 c 3.4517,0 6.25,-2.7983 6.25,-6.25 0,-3.4518 -2.7983,-6.25 -6.25,-6.25 -3.4517,0 -6.25,2.7982 -6.25,6.25 0,3.4517 2.7983,6.25 6.25,6.25 z M 75,12.5 c 1.7259,0 3.125,1.3991 3.125,3.125 0,1.7259 -1.3991,3.125 -3.125,3.125 -1.7259,0 -3.125,-1.3991 -3.125,-3.125 0,-1.7259 1.3991,-3.125 3.125,-3.125 z"
             fill="#04316a"
             transform="matrix(1.00667,0,0,1,73,135)"
             id="path155" />
          <path
             d="m 101.425,37.5 v -4.6875 c 0,-0.863 -0.7,-1.5625 -1.5625,-1.5625 -0.863,0 -1.5625,0.6995 -1.5625,1.5625 v 38.9953 h 3.125 V 50 h 3.125 v 21.8078 h 3.125 V 37.5 v 0 -4.6875 c 0,-0.863 -0.7,-1.5625 -1.562,-1.5625 -0.863,0 -1.563,0.6995 -1.563,1.5625 V 46.875 h -3.125 z"
             fill="#04316a"
             transform="matrix(1.00667,0,0,1,73,135)"
             id="path157" />
          <path
             d="m 66.3203,56.25 h 3.9922 v 15.625 h 3.125 V 56.25 h 3.125 v 15.625 h 3.125 V 56.25 h 6.1406 L 79.6875,39.4297 v -6.6172 c 0,-0.863 -0.6995,-1.5625 -1.5625,-1.5625 v 0 c -0.863,0 -1.5625,0.6995 -1.5625,1.5625 v 7.1719 l 4.8,13.1406 H 68.6406 l 4.7969,-13.1422 v -0.275 0 -6.8953 c 0,-0.863 -0.6995,-1.5625 -1.5625,-1.5625 v 0 c -0.863,0 -1.5625,0.6995 -1.5625,1.5625 v 6.6203 L 64.1734,56.25 Z"
             fill="#04316a"
             transform="matrix(1.00667,0,0,1,73,135)"
             id="path159" />
          <path
             d="m 141.027,96.9516 c -0.181,-0.7847 -0.633,-1.4807 -1.275,-1.9657 -1.376,-1.0334 -2.935,-1.7954 -4.596,-2.2453 -2.539,-0.7354 -5.234,-0.7354 -7.773,0 -1.665,0.4503 -3.23,1.2133 -4.61,2.2485 -0.642,0.485 -1.094,1.1809 -1.275,1.9656 -0.012,0.0531 -0.023,0.1078 -0.031,0.1562 l -2.561,18.2971 c -0.119,0.854 0.476,1.644 1.33,1.764 0.072,0.01 0.146,0.016 0.219,0.016 0.778,-0.001 1.437,-0.575 1.545,-1.346 l 2.545,-18.1951 c 0.014,-0.0624 0.05,-0.1177 0.1,-0.1563 1.063,-0.7969 2.267,-1.3845 3.549,-1.7312 2.006,-0.5917 4.139,-0.5917 6.145,0 1.279,0.3459 2.481,0.9323 3.541,1.7281 0.05,0.0386 0.086,0.0939 0.1,0.1563 l 2.545,18.1952 c 0.108,0.771 0.767,1.344 1.545,1.345 0.073,0.001 0.147,-0.005 0.219,-0.015 0.855,-0.12 1.451,-0.909 1.331,-1.764 0,0 0,0 0,0 l -2.562,-18.2925 c -0.008,-0.0542 -0.018,-0.108 -0.031,-0.1609 z"
             fill="#04316a"
             transform="matrix(1.00667,0,0,1,73,135)"
             id="path161" />
          <path
             d="m 131.25,90.625 c 3.452,0 6.25,-2.7983 6.25,-6.25 0,-3.4517 -2.798,-6.25 -6.25,-6.25 -3.452,0 -6.25,2.7983 -6.25,6.25 0,3.4517 2.798,6.25 6.25,6.25 z m 0,-9.375 c 1.726,0 3.125,1.3991 3.125,3.125 0,1.7259 -1.399,3.125 -3.125,3.125 -1.726,0 -3.125,-1.3991 -3.125,-3.125 0,-1.7259 1.399,-3.125 3.125,-3.125 z"
             fill="#04316a"
             transform="matrix(1.00667,0,0,1,73,135)"
             id="path163" />
          <path
             d="m 135.938,101.562 c 0,-0.862 -0.7,-1.562 -1.563,-1.562 v 0 c -0.863,0 -1.563,0.7 -1.563,1.562 v 7.172 l 4.801,13.141 h -12.722 l 4.797,-13.142 v -0.275 0 -6.896 c 0,-0.862 -0.7,-1.562 -1.563,-1.562 v 0 c -0.863,0 -1.563,0.7 -1.563,1.562 v 6.621 L 120.423,125 h 6.139 v 15.625 h 3.126 V 125 h 3.124 v 15.625 h 3.126 V 125 h 6.14 l -6.14,-16.82 z"
             fill="#04316a"
             transform="matrix(1.00667,0,0,1,73,135)"
             id="path165" />
        </g>
      </g>
    </g>
    <g
       clip-path="url(#clip4)"
       id="g187"
       style="fill:#00ff00"
       inkscape:label="g187">
      <g
         clip-path="url(#clip5)"
         id="g185"
         style="display:inline;fill:#00ff00"
         inkscape:label="symbol_head_container">
        <g
           clip-path="url(#clip6)"
           id="g183"
           style="fill:#00ff00"
           inkscape:label="symbol_head">
          <path
             d="m 146.125,479.42 c 3.452,0 6.25,-2.798 6.25,-6.25 0,-3.451 -2.798,-6.25 -6.25,-6.25 -3.452,0 -6.25,2.799 -6.25,6.25 0.02,3.444 2.807,6.23 6.25,6.25 z m 0,-9.375 c 1.726,0 3.125,1.399 3.125,3.125 0,1.726 -1.399,3.125 -3.125,3.125 -1.726,0 -3.125,-1.399 -3.125,-3.125 0.022,-1.716 1.408,-3.103 3.125,-3.125 z"
             fill="#04316A"
             id="path173"
             style="fill:#00ff00"
             inkscape:label="symbol_head_5" />
          <path
             d="m 127.375,509.628 c 3.452,0 6.25,-2.798 6.25,-6.25 0,-3.452 -2.798,-6.25 -6.25,-6.25 -3.452,0 -6.25,2.798 -6.25,6.25 0,3.452 2.798,6.25 6.25,6.25 z m 0,-9.375 c 1.726,0 3.125,1.399 3.125,3.125 0,1.726 -1.399,3.125 -3.125,3.125 -1.726,0 -3.125,-1.399 -3.125,-3.125 0,-1.726 1.399,-3.125 3.125,-3.125 z"
             fill="#04316A"
             id="path175"
             style="fill:#00ff00"
             inkscape:label="symbol_head_4" />
          <path
             d="m 114.734,510.223 -1.339,3.869 2.969,2.977 3.869,-1.191 c 1.025,0.599 2.13,1.05 3.281,1.339 l 1.783,3.721 h 4.165 l 1.638,-3.572 c 1.151,-0.29 2.256,-0.741 3.281,-1.339 l 3.867,1.339 2.969,-2.969 -1.186,-3.877 c 0.598,-1.023 1.049,-2.125 1.339,-3.273 l 3.719,-1.786 0.148,-4.464 -3.723,-1.778 c -0.29,-1.151 -0.741,-2.256 -1.339,-3.281 l 1.339,-3.869 -2.969,-2.977 -3.868,1.339 c -1.024,-0.597 -2.125,-1.048 -3.274,-1.339 l -1.784,-3.72 h -4.322 l -1.785,3.72 c -1.151,0.291 -2.255,0.741 -3.281,1.339 l -3.868,-1.339 -2.969,2.977 1.34,3.869 c -0.598,1.022 -1.048,2.124 -1.339,3.273 l -3.718,1.786 v 4.167 l 3.718,1.786 c 0.291,1.149 0.741,2.251 1.339,3.273 z m -1.932,-7.254 1.946,-0.938 1.324,-0.634 0.355,-1.425 c 0.22,-0.872 0.564,-1.707 1.021,-2.481 l 0.704,-1.232 -0.469,-1.34 -0.7,-2.021 0.209,-0.209 2.021,0.699 1.34,0.468 1.231,-0.703 c 0.775,-0.457 1.61,-0.801 2.482,-1.022 l 1.423,-0.356 0.636,-1.323 0.937,-1.947 h 0.382 l 0.937,1.947 0.636,1.323 1.424,0.356 c 0.871,0.221 1.707,0.565 2.481,1.022 l 1.231,0.703 1.341,-0.468 2.02,-0.699 0.208,0.209 -0.703,2.018 -0.469,1.34 0.703,1.231 c 0.456,0.775 0.8,1.611 1.022,2.482 l 0.355,1.425 1.323,0.634 1.875,0.903 -0.017,0.533 -2.013,0.966 -1.323,0.636 -0.356,1.423 c -0.22,0.872 -0.564,1.707 -1.021,2.481 l -0.671,1.175 0.398,1.294 0.638,2.072 -0.263,0.262 -2.019,-0.7 -1.34,-0.468 -1.233,0.704 c -0.774,0.457 -1.609,0.8 -2.48,1.021 l -1.458,0.364 -0.625,1.365 -0.787,1.753 h -0.194 l -0.937,-1.946 -0.636,-1.324 -1.424,-0.356 c -0.871,-0.221 -1.707,-0.565 -2.481,-1.022 l -1.175,-0.672 -1.294,0.399 -2.07,0.637 -0.263,-0.262 0.704,-2.016 0.468,-1.341 -0.703,-1.231 c -0.457,-0.774 -0.801,-1.61 -1.022,-2.481 l -0.354,-1.425 -1.324,-0.634 -1.947,-0.938 z"
             fill="#04316A"
             id="path177"
             style="fill:#00ff00"
             inkscape:label="symbol_head_3" />
          <path
             d="m 133.331,480.164 -1.339,3.869 2.969,2.976 3.869,-1.339 c 1.023,0.598 2.125,1.048 3.273,1.339 l 1.784,3.721 h 4.166 l 1.786,-3.572 c 1.151,-0.291 2.256,-0.741 3.281,-1.339 l 3.867,1.339 2.977,-2.977 -1.339,-3.869 c 0.644,-1.017 1.145,-2.118 1.487,-3.273 l 3.719,-1.786 v -4.464 l -3.719,-1.786 c -0.29,-1.148 -0.741,-2.25 -1.339,-3.273 l 1.339,-3.871 -2.968,-2.968 -3.869,1.339 c -1.023,-0.598 -2.125,-1.049 -3.273,-1.339 l -1.793,-3.579 h -4.165 l -1.786,3.721 c -1.152,0.289 -2.256,0.74 -3.281,1.339 l -3.868,-1.339 -2.968,2.976 1.19,3.869 c -0.597,1.023 -1.048,2.125 -1.339,3.274 l -3.719,1.786 v 4.167 l 3.719,1.786 c 0.291,1.148 0.742,2.25 1.339,3.273 z m -1.933,-7.261 1.947,-0.937 1.324,-0.635 0.354,-1.425 c 0.222,-0.871 0.566,-1.706 1.022,-2.481 l 0.671,-1.175 -0.397,-1.294 -0.638,-2.072 0.263,-0.261 2.018,0.699 1.341,0.469 1.233,-0.704 c 0.774,-0.457 1.609,-0.801 2.48,-1.021 l 1.425,-0.357 0.634,-1.323 0.938,-1.947 h 0.268 l 0.922,1.844 0.641,1.279 1.394,0.349 c 0.871,0.221 1.706,0.564 2.481,1.02 l 1.231,0.705 1.341,-0.469 2.02,-0.7 0.208,0.21 -0.707,2.031 -0.468,1.339 0.703,1.233 c 0.457,0.774 0.801,1.61 1.022,2.481 l 0.354,1.423 1.324,0.636 1.947,0.938 v 0.523 l -1.947,0.938 -1.324,0.634 -0.354,1.425 c -0.281,0.874 -0.675,1.708 -1.171,2.481 l -0.703,1.232 0.469,1.34 0.699,2.021 -0.21,0.209 -2.019,-0.699 -1.34,-0.468 -1.233,0.703 c -0.774,0.457 -1.609,0.801 -2.48,1.022 l -1.395,0.348 -0.642,1.286 -0.922,1.844 h -0.267 l -0.938,-1.949 -0.636,-1.323 -1.423,-0.356 c -0.872,-0.22 -1.707,-0.564 -2.481,-1.021 l -1.232,-0.703 -1.34,0.469 -2.021,0.699 -0.207,-0.21 0.698,-2.02 0.469,-1.341 -0.703,-1.231 c -0.457,-0.775 -0.801,-1.61 -1.022,-2.481 l -0.355,-1.425 -1.323,-0.635 -1.947,-0.937 z"
             fill="#04316A"
             id="path179"
             style="fill:#00ff00"
             inkscape:label="symbol_head_2" />
          <path
             d="m 113.312,530.339 v 39.542 h 49.376 v -18.75 h 7.656 c 4.927,-0.009 9.649,-1.976 13.125,-5.469 3.427,-3.569 5.333,-8.332 5.312,-13.281 v -9.375 h 6.875 c 4.063,-0.469 7.656,-5.156 3.906,-10.937 l -10.781,-18.75 v -0.781 c 1.015,-25.932 -19.184,-47.776 -45.116,-48.791 -25.931,-1.015 -47.7752,19.184 -48.79,45.116 -0.048,1.224 -0.048,2.45 0,3.675 -0.0539,14.779 6.758,28.745 18.437,37.801 z m 6.119,-77.33 c 20.828,-12.371 47.742,-5.516 60.114,15.312 4.318,7.27 6.443,15.633 6.119,24.082 v 1.728 l 0.416,0.724 10.781,18.75 0.042,0.072 0.045,0.07 c 1.015,1.224 1.315,2.891 0.791,4.392 -0.443,0.906 -1.294,1.546 -2.287,1.719 h -9.796 v 12.5 c 0.017,4.121 -1.559,8.089 -4.398,11.076 -2.882,2.92 -6.812,4.565 -10.914,4.568 h -10.782 v 18.75 h -43.124 v -37.946 l -1.213,-0.937 C 104.285,519.415 97.9145,506.341 98,492.516 v -0.057 -0.056 c -0.6344,-16.071 7.595,-31.196 21.433,-39.394 z"
             fill="#04316A"
             id="path181"
             style="fill:#00ff00"
             inkscape:label="symbol_head_1" />
        </g>
      </g>
    </g>
    <g
       clip-path="url(#clip7)"
       id="g211">
      <g
         clip-path="url(#clip8)"
         id="g209">
        <g
           clip-path="url(#clip9)"
           id="g207"
           inkscape:label="symbol_survey">
          <path
             d="M 56.25,31.25 H 85 v 2.5 H 56.25 Z"
             fill="#04316a"
             transform="matrix(1.00833,0,0,1,349,450)"
             id="path189"
             inkscape:label="symbol_survey_piece" />
          <path
             d="M 56.25,50 H 85 v 2.5 H 56.25 Z"
             fill="#04316a"
             transform="matrix(1.00833,0,0,1,349,450)"
             id="path191"
             inkscape:label="symbol_survey_piece" />
          <path
             d="M 56.25,68.75 H 85 v 2.5 H 56.25 Z"
             fill="#04316a"
             transform="matrix(1.00833,0,0,1,349,450)"
             id="path193"
             inkscape:label="symbol_survey_piece" />
          <path
             d="M 56.25,87.5 H 85 V 90 H 56.25 Z"
             fill="#04316a"
             transform="matrix(1.00833,0,0,1,349,450)"
             id="path195"
             inkscape:label="symbol_survey_piece" />
          <path
             d="m 22.5,110 h 75 V 10 h -75 z M 25,12.5 h 70 v 95 H 25 Z"
             fill="#04316a"
             transform="matrix(1.00833,0,0,1,349,450)"
             id="path197"
             inkscape:label="symbol_survey_piece" />
          <path
             d="M 35,38.125 H 46.25 V 26.875 H 35 Z m 2.5,-8.75 h 6.25 v 6.25 H 37.5 Z"
             fill="#04316a"
             transform="matrix(1.00833,0,0,1,349,450)"
             id="path199"
             inkscape:label="symbol_survey_piece" />
          <path
             d="M 35,56.875 H 46.25 V 45.625 H 35 Z m 2.5,-8.75 h 6.25 v 6.25 H 37.5 Z"
             fill="#04316a"
             transform="matrix(1.00833,0,0,1,349,450)"
             id="path201"
             inkscape:label="symbol_survey_piece" />
          <path
             d="M 35,75.625 H 46.25 V 64.375 H 35 Z m 2.5,-8.75 h 6.25 v 6.25 H 37.5 Z"
             fill="#04316a"
             transform="matrix(1.00833,0,0,1,349,450)"
             id="path203"
             inkscape:label="symbol_survey_piece" />
          <path
             d="M 35,94.375 H 46.25 V 83.125 H 35 Z m 2.5,-8.75 h 6.25 v 6.25 H 37.5 Z"
             fill="#04316a"
             transform="matrix(1.00833,0,0,1,349,450)"
             id="path205"
             inkscape:label="symbol_survey_piece" />
        </g>
      </g>
    </g>
    <path
       d="m 298.5,145 c 0,-6.904 5.596,-12.5 12.5,-12.5 6.904,0 12.5,5.596 12.5,12.5 0,6.904 -5.596,12.5 -12.5,12.5 -6.904,0 -12.5,-5.596 -12.5,-12.5 z"
       stroke="#04316a"
       stroke-width="1.33333"
       stroke-miterlimit="8"
       fill="#04316a"
       fill-rule="evenodd"
       id="path213" />
    <path
       d="m 566.5,139 c 0,-6.904 5.596,-12.5 12.5,-12.5 6.904,0 12.5,5.596 12.5,12.5 0,6.904 -5.596,12.5 -12.5,12.5 -6.904,0 -12.5,-5.596 -12.5,-12.5 z"
       stroke="#04316a"
       stroke-width="1.33333"
       stroke-miterlimit="8"
       fill="#04316a"
       fill-rule="evenodd"
       id="path215" />
    <path
       d="m 476.5,139 c 0,-6.904 5.596,-12.5 12.5,-12.5 6.904,0 12.5,5.596 12.5,12.5 0,6.904 -5.596,12.5 -12.5,12.5 -6.904,0 -12.5,-5.596 -12.5,-12.5 z"
       stroke="#04316a"
       stroke-width="1.33333"
       stroke-miterlimit="8"
       fill="#04316a"
       fill-rule="evenodd"
       id="path217" />
    <path
       d="m 267.5,129 c 0,-6.904 5.596,-12.5 12.5,-12.5 6.904,0 12.5,5.596 12.5,12.5 0,6.904 -5.596,12.5 -12.5,12.5 -6.904,0 -12.5,-5.596 -12.5,-12.5 z"
       stroke="#04316a"
       stroke-width="1.33333"
       stroke-miterlimit="8"
       fill="#04316a"
       fill-rule="evenodd"
       id="path219" />
    <path
       d="m 507.5,88.5001 c 0,-7.1797 5.596,-13 12.5,-13 6.904,0 12.5,5.8203 12.5,13 0,7.1797 -5.596,12.9999 -12.5,12.9999 -6.904,0 -12.5,-5.8202 -12.5,-12.9999 z"
       stroke="#04316a"
       stroke-width="1.33333"
       stroke-miterlimit="8"
       fill="#04316a"
       fill-rule="evenodd"
       id="path221" />
    <path
       d="m 417.5,87.0001 c 0,-6.9036 5.596,-12.5 12.5,-12.5 6.904,0 12.5,5.5964 12.5,12.5 0,6.9035 -5.596,12.5 -12.5,12.5 -6.904,0 -12.5,-5.5965 -12.5,-12.5 z"
       stroke="#04316a"
       stroke-width="1.33333"
       stroke-miterlimit="8"
       fill="#04316a"
       fill-rule="evenodd"
       id="path223" />
    <path
       d="m 471.5,230 c 0,-6.904 5.596,-12.5 12.5,-12.5 6.904,0 12.5,5.596 12.5,12.5 0,6.904 -5.596,12.5 -12.5,12.5 -6.904,0 -12.5,-5.596 -12.5,-12.5 z"
       stroke="#04316a"
       stroke-width="1.33333"
       stroke-miterlimit="8"
       fill="#04316a"
       fill-rule="evenodd"
       id="path225" />
    <path
       d="m 439.5,196.5 c 0,-7.18 5.596,-13 12.5,-13 6.904,0 12.5,5.82 12.5,13 0,7.18 -5.596,13 -12.5,13 -6.904,0 -12.5,-5.82 -12.5,-13 z"
       stroke="#04316a"
       stroke-width="1.33333"
       stroke-miterlimit="8"
       fill="#04316a"
       fill-rule="evenodd"
       id="path227" />
    <path
       d="m 557.5,279 c 0,-6.904 5.82,-12.5 13,-12.5 7.18,0 13,5.596 13,12.5 0,6.904 -5.82,12.5 -13,12.5 -7.18,0 -13,-5.596 -13,-12.5 z"
       stroke="#04316a"
       stroke-width="1.33333"
       stroke-miterlimit="8"
       fill="#04316a"
       fill-rule="evenodd"
       id="path229" />
    <path
       d="m 525.5,225 c 0,-6.904 5.82,-12.5 13,-12.5 7.18,0 13,5.596 13,12.5 0,6.904 -5.82,12.5 -13,12.5 -7.18,0 -13,-5.596 -13,-12.5 z"
       stroke="#04316a"
       stroke-width="1.33333"
       stroke-miterlimit="8"
       fill="#04316a"
       fill-rule="evenodd"
       id="path231" />
    <path
       d="m 558.5,71.0001 c 0,-6.9036 5.82,-12.5 13,-12.5 7.18,0 13,5.5964 13,12.5 0,6.9035 -5.82,12.5 -13,12.5 -7.18,0 -13,-5.5965 -13,-12.5 z"
       stroke="#04316a"
       stroke-width="1.33333"
       stroke-miterlimit="8"
       fill="#04316a"
       fill-rule="evenodd"
       id="path233" />
    <path
       d="m 523.5,171 c 0,-6.904 5.82,-12.5 13,-12.5 7.18,0 13,5.596 13,12.5 0,6.904 -5.82,12.5 -13,12.5 -7.18,0 -13,-5.596 -13,-12.5 z"
       stroke="#04316a"
       stroke-width="1.33333"
       stroke-miterlimit="8"
       fill="#04316a"
       fill-rule="evenodd"
       id="path235" />
    <path
       d="m 340.5,104 c 0,-6.9035 5.82,-12.4999 13,-12.4999 7.18,0 13,5.5964 13,12.4999 0,6.904 -5.82,12.5 -13,12.5 -7.18,0 -13,-5.596 -13,-12.5 z"
       stroke="#04316a"
       stroke-width="1.33333"
       stroke-miterlimit="8"
       fill="#04316a"
       fill-rule="evenodd"
       id="path237" />
    <path
       d="m 300.5,255 c 0,-6.904 5.596,-12.5 12.5,-12.5 6.904,0 12.5,5.596 12.5,12.5 0,6.904 -5.596,12.5 -12.5,12.5 -6.904,0 -12.5,-5.596 -12.5,-12.5 z"
       stroke="#04316a"
       stroke-width="1.33333"
       stroke-miterlimit="8"
       fill="#04316a"
       fill-rule="evenodd"
       id="path239" />
    <path
       d="m 342.5,203 c 0,-6.904 5.596,-12.5 12.5,-12.5 6.904,0 12.5,5.596 12.5,12.5 0,6.904 -5.596,12.5 -12.5,12.5 -6.904,0 -12.5,-5.596 -12.5,-12.5 z"
       stroke="#04316a"
       stroke-width="1.33333"
       stroke-miterlimit="8"
       fill="#04316a"
       fill-rule="evenodd"
       id="path241" />
    <path
       d="m 375.5,244 c 0,-6.904 5.82,-12.5 13,-12.5 7.18,0 13,5.596 13,12.5 0,6.904 -5.82,12.5 -13,12.5 -7.18,0 -13,-5.596 -13,-12.5 z"
       stroke="#04316a"
       stroke-width="1.33333"
       stroke-miterlimit="8"
       fill="#04316a"
       fill-rule="evenodd"
       id="path243" />
    <path
       d="m 506.5,281 c 0,-6.904 5.596,-12.5 12.5,-12.5 6.904,0 12.5,5.596 12.5,12.5 0,6.904 -5.596,12.5 -12.5,12.5 -6.904,0 -12.5,-5.596 -12.5,-12.5 z"
       stroke="#04316a"
       stroke-width="1.33333"
       stroke-miterlimit="8"
       fill="#04316a"
       fill-rule="evenodd"
       id="path245" />
    <path
       d="m 548.5,341 c 0,-6.904 5.596,-12.5 12.5,-12.5 6.904,0 12.5,5.596 12.5,12.5 0,6.904 -5.596,12.5 -12.5,12.5 -6.904,0 -12.5,-5.596 -12.5,-12.5 z"
       stroke="#04316a"
       stroke-width="1.33333"
       stroke-miterlimit="8"
       fill="#04316a"
       fill-rule="evenodd"
       id="path247" />
    <path
       d="m 421.5,276 c 0,-6.904 5.596,-12.5 12.5,-12.5 6.904,0 12.5,5.596 12.5,12.5 0,6.904 -5.596,12.5 -12.5,12.5 -6.904,0 -12.5,-5.596 -12.5,-12.5 z"
       stroke="#04316a"
       stroke-width="1.33333"
       stroke-miterlimit="8"
       fill="#04316a"
       fill-rule="evenodd"
       id="path249" />
    <path
       d="M 2,-0.00285907 2.19935,139.45 -1.80064,139.456 -2,0.00285907 Z M 6.19649,137.444 0.213648,149.453 -5.8035,137.461 Z"
       fill="#04316a"
       transform="matrix(1,0,0,-1,148,434.453)"
       id="path251" />
    <path
       d="M 0,0 151.977,161.781"
       stroke="#04316a"
       stroke-width="2"
       stroke-miterlimit="8"
       fill="none"
       fill-rule="evenodd"
       transform="matrix(1,0,0,-1,409,449.781)"
       id="path253" />
    <path
       d="M 409.693,449.677 311,157"
       stroke="#04316a"
       stroke-width="2"
       stroke-miterlimit="8"
       fill="none"
       fill-rule="evenodd"
       id="path255" />
    <g
       clip-path="url(#clip10)"
       id="g263">
      <g
         clip-path="url(#clip11)"
         id="g261">
        <g
           clip-path="url(#clip12)"
           id="g259">
          <path
             d="m 1149.14,45.8903 c 0.04,0.5063 0.04,1.0127 0.04,1.519 0,15.4435 -11.76,33.2379 -33.24,33.2379 -6.62,0 -12.77,-1.9169 -17.94,-5.2442 0.94,0.1084 1.84,0.1446 2.82,0.1446 5.46,0 10.49,-1.8445 14.5,-4.991 -5.13,-0.1086 -9.44,-3.4721 -10.92,-8.1016 0.72,0.1084 1.45,0.1808 2.21,0.1808 1.05,0 2.1,-0.1447 3.07,-0.3978 -5.35,-1.0851 -9.37,-5.7868 -9.37,-11.4651 v -0.1446 c 1.56,0.868 3.37,1.4105 5.28,1.4827 -3.14,-2.0977 -5.2,-5.6782 -5.2,-9.729 0,-2.17 0.58,-4.1592 1.59,-5.8953 5.75,7.0888 14.39,11.7182 24.09,12.2246 -0.18,-0.868 -0.29,-1.7721 -0.29,-2.6763 0,-6.4379 5.2,-11.6821 11.68,-11.6821 3.36,0 6.4,1.4105 8.53,3.6891 2.64,-0.5064 5.18,-1.4829 7.42,-2.8211 -0.87,2.7126 -2.71,4.9912 -5.14,6.4378 2.35,-0.2531 4.63,-0.9042 6.73,-1.8083 -1.59,2.3146 -3.58,4.3761 -5.86,6.0399 z"
             fill="#04316a"
             id="path257"
             inkscape:label="logo_twitter"
             style="display:inline" />
        </g>
      </g>
    </g>
    <path
       d="M 976,536.167 C 976,522.268 987.268,511 1001.17,511 h 100.66 c 13.9,0 25.17,11.268 25.17,25.167 V 636.833 C 1127,650.732 1115.73,662 1101.83,662 H 1001.17 C 987.268,662 976,650.732 976,636.833 Z"
       stroke="#04316a"
       stroke-width="2"
       stroke-miterlimit="8"
       fill="none"
       fill-rule="evenodd"
       id="path265"
       inkscape:label="box_google" />
    <path
       d="M 976,309.667 C 976,296.044 987.044,285 1000.67,285 h 101.66 c 13.63,0 24.67,11.044 24.67,24.667 v 98.666 C 1127,421.956 1115.96,433 1102.33,433 H 1000.67 C 987.044,433 976,421.956 976,408.333 Z"
       stroke="#04316a"
       stroke-width="2"
       stroke-miterlimit="8"
       fill="none"
       fill-rule="evenodd"
       id="path267"
       inkscape:label="box_facebook" />
    <g
       clip-path="url(#clip13)"
       id="g275">
      <g
         clip-path="url(#clip14)"
         id="g273">
        <g
           clip-path="url(#clip15)"
           id="g271">
          <path
             d="M 53.375,28.6344 C 53.375,44.1109 42.7766,55.125 27.125,55.125 12.1188,55.125 0,43.0063 0,28 0,12.9938 12.1188,0.875 27.125,0.875 c 7.3062,0 13.4531,2.67969 18.1891,7.09844 L 37.9312,15.0719 C 28.2734,5.75312 10.3141,12.7531 10.3141,28 c 0,9.4609 7.5578,17.1281 16.8109,17.1281 10.7406,0 14.7656,-7.7 15.4,-11.6922 h -15.4 v -9.3297 h 25.8234 c 0.2516,1.3891 0.4266,2.7235 0.4266,4.5282 z"
             fill="#04316a"
             transform="matrix(1.01171,0,0,1,1108,481)"
             id="path269"
             inkscape:label="logo_google" />
        </g>
      </g>
    </g>
    <g
       clip-path="url(#clip16)"
       id="g283">
      <g
         clip-path="url(#clip17)"
         id="g281"
         inkscape:label="g281">
        <g
           clip-path="url(#clip18)"
           id="g279">
          <path
             d="m 1161.11,283.5 c 0,-15.252 -12.36,-27.609 -27.61,-27.609 -15.25,0 -27.61,12.357 -27.61,27.609 0,13.78 10.1,25.202 23.3,27.275 v -19.294 h -7.02 V 283.5 h 7.02 v -6.083 c 0,-6.919 4.12,-10.741 10.42,-10.741 3.03,0 6.19,0.539 6.19,0.539 v 6.791 h -3.49 c -3.43,0 -4.5,2.129 -4.5,4.312 v 5.182 h 7.66 l -1.22,7.981 h -6.44 v 19.294 c 13.2,-2.073 23.3,-13.495 23.3,-27.275 z"
             fill="#04316a"
             id="path277"
             inkscape:label="logo_facebook" />
        </g>
      </g>
    </g>
    <g
       clip-path="url(#clip19)"
       id="g291">
      <g
         clip-path="url(#clip20)"
         id="g289">
        <g
           clip-path="url(#clip21)"
           id="g287">
          <path
             d="M 40.7947,9.20928 C 40.3285,7.45401 38.955,6.07161 37.2111,5.60248 34.0502,4.75 21.375,4.75 21.375,4.75 c 0,0 -12.67508,0 -15.83613,0.85248 C 3.79495,6.07169 2.42146,7.45401 1.95529,9.20928 1.10831,12.3908 1.10831,19.0288 1.10831,19.0288 c 0,0 0,6.638 0.84698,9.8195 0.46617,1.7553 1.83966,3.0801 3.58358,3.5492 C 8.69992,33.25 21.375,33.25 21.375,33.25 c 0,0 12.6751,0 15.8361,-0.8525 1.7439,-0.4691 3.1174,-1.7939 3.5836,-3.5492 0.847,-3.1815 0.847,-9.8195 0.847,-9.8195 0,0 0,-6.638 -0.847,-9.81952 z M 17.2295,25.0556 V 13.002 l 10.5939,6.0269 z"
             fill="#04316a"
             transform="matrix(1.00585,0,0,1,1186,229)"
             id="path285"
             inkscape:label="logo_youtube" />
        </g>
      </g>
    </g>
    <g
       clip-path="url(#clip22)"
       id="g299">
      <g
         clip-path="url(#clip23)"
         id="g297">
        <g
           clip-path="url(#clip24)"
           id="g295">
          <path
             d="m 1200.96,400.674 c -1.03,0 -1.85,-0.824 -1.85,-1.826 0,-1.024 0.82,-1.848 1.85,-1.848 1,0 1.82,0.824 1.82,1.848 0,1.009 -0.82,1.826 -1.82,1.826 z M 1223.41,397 c 0,10.168 -8.24,18.406 -18.41,18.406 -10.17,0 -18.41,-8.238 -18.41,-18.406 0,-10.168 8.24,-18.406 18.41,-18.406 10.17,0 18.41,8.238 18.41,18.406 z m -9.82,-3.058 c -0.7,0 -1.32,0.29 -1.77,0.742 -1.66,-1.15 -3.9,-1.892 -6.39,-1.974 l 1.29,-5.811 4.11,0.928 c 0,1.009 0.83,1.825 1.83,1.825 1.02,0 1.85,-0.838 1.85,-1.848 0,-1.009 -0.83,-1.848 -1.85,-1.848 -0.72,0 -1.34,0.431 -1.64,1.024 l -4.54,-1.009 c -0.23,-0.059 -0.46,0.104 -0.52,0.327 l -1.41,6.412 c -2.47,0.104 -4.69,0.839 -6.35,1.989 -0.45,-0.475 -1.09,-0.757 -1.79,-0.757 -2.59,0 -3.43,3.481 -1.07,4.661 -0.08,0.371 -0.12,0.757 -0.12,1.151 0,3.903 4.39,7.065 9.79,7.065 5.43,0 9.82,-3.162 9.82,-7.065 0,-0.394 -0.04,-0.802 -0.14,-1.173 2.33,-1.188 1.47,-4.639 -1.1,-4.639 z m -5.12,8.624 c -1.35,1.351 -5.64,1.329 -6.94,0 -0.17,-0.163 -0.46,-0.163 -0.62,0 -0.19,0.186 -0.19,0.475 0,0.639 1.69,1.692 6.48,1.692 8.18,0 0.19,-0.164 0.19,-0.453 0,-0.639 -0.16,-0.163 -0.45,-0.163 -0.62,0 z m 0.57,-5.566 c -1,0 -1.82,0.824 -1.82,1.848 0,1.009 0.82,1.826 1.82,1.826 1.03,0 1.85,-0.824 1.85,-1.826 0,-1.024 -0.81,-1.848 -1.85,-1.848 z"
             fill="#04316a"
             id="path293"
             inkscape:label="logo_reddit" />
        </g>
      </g>
    </g>
    <g
       clip-path="url(#clip25)"
       id="g307">
      <g
         clip-path="url(#clip26)"
         id="g305">
        <g
           clip-path="url(#clip27)"
           id="g303">
          <path
             d="m 16.6324,10.4648 c -4.7203,0 -8.52771,3.8075 -8.52771,8.5278 0,4.7203 3.80741,8.5277 8.52771,8.5277 4.7203,0 8.5278,-3.8074 8.5278,-8.5277 0,-4.7203 -3.8075,-8.5278 -8.5278,-8.5278 z m 0,14.0719 c -3.0504,0 -5.5441,-2.4863 -5.5441,-5.5441 0,-3.0578 2.4863,-5.5442 5.5441,-5.5442 3.0578,0 5.5442,2.4864 5.5442,5.5442 0,3.0578 -2.4938,5.5441 -5.5442,5.5441 z M 27.498,10.116 c 0,1.1059 -0.8906,1.9891 -1.989,1.9891 -1.1059,0 -1.9891,-0.8906 -1.9891,-1.9891 0,-1.09842 0.8906,-1.98905 1.9891,-1.98905 1.0984,0 1.989,0.89063 1.989,1.98905 z m 5.6481,2.0188 C 33.0199,9.47031 32.4113,7.11016 30.4594,5.16563 28.5148,3.22109 26.1547,2.6125 23.4902,2.47891 20.7441,2.32305 12.5133,2.32305 9.76719,2.47891 7.11016,2.60508 4.75,3.21367 2.79805,5.1582 0.846094,7.10273 0.244922,9.46289 0.111328,12.1273 c -0.1558593,2.7461 -0.1558593,10.977 0,13.7231 0.126172,2.6644 0.734766,5.0246 2.686722,6.9691 1.95195,1.9446 4.30468,2.5532 6.96914,2.6867 2.74611,0.1559 10.97691,0.1559 13.72301,0 2.6645,-0.1261 5.0246,-0.7347 6.9692,-2.6867 1.9445,-1.9445 2.5531,-4.3047 2.6867,-6.9691 0.1559,-2.7461 0.1559,-10.9695 0,-13.7156 z m -3.5477,16.6621 c -0.5789,1.4547 -1.6996,2.5754 -3.1617,3.1617 -2.1894,0.8684 -7.3847,0.668 -9.8043,0.668 -2.4195,0 -7.62224,0.1929 -9.80428,-0.668 C 5.37344,31.3797 4.25273,30.259 3.66641,28.7969 2.79805,26.6074 2.99844,21.4121 2.99844,18.9926 2.99844,16.573 2.80547,11.3703 3.66641,9.18828 4.24531,7.73359 5.36602,6.61289 6.82812,6.02656 9.01758,5.1582 14.2129,5.35859 16.6324,5.35859 c 2.4196,0 7.6223,-0.19296 9.8043,0.66797 1.4547,0.57891 2.5754,1.69961 3.1617,3.16172 0.8684,2.18942 0.668,7.38472 0.668,9.80432 0,2.4195 0.2004,7.6222 -0.668,9.8043 z"
             fill="#04316a"
             transform="matrix(1.02256,0,0,1,1190,151)"
             id="path301"
             inkscape:label="logo_insta" />
        </g>
      </g>
    </g>
    <g
       clip-path="url(#clip28)"
       id="g315">
      <g
         clip-path="url(#clip29)"
         id="g313">
        <g
           clip-path="url(#clip30)"
           id="g311">
          <path
             d="M 33.25,15.5793 C 29.9825,15.5871 26.7951,14.568 24.1382,12.6662 V 25.9305 C 24.1357,32.5935 18.7324,37.9928 12.0695,37.9904 5.40658,37.9879 0.00720404,32.5846 0.00965066,25.9217 0.0120972,19.2588 5.41543,13.8594 12.0784,13.8618 c 0.5526,3e-4 1.1046,0.0384 1.6521,0.1143 v 6.6716 c -2.9178,-0.9178 -6.02704,0.7035 -6.94481,3.6212 -0.91776,2.9177 0.7035,6.027 3.62131,6.9448 2.9177,0.9177 6.027,-0.7036 6.9448,-3.6212 0.1691,-0.5378 0.2551,-1.0983 0.2551,-1.662 V 0 h 6.5313 c -0.0046,0.551549 0.0417,1.10235 0.138,1.64543 v 0 c 0.4587,2.4502 1.9058,4.60352 4.0011,5.95383 1.4751,0.97531 3.2044,1.49513 4.9727,1.49476 z"
             fill="#04316a"
             transform="matrix(1.02256,0,0,1,1190,303)"
             id="path309"
             inkscape:label="logo_tiktok" />
        </g>
      </g>
    </g>
    <g
       clip-path="url(#clip31)"
       id="g323"
       inkscape:label="g323">
      <g
         clip-path="url(#clip32)"
         id="g321">
        <g
           clip-path="url(#clip33)"
           id="g319">
          <path
             d="m 1223.88,553.209 c -0.25,-0.681 -0.73,-1.046 -1.27,-1.348 -0.1,-0.06 -0.19,-0.107 -0.27,-0.144 -0.17,-0.084 -0.33,-0.165 -0.5,-0.251 -1.69,-0.897 -3.01,-2.029 -3.93,-3.371 -0.26,-0.377 -0.48,-0.778 -0.67,-1.196 -0.08,-0.224 -0.08,-0.351 -0.02,-0.467 0.05,-0.089 0.13,-0.166 0.22,-0.225 0.29,-0.192 0.59,-0.387 0.79,-0.519 0.36,-0.235 0.65,-0.421 0.83,-0.552 0.7,-0.486 1.18,-1.002 1.49,-1.579 0.43,-0.807 0.48,-1.76 0.15,-2.612 -0.46,-1.211 -1.6,-1.963 -2.99,-1.963 -0.29,-10e-4 -0.58,0.03 -0.87,0.092 -0.07,0.016 -0.15,0.034 -0.22,0.053 0.01,-0.828 -0.01,-1.702 -0.08,-2.563 -0.26,-3.025 -1.32,-4.611 -2.43,-5.875 -0.7,-0.792 -1.54,-1.463 -2.46,-1.984 -1.68,-0.957 -3.58,-1.443 -5.65,-1.443 -2.07,0 -3.96,0.486 -5.64,1.443 -0.93,0.521 -1.76,1.193 -2.47,1.988 -1.11,1.264 -2.16,2.853 -2.43,5.875 -0.07,0.86 -0.09,1.739 -0.08,2.563 -0.07,-0.019 -0.15,-0.037 -0.22,-0.054 -0.29,-0.061 -0.58,-0.092 -0.87,-0.092 -1.39,0 -2.53,0.752 -2.99,1.963 -0.33,0.853 -0.28,1.807 0.15,2.615 0.3,0.577 0.79,1.093 1.48,1.579 0.19,0.129 0.48,0.315 0.84,0.552 0.2,0.127 0.48,0.313 0.76,0.499 0.1,0.064 0.18,0.147 0.25,0.246 0.06,0.12 0.06,0.25 -0.03,0.49 -0.19,0.409 -0.41,0.801 -0.66,1.171 -0.9,1.312 -2.18,2.423 -3.82,3.313 -0.87,0.46 -1.77,0.768 -2.15,1.803 -0.29,0.781 -0.1,1.67 0.63,2.42 0.27,0.279 0.58,0.514 0.92,0.696 0.71,0.391 1.47,0.694 2.25,0.901 0.16,0.042 0.32,0.111 0.46,0.204 0.26,0.232 0.22,0.583 0.58,1.097 0.18,0.265 0.4,0.495 0.66,0.677 0.75,0.513 1.58,0.546 2.47,0.58 0.8,0.03 1.71,0.065 2.74,0.406 0.43,0.142 0.87,0.416 1.39,0.737 1.24,0.762 2.94,1.804 5.78,1.804 2.84,0 4.55,-1.048 5.8,-1.813 0.51,-0.314 0.95,-0.586 1.37,-0.724 1.03,-0.342 1.94,-0.376 2.74,-0.407 0.88,-0.034 1.72,-0.066 2.46,-0.58 0.31,-0.216 0.57,-0.499 0.76,-0.828 0.26,-0.433 0.25,-0.736 0.49,-0.948 0.13,-0.088 0.28,-0.154 0.43,-0.195 0.79,-0.208 1.56,-0.513 2.28,-0.909 0.36,-0.195 0.69,-0.451 0.97,-0.757 l 0.01,-0.011 c 0.68,-0.732 0.85,-1.595 0.57,-2.357 z m -2.52,1.356 c -1.54,0.85 -2.57,0.759 -3.36,1.272 -0.68,0.435 -0.28,1.374 -0.77,1.713 -0.6,0.417 -2.39,-0.03 -4.69,0.731 -1.9,0.629 -3.12,2.436 -6.54,2.436 -3.42,0 -4.6,-1.803 -6.53,-2.44 -2.31,-0.761 -4.09,-0.315 -4.7,-0.732 -0.49,-0.339 -0.09,-1.277 -0.77,-1.713 -0.79,-0.512 -1.82,-0.421 -3.35,-1.267 -0.98,-0.541 -0.43,-0.876 -0.1,-1.034 5.57,-2.7 6.46,-6.869 6.5,-7.179 0.05,-0.374 0.11,-0.669 -0.31,-1.05 -0.4,-0.368 -2.16,-1.462 -2.65,-1.804 -0.82,-0.567 -1.17,-1.133 -0.91,-1.829 0.18,-0.481 0.63,-0.663 1.11,-0.663 0.14,10e-4 0.29,0.017 0.44,0.05 0.89,0.193 1.75,0.64 2.25,0.76 0.06,0.016 0.13,0.024 0.19,0.025 0.26,0 0.36,-0.134 0.34,-0.44 -0.06,-0.974 -0.2,-2.874 -0.04,-4.649 0.21,-2.443 1,-3.653 1.93,-4.723 0.45,-0.515 2.56,-2.744 6.6,-2.744 4.03,0 6.15,2.22 6.6,2.733 0.93,1.07 1.72,2.28 1.93,4.723 0.15,1.775 0.02,3.675 -0.04,4.649 -0.02,0.321 0.07,0.44 0.34,0.44 0.06,-0.001 0.12,-0.009 0.18,-0.025 0.5,-0.12 1.37,-0.567 2.26,-0.76 0.15,-0.033 0.29,-0.049 0.44,-0.05 0.48,0 0.92,0.184 1.11,0.663 0.26,0.696 -0.09,1.262 -0.91,1.829 -0.49,0.342 -2.26,1.435 -2.65,1.804 -0.42,0.381 -0.36,0.676 -0.32,1.05 0.04,0.314 0.93,4.483 6.51,7.179 0.33,0.164 0.89,0.499 -0.09,1.045 z"
             fill="#04316a"
             id="path317"
             inkscape:label="logo_snap" />
        </g>
      </g>
    </g>
    <g
       clip-path="url(#clip34)"
       id="g331"
       inkscape:label="g331">
      <g
         clip-path="url(#clip35)"
         id="g329">
        <g
           clip-path="url(#clip36)"
           id="g327">
          <path
             d="M 47,3.76 46.978,4.65594 C 44.9144,4.71469 43.6733,5.81625 42.8802,7.61547 41.0442,11.8602 35.2941,25.2405 31.4753,33.9502 H 30.4766 L 24.462,19.7694 c -2.3867,4.6706 -5.0158,9.5468 -7.285,14.1808 -0.022,0.022 -1.1015,0 -1.1015,-0.0221 C 12.6312,25.872 9.01812,17.8747 5.56656,9.79656 4.72937,7.83578 1.93875,4.65594 0.0146875,4.67797 c 0,-0.22766 -0.02203125,-0.73438 -0.02203125,-1.04281 H 11.8822 v 1.02078 c -1.41,0.08078 -3.87751,0.97672 -3.17986,2.51156 1.60826,3.6498 7.60816,17.647 9.22376,21.1941 1.1016,-2.1811 4.2447,-8.0194 5.5298,-10.4869 C 22.4352,15.7964 19.1525,8.04141 18.1097,6.12469 17.3973,4.8175 15.4586,4.7 14.0119,4.67797 V 3.65719 l 10.4648,0.02203 v 0.96203 c -1.4247,0.04406 -2.798,0.57281 -2.159,1.91672 1.3879,2.9375 2.2471,5.00113 3.5323,7.68893 0.4112,-0.7932 2.5483,-5.09659 3.5323,-7.40253 0.6536,-1.51281 -0.2864,-2.10031 -2.8346,-2.15906 0.022,-0.26437 0,-0.7564 0.022,-0.99875 3.2606,-0.02203 8.1589,-0.02203 9.0401,-0.04406 V 4.64125 C 33.9575,4.7 32.2464,5.58125 31.3431,6.96922 l -4.3475,9.01808 c 0.47,1.1824 4.6486,10.4869 5.0819,11.5077 L 41.0662,6.74156 C 40.4347,5.04516 38.3931,4.67797 37.6,4.66328 V 3.6425 l 9.3853,0.08078 z"
             fill="#04316a"
             transform="matrix(1,0,0,1.01064,1183,458)"
             id="path325"
             inkscape:label="logo_wiki" />
        </g>
      </g>
    </g>
    <text
       font-family="Calibri, Calibri_MSFontService, sans-serif"
       font-weight="400"
       font-size="24px"
       transform="translate(89.9333,113)"
       id="text333"
       style="fill:#000000"
       inkscape:label="label_logo_1"><tspan
         style="fill:#000000"
         id="tspan588">label_box_1</tspan></text>
    <text
       font-family="Calibri, Calibri_MSFontService, sans-serif"
       font-weight="400"
       font-size="24px"
       transform="translate(86.4917,613)"
       id="text335"
       inkscape:label="label_logo_2">label_box_2</text>
    <path
       d="m 586.5,197 c 0,-6.904 5.596,-12.5 12.5,-12.5 6.904,0 12.5,5.596 12.5,12.5 0,6.904 -5.596,12.5 -12.5,12.5 -6.904,0 -12.5,-5.596 -12.5,-12.5 z"
       stroke="#04316a"
       stroke-width="1.33333"
       stroke-miterlimit="8"
       fill="#04316a"
       fill-rule="evenodd"
       id="path337" />
    <path
       d="m 1003.5,90.5001 c 0,-7.1797 5.82,-13 13,-13 7.18,0 13,5.8203 13,13 0,7.1797 -5.82,12.9999 -13,12.9999 -7.18,0 -13,-5.8202 -13,-12.9999 z"
       stroke="#04316a"
       stroke-width="1.33333"
       stroke-miterlimit="8"
       fill="#7f7f7f"
       fill-rule="evenodd"
       fill-opacity="0.6"
       id="path339" />
    <path
       d="m 1087.5,114 c 0,-6.904 5.6,-12.5 12.5,-12.5 6.9,0 12.5,5.596 12.5,12.5 0,6.904 -5.6,12.5 -12.5,12.5 -6.9,0 -12.5,-5.596 -12.5,-12.5 z"
       stroke="#04316a"
       stroke-width="1.33333"
       stroke-miterlimit="8"
       fill="#7f7f7f"
       fill-rule="evenodd"
       fill-opacity="0.6"
       id="path341" />
    <path
       d="m 1033.5,130 c 0,-6.904 5.82,-12.5 13,-12.5 7.18,0 13,5.596 13,12.5 0,6.904 -5.82,12.5 -13,12.5 -7.18,0 -13,-5.596 -13,-12.5 z"
       stroke="#04316a"
       stroke-width="1.33333"
       stroke-miterlimit="8"
       fill="#7f7f7f"
       fill-rule="evenodd"
       fill-opacity="0.6"
       id="path343" />
    <path
       d="m 1007.07,168.09 c 4.6,-5.249 12.59,-5.774 17.84,-1.173 5.24,4.601 5.77,12.586 1.17,17.835 -4.6,5.249 -12.59,5.774 -17.84,1.173 -5.25,-4.601 -5.77,-12.586 -1.17,-17.835 z"
       stroke="#04316a"
       stroke-width="1.33333"
       stroke-miterlimit="8"
       fill="#7f7f7f"
       fill-rule="evenodd"
       fill-opacity="0.6"
       id="path345" />
    <path
       d="m 1054.89,326.349 c -6.4,-2.782 -9.34,-10.226 -6.56,-16.628 2.79,-6.402 10.23,-9.336 16.63,-6.554 6.4,2.782 9.34,10.226 6.56,16.628 -2.79,6.402 -10.23,9.336 -16.63,6.554 z"
       stroke="#04316a"
       stroke-width="1.33333"
       stroke-miterlimit="8"
       fill="#7f7f7f"
       fill-rule="evenodd"
       fill-opacity="0.6"
       id="path347" />
    <path
       d="m 1094.64,367.079 c -6.41,-2.782 -9.34,-10.227 -6.56,-16.629 2.78,-6.401 10.23,-9.336 16.63,-6.554 6.4,2.782 9.34,10.227 6.55,16.629 -2.78,6.401 -10.22,9.336 -16.62,6.554 z"
       stroke="#04316a"
       stroke-width="1.33333"
       stroke-miterlimit="8"
       fill="#7f7f7f"
       fill-rule="evenodd"
       fill-opacity="0.6"
       id="path349" />
    <path
       d="m 1052.03,394.785 c -6.4,-2.782 -9.34,-10.227 -6.55,-16.629 2.78,-6.401 10.22,-9.336 16.62,-6.554 6.41,2.782 9.34,10.227 6.56,16.629 -2.78,6.401 -10.23,9.336 -16.63,6.554 z"
       stroke="#04316a"
       stroke-width="1.33333"
       stroke-miterlimit="8"
       fill="#7f7f7f"
       fill-rule="evenodd"
       fill-opacity="0.6"
       id="path351" />
    <path
       d="m 996.429,396.037 c -2.981,-6.312 -0.28,-13.845 6.031,-16.825 6.31,-2.981 13.85,-0.28 16.83,6.031 2.98,6.312 0.28,13.845 -6.04,16.825 -6.31,2.981 -13.841,0.28 -16.821,-6.031 z"
       stroke="#04316a"
       stroke-width="1.33333"
       stroke-miterlimit="8"
       fill="#7f7f7f"
       fill-rule="evenodd"
       fill-opacity="0.6"
       id="path353" />
    <path
       d="m 1066.5,626 c 0,-6.904 5.6,-12.5 12.5,-12.5 6.9,0 12.5,5.596 12.5,12.5 0,6.904 -5.6,12.5 -12.5,12.5 -6.9,0 -12.5,-5.596 -12.5,-12.5 z"
       stroke="#04316a"
       stroke-width="1.33333"
       stroke-miterlimit="8"
       fill="#7f7f7f"
       fill-rule="evenodd"
       fill-opacity="0.6"
       id="path355" />
    <path
       d="m 1085.5,554 c 0,-6.904 5.6,-12.5 12.5,-12.5 6.9,0 12.5,5.596 12.5,12.5 0,6.904 -5.6,12.5 -12.5,12.5 -6.9,0 -12.5,-5.596 -12.5,-12.5 z"
       stroke="#04316a"
       stroke-width="1.33333"
       stroke-miterlimit="8"
       fill="#7f7f7f"
       fill-rule="evenodd"
       fill-opacity="0.6"
       id="path357" />
    <path
       d="m 993.5,629 c 0,-6.904 5.596,-12.5 12.5,-12.5 6.9,0 12.5,5.596 12.5,12.5 0,6.904 -5.6,12.5 -12.5,12.5 -6.904,0 -12.5,-5.596 -12.5,-12.5 z"
       stroke="#04316a"
       stroke-width="1.33333"
       stroke-miterlimit="8"
       fill="#7f7f7f"
       fill-rule="evenodd"
       fill-opacity="0.6"
       id="path359" />
    <path
       d="m 1023.25,575.5 c 4.6,-5.25 12.58,-5.775 17.83,-1.174 5.25,4.601 5.78,12.586 1.18,17.835 -4.6,5.249 -12.59,5.775 -17.84,1.174 -5.25,-4.601 -5.77,-12.586 -1.17,-17.835 z"
       stroke="#04316a"
       stroke-width="1.33333"
       stroke-miterlimit="8"
       fill="#7f7f7f"
       fill-rule="evenodd"
       fill-opacity="0.6"
       id="path361" />
    <path
       d="m 1015.94,157.963 c 0.35,-0.392 0.94,-0.432 1.34,-0.088 0.39,0.344 0.43,0.941 0.08,1.334 -0.34,0.392 -0.94,0.431 -1.33,0.087 -0.39,-0.344 -0.43,-0.941 -0.09,-1.333 z"
       stroke="#04316a"
       stroke-width="0.333333"
       stroke-miterlimit="8"
       fill="#7f7f7f"
       fill-rule="evenodd"
       id="path363" />
    <path
       d="m 1032.54,174.746 c 0.34,-0.392 0.94,-0.431 1.33,-0.087 0.39,0.344 0.43,0.941 0.09,1.333 -0.34,0.392 -0.94,0.432 -1.33,0.088 -0.4,-0.344 -0.44,-0.941 -0.09,-1.334 z"
       stroke="#04316a"
       stroke-width="0.333333"
       stroke-miterlimit="8"
       fill="#7f7f7f"
       fill-rule="evenodd"
       id="path365" />
    <path
       d="m 1016.05,192.541 c 0.34,-0.392 0.94,-0.431 1.33,-0.087 0.39,0.344 0.43,0.941 0.09,1.333 -0.35,0.393 -0.94,0.432 -1.34,0.088 -0.39,-0.344 -0.43,-0.941 -0.08,-1.334 z"
       stroke="#04316a"
       stroke-width="0.333333"
       stroke-miterlimit="8"
       fill="#7f7f7f"
       fill-rule="evenodd"
       id="path367" />
    <path
       d="m 999.447,174.746 c 0.344,-0.392 0.943,-0.431 1.333,-0.087 0.39,0.344 0.43,0.941 0.09,1.333 -0.35,0.392 -0.943,0.432 -1.336,0.088 -0.392,-0.344 -0.431,-0.941 -0.087,-1.334 z"
       stroke="#04316a"
       stroke-width="0.333333"
       stroke-miterlimit="8"
       fill="#7f7f7f"
       fill-rule="evenodd"
       id="path369" />
    <path
       d="m 999.873,180.078 c 0.347,-0.393 0.937,-0.432 1.337,-0.088 0.39,0.344 0.43,0.941 0.08,1.333 -0.34,0.393 -0.94,0.432 -1.329,0.088 -0.392,-0.344 -0.432,-0.941 -0.088,-1.333 z"
       stroke="#04316a"
       stroke-width="0.333333"
       stroke-miterlimit="8"
       fill="#7f7f7f"
       fill-rule="evenodd"
       id="path371" />
    <path
       d="m 1002.38,184.837 c 0.35,-0.392 0.94,-0.431 1.34,-0.087 0.39,0.344 0.43,0.941 0.08,1.333 -0.34,0.392 -0.94,0.432 -1.33,0.088 -0.39,-0.344 -0.43,-0.941 -0.09,-1.334 z"
       stroke="#04316a"
       stroke-width="0.333333"
       stroke-miterlimit="8"
       fill="#7f7f7f"
       fill-rule="evenodd"
       id="path373" />
    <path
       d="m 1006.02,188.764 c 0.34,-0.393 0.94,-0.432 1.33,-0.088 0.4,0.344 0.44,0.941 0.09,1.333 -0.34,0.393 -0.94,0.432 -1.33,0.088 -0.39,-0.344 -0.43,-0.941 -0.09,-1.333 z"
       stroke="#04316a"
       stroke-width="0.333333"
       stroke-miterlimit="8"
       fill="#7f7f7f"
       fill-rule="evenodd"
       id="path375" />
    <path
       d="m 1010.5,191.05 c 0.34,-0.392 0.94,-0.432 1.33,-0.088 0.39,0.344 0.43,0.941 0.09,1.334 -0.34,0.392 -0.94,0.431 -1.33,0.087 -0.4,-0.344 -0.44,-0.941 -0.09,-1.333 z"
       stroke="#04316a"
       stroke-width="0.333333"
       stroke-miterlimit="8"
       fill="#7f7f7f"
       fill-rule="evenodd"
       id="path377" />
    <path
       d="m 1001.68,170.996 c -0.34,0.392 -0.94,0.432 -1.33,0.088 -0.393,-0.344 -0.432,-0.941 -0.09,-1.334 0.35,-0.392 0.94,-0.431 1.34,-0.087 0.39,0.344 0.43,0.941 0.08,1.333 z"
       stroke="#04316a"
       stroke-width="0.333333"
       stroke-miterlimit="8"
       fill="#7f7f7f"
       fill-rule="evenodd"
       id="path379" />
    <path
       d="m 1004.19,166.236 c -0.34,0.393 -0.94,0.432 -1.33,0.088 -0.39,-0.344 -0.43,-0.941 -0.09,-1.333 0.35,-0.393 0.94,-0.432 1.34,-0.088 0.39,0.344 0.43,0.941 0.08,1.333 z"
       stroke="#04316a"
       stroke-width="0.333333"
       stroke-miterlimit="8"
       fill="#7f7f7f"
       fill-rule="evenodd"
       id="path381" />
    <path
       d="m 1007.83,162.31 c -0.34,0.392 -0.94,0.431 -1.33,0.087 -0.4,-0.343 -0.43,-0.94 -0.09,-1.333 0.34,-0.392 0.94,-0.432 1.33,-0.088 0.39,0.344 0.43,0.941 0.09,1.334 z"
       stroke="#04316a"
       stroke-width="0.333333"
       stroke-miterlimit="8"
       fill="#7f7f7f"
       fill-rule="evenodd"
       id="path383" />
    <path
       d="m 1012.31,160.024 c -0.35,0.392 -0.94,0.431 -1.33,0.087 -0.4,-0.344 -0.44,-0.941 -0.09,-1.333 0.34,-0.393 0.94,-0.432 1.33,-0.088 0.39,0.344 0.43,0.941 0.09,1.334 z"
       stroke="#04316a"
       stroke-width="0.333333"
       stroke-miterlimit="8"
       fill="#7f7f7f"
       fill-rule="evenodd"
       id="path385" />
    <path
       d="M 0,0.944882 C 0,0.423038 0.423038,0 0.944882,0 1.46673,0 1.88976,0.423038 1.88976,0.944882 1.88976,1.46673 1.46673,1.88976 0.944882,1.88976 0.423038,1.88976 0,1.46673 0,0.944882 Z"
       stroke="#04316a"
       stroke-width="0.333333"
       stroke-miterlimit="8"
       fill="#7f7f7f"
       fill-rule="evenodd"
       transform="matrix(0.752009,-0.659153,-0.659153,-0.752009,1031.99,171.89)"
       id="path387" />
    <path
       d="M 0,0.944882 C 0,0.423038 0.423038,0 0.944882,0 1.46673,0 1.88976,0.423038 1.88976,0.944882 1.88976,1.46673 1.46673,1.88976 0.944882,1.88976 0.423038,1.88976 0,1.46673 0,0.944882 Z"
       stroke="#04316a"
       stroke-width="0.333333"
       stroke-miterlimit="8"
       fill="#7f7f7f"
       fill-rule="evenodd"
       transform="matrix(0.752009,-0.659153,-0.659153,-0.752009,1029.48,167.131)"
       id="path389" />
    <path
       d="M 0,0.944882 C 0,0.423038 0.423038,0 0.944882,0 1.46673,0 1.88976,0.423038 1.88976,0.944882 1.88976,1.46673 1.46673,1.88976 0.944882,1.88976 0.423038,1.88976 0,1.46673 0,0.944882 Z"
       stroke="#04316a"
       stroke-width="0.333333"
       stroke-miterlimit="8"
       fill="#7f7f7f"
       fill-rule="evenodd"
       transform="matrix(0.752009,-0.659153,-0.659153,-0.752009,1025.84,163.204)"
       id="path391" />
    <path
       d="M 0,0.944882 C 0,0.423038 0.423038,0 0.944882,0 1.46673,0 1.88976,0.423038 1.88976,0.944882 1.88976,1.46673 1.46673,1.88976 0.944882,1.88976 0.423038,1.88976 0,1.46673 0,0.944882 Z"
       stroke="#04316a"
       stroke-width="0.333333"
       stroke-miterlimit="8"
       fill="#7f7f7f"
       fill-rule="evenodd"
       transform="matrix(0.752009,-0.659153,-0.659153,-0.752009,1021.37,160.918)"
       id="path393" />
    <path
       d="m 1031.37,180.542 c 0.34,-0.392 0.94,-0.432 1.33,-0.088 0.39,0.344 0.43,0.941 0.09,1.334 -0.34,0.392 -0.94,0.431 -1.33,0.087 -0.4,-0.344 -0.44,-0.941 -0.09,-1.333 z"
       stroke="#04316a"
       stroke-width="0.333333"
       stroke-miterlimit="8"
       fill="#7f7f7f"
       fill-rule="evenodd"
       id="path395" />
    <path
       d="m 1028.86,185.302 c 0.34,-0.393 0.94,-0.432 1.33,-0.088 0.39,0.344 0.43,0.941 0.09,1.333 -0.34,0.393 -0.94,0.432 -1.33,0.088 -0.4,-0.344 -0.44,-0.941 -0.09,-1.333 z"
       stroke="#04316a"
       stroke-width="0.333333"
       stroke-miterlimit="8"
       fill="#7f7f7f"
       fill-rule="evenodd"
       id="path397" />
    <path
       d="m 1025.22,189.228 c 0.35,-0.392 0.94,-0.432 1.33,-0.088 0.4,0.344 0.44,0.941 0.09,1.334 -0.34,0.392 -0.94,0.432 -1.33,0.088 -0.39,-0.344 -0.43,-0.941 -0.09,-1.334 z"
       stroke="#04316a"
       stroke-width="0.333333"
       stroke-miterlimit="8"
       fill="#7f7f7f"
       fill-rule="evenodd"
       id="path399" />
    <path
       d="m 1020.74,191.514 c 0.35,-0.392 0.94,-0.431 1.34,-0.087 0.39,0.344 0.43,0.941 0.08,1.333 -0.34,0.392 -0.94,0.432 -1.33,0.088 -0.39,-0.344 -0.43,-0.941 -0.09,-1.334 z"
       stroke="#04316a"
       stroke-width="0.333333"
       stroke-miterlimit="8"
       fill="#7f7f7f"
       fill-rule="evenodd"
       id="path401" />
    <path
       d="m 584,70 419.76,19.8246"
       stroke="#7f7f7f"
       stroke-width="2"
       stroke-miterlimit="8"
       fill="none"
       fill-rule="evenodd"
       id="path403" />
    <path
       d="m 387.5,144 c 0,-6.904 5.596,-12.5 12.5,-12.5 6.904,0 12.5,5.596 12.5,12.5 0,6.904 -5.596,12.5 -12.5,12.5 -6.904,0 -12.5,-5.596 -12.5,-12.5 z"
       stroke="#04316a"
       stroke-width="1.33333"
       stroke-miterlimit="8"
       fill="#04316a"
       fill-rule="evenodd"
       id="path405" />
    <path
       d="m 309.5,309 c 0,-6.904 5.596,-12.5 12.5,-12.5 6.904,0 12.5,5.596 12.5,12.5 0,6.904 -5.596,12.5 -12.5,12.5 -6.904,0 -12.5,-5.596 -12.5,-12.5 z"
       stroke="#04316a"
       stroke-width="1.33333"
       stroke-miterlimit="8"
       fill="#04316a"
       fill-rule="evenodd"
       id="path407" />
    <path
       d="m 261.5,197 c 0,-6.904 5.596,-12.5 12.5,-12.5 6.904,0 12.5,5.596 12.5,12.5 0,6.904 -5.596,12.5 -12.5,12.5 -6.904,0 -12.5,-5.596 -12.5,-12.5 z"
       stroke="#04316a"
       stroke-width="1.33333"
       stroke-miterlimit="8"
       fill="#04316a"
       fill-rule="evenodd"
       id="path409" />
    <path
       d="M 0,0 421.217,101.532"
       stroke="#7f7f7f"
       stroke-width="2"
       stroke-miterlimit="8"
       fill="none"
       fill-rule="evenodd"
       transform="matrix(1,0,0,-1,583,278.532)"
       id="path411" />
    <path
       d="M 0,0 441.966,8.70226"
       stroke="#7f7f7f"
       stroke-width="2"
       stroke-miterlimit="8"
       fill="none"
       fill-rule="evenodd"
       transform="matrix(1,0,0,-1,591,138.702)"
       id="path413" />
    <path
       d="m 591,138 457.05,171.434"
       stroke="#7f7f7f"
       stroke-width="2"
       stroke-miterlimit="8"
       fill="none"
       fill-rule="evenodd"
       id="path415" />
    <path
       d="m 591,138 497.04,406.564"
       stroke="#7f7f7f"
       stroke-width="2"
       stroke-miterlimit="8"
       fill="none"
       fill-rule="evenodd"
       id="path417" />
    <path
       d="M 583,279 996.213,386.592"
       stroke="#7F7F7F"
       stroke-width="2"
       stroke-miterlimit="8"
       fill="none"
       fill-rule="evenodd"
       id="path419"
       style="fill:#ff0000;stroke:#7f7f7f;stroke-opacity:1" />
    <path
       d="m 611,197 434.49,181.406"
       stroke="#7f7f7f"
       stroke-width="2"
       stroke-miterlimit="8"
       fill="none"
       fill-rule="evenodd"
       id="path421" />
    <path
       d="m 583,279 440.5,296.717"
       stroke="#7f7f7f"
       stroke-width="2"
       stroke-miterlimit="8"
       fill="none"
       fill-rule="evenodd"
       id="path423" />
    <path
       d="M 569,349 992.956,628.415"
       stroke="#7f7f7f"
       stroke-width="2"
       stroke-miterlimit="8"
       fill="none"
       fill-rule="evenodd"
       id="path425" />
    <path
       d="m 765,474 h 93.917 v 0 H 899.167 926 v 86.917 l 85.85,22.677 L 926,598.167 V 623 h -26.833 -40.25 v 0 H 765 v -24.833 -37.25 0 z"
       stroke="#2F528F"
       stroke-width="2"
       stroke-miterlimit="8"
       fill="#ffffff"
       fill-rule="evenodd"
       id="path427"
       style="stroke:#ff6600;fill:#ff6600;fill-opacity:1"
       inkscape:label="box_lower" />
    <text
       font-family="Corbel, Corbel_MSFontService, sans-serif"
       font-weight="700"
       font-size="24px"
       transform="translate(774.436,498)"
       id="text429"
       inkscape:label="box_lower-h1">Traces</text>
    <text
       font-family="Arial, Arial_MSFontService, sans-serif"
       font-weight="400"
       font-size="24px"
       transform="translate(774.436,527)"
       id="text431"
       inkscape:label="box_lower-point_b1"><tspan
         style="fill:#d4aa00"
         id="tspan5890"></tspan></text>
    <text
       font-family="Corbel, Corbel_MSFontService, sans-serif"
       font-weight="400"
       font-size="24px"
       transform="translate(804.436,527)"
       id="text433"
       inkscape:label="box_lower-text_b1">Queries</text>
    <text
       font-family="Arial, Arial_MSFontService, sans-serif"
       font-weight="400"
       font-size="24px"
       transform="translate(774.436,556)"
       id="text435"
       inkscape:label="box_lower-point_b2"></text>
    <text
       font-family="Corbel, Corbel_MSFontService, sans-serif"
       font-weight="400"
       font-size="24px"
       transform="translate(804.436,556)"
       id="text437"
       inkscape:label="box_lower-text_b2">Visits</text>
    <text
       font-family="Arial, Arial_MSFontService, sans-serif"
       font-weight="400"
       font-size="24px"
       transform="translate(774.436,585)"
       id="text439"
       inkscape:label="box_lower-point_b3"></text>
    <text
       font-family="Corbel, Corbel_MSFontService, sans-serif"
       font-weight="400"
       font-size="24px"
       transform="translate(804.436,585)"
       id="text441"
       inkscape:label="box_lower-text_b3">Location</text>
    <path
       d="m 1031.15,565.918 c 0.35,-0.392 0.94,-0.431 1.34,-0.087 0.39,0.343 0.43,0.94 0.09,1.333 -0.35,0.392 -0.95,0.432 -1.34,0.088 -0.39,-0.344 -0.43,-0.941 -0.09,-1.334 z"
       stroke="#04316a"
       stroke-width="0.333333"
       stroke-miterlimit="8"
       fill="#7f7f7f"
       fill-rule="evenodd"
       id="path445" />
    <path
       d="m 1047.75,582.702 c 0.34,-0.393 0.94,-0.432 1.33,-0.088 0.4,0.344 0.44,0.941 0.09,1.333 -0.34,0.393 -0.94,0.432 -1.33,0.088 -0.39,-0.344 -0.43,-0.941 -0.09,-1.333 z"
       stroke="#04316a"
       stroke-width="0.333333"
       stroke-miterlimit="8"
       fill="#7f7f7f"
       fill-rule="evenodd"
       id="path447" />
    <path
       d="m 1031.26,600.497 c 0.34,-0.393 0.94,-0.432 1.33,-0.088 0.39,0.344 0.43,0.941 0.09,1.333 -0.34,0.393 -0.94,0.432 -1.33,0.088 -0.4,-0.344 -0.44,-0.941 -0.09,-1.333 z"
       stroke="#04316a"
       stroke-width="0.333333"
       stroke-miterlimit="8"
       fill="#7f7f7f"
       fill-rule="evenodd"
       id="path449" />
    <path
       d="m 1014.66,582.702 c 0.34,-0.393 0.94,-0.432 1.33,-0.088 0.39,0.344 0.43,0.941 0.09,1.333 -0.34,0.393 -0.94,0.432 -1.33,0.088 -0.4,-0.344 -0.43,-0.941 -0.09,-1.333 z"
       stroke="#04316a"
       stroke-width="0.333333"
       stroke-miterlimit="8"
       fill="#7f7f7f"
       fill-rule="evenodd"
       id="path451" />
    <path
       d="m 1015.09,588.033 c 0.34,-0.393 0.94,-0.432 1.33,-0.088 0.39,0.344 0.43,0.941 0.09,1.333 -0.35,0.393 -0.94,0.432 -1.34,0.088 -0.39,-0.344 -0.43,-0.941 -0.08,-1.333 z"
       stroke="#04316a"
       stroke-width="0.333333"
       stroke-miterlimit="8"
       fill="#7f7f7f"
       fill-rule="evenodd"
       id="path453" />
    <path
       d="m 1017.6,592.793 c 0.34,-0.393 0.94,-0.432 1.33,-0.088 0.39,0.344 0.43,0.941 0.09,1.333 -0.35,0.393 -0.94,0.432 -1.34,0.088 -0.39,-0.344 -0.43,-0.941 -0.08,-1.333 z"
       stroke="#04316a"
       stroke-width="0.333333"
       stroke-miterlimit="8"
       fill="#7f7f7f"
       fill-rule="evenodd"
       id="path455" />
    <path
       d="m 1021.23,596.719 c 0.35,-0.392 0.94,-0.432 1.34,-0.088 0.39,0.344 0.43,0.941 0.08,1.334 -0.34,0.392 -0.94,0.431 -1.33,0.087 -0.39,-0.344 -0.43,-0.941 -0.09,-1.333 z"
       stroke="#04316a"
       stroke-width="0.333333"
       stroke-miterlimit="8"
       fill="#7f7f7f"
       fill-rule="evenodd"
       id="path457" />
    <path
       d="m 1025.71,599.005 c 0.35,-0.392 0.94,-0.431 1.33,-0.088 0.4,0.344 0.44,0.941 0.09,1.334 -0.34,0.392 -0.94,0.432 -1.33,0.088 -0.39,-0.344 -0.43,-0.941 -0.09,-1.334 z"
       stroke="#04316a"
       stroke-width="0.333333"
       stroke-miterlimit="8"
       fill="#7f7f7f"
       fill-rule="evenodd"
       id="path459" />
    <path
       d="m 1016.9,578.951 c -0.35,0.393 -0.95,0.432 -1.34,0.088 -0.39,-0.344 -0.43,-0.941 -0.09,-1.333 0.35,-0.393 0.95,-0.432 1.34,-0.088 0.39,0.344 0.43,0.941 0.09,1.333 z"
       stroke="#04316a"
       stroke-width="0.333333"
       stroke-miterlimit="8"
       fill="#7f7f7f"
       fill-rule="evenodd"
       id="path461" />
    <path
       d="m 1019.41,574.191 c -0.35,0.393 -0.95,0.432 -1.34,0.088 -0.39,-0.344 -0.43,-0.941 -0.09,-1.333 0.35,-0.393 0.95,-0.432 1.34,-0.088 0.39,0.344 0.43,0.941 0.09,1.333 z"
       stroke="#04316a"
       stroke-width="0.333333"
       stroke-miterlimit="8"
       fill="#7f7f7f"
       fill-rule="evenodd"
       id="path463" />
    <path
       d="m 1023.04,570.265 c -0.34,0.392 -0.94,0.432 -1.33,0.088 -0.39,-0.344 -0.43,-0.941 -0.09,-1.334 0.35,-0.392 0.94,-0.431 1.33,-0.087 0.4,0.344 0.44,0.941 0.09,1.333 z"
       stroke="#04316a"
       stroke-width="0.333333"
       stroke-miterlimit="8"
       fill="#7f7f7f"
       fill-rule="evenodd"
       id="path465" />
    <path
       d="m 1027.52,567.979 c -0.34,0.392 -0.94,0.432 -1.33,0.088 -0.39,-0.344 -0.43,-0.941 -0.09,-1.334 0.34,-0.392 0.94,-0.432 1.33,-0.088 0.4,0.344 0.43,0.941 0.09,1.334 z"
       stroke="#04316a"
       stroke-width="0.333333"
       stroke-miterlimit="8"
       fill="#7f7f7f"
       fill-rule="evenodd"
       id="path467" />
    <path
       d="M 0,0.944882 C 0,0.423038 0.423038,0 0.944882,0 1.46673,0 1.88976,0.423038 1.88976,0.944882 1.88976,1.46673 1.46673,1.88976 0.944882,1.88976 0.423038,1.88976 0,1.46673 0,0.944882 Z"
       stroke="#04316a"
       stroke-width="0.333333"
       stroke-miterlimit="8"
       fill="#7f7f7f"
       fill-rule="evenodd"
       transform="matrix(0.752009,-0.659153,-0.659153,-0.752009,1047.2,579.846)"
       id="path469" />
    <path
       d="M 0,0.944882 C 0,0.423038 0.423038,0 0.944882,0 1.46673,0 1.88976,0.423038 1.88976,0.944882 1.88976,1.46673 1.46673,1.88976 0.944882,1.88976 0.423038,1.88976 0,1.46673 0,0.944882 Z"
       stroke="#04316a"
       stroke-width="0.333333"
       stroke-miterlimit="8"
       fill="#7f7f7f"
       fill-rule="evenodd"
       transform="matrix(0.752009,-0.659153,-0.659153,-0.752009,1044.69,575.086)"
       id="path471" />
    <path
       d="M 0,0.944882 C 0,0.423038 0.423038,0 0.944882,0 1.46673,0 1.88976,0.423038 1.88976,0.944882 1.88976,1.46673 1.46673,1.88976 0.944882,1.88976 0.423038,1.88976 0,1.46673 0,0.944882 Z"
       stroke="#04316a"
       stroke-width="0.333333"
       stroke-miterlimit="8"
       fill="#7f7f7f"
       fill-rule="evenodd"
       transform="matrix(0.752009,-0.659153,-0.659153,-0.752009,1041.06,571.159)"
       id="path473" />
    <path
       d="M 0,0.944882 C 0,0.423038 0.423038,0 0.944882,0 1.46673,0 1.88976,0.423038 1.88976,0.944882 1.88976,1.46673 1.46673,1.88976 0.944882,1.88976 0.423038,1.88976 0,1.46673 0,0.944882 Z"
       stroke="#04316a"
       stroke-width="0.333333"
       stroke-miterlimit="8"
       fill="#7f7f7f"
       fill-rule="evenodd"
       transform="matrix(0.752009,-0.659153,-0.659153,-0.752009,1036.58,568.873)"
       id="path475" />
    <path
       d="m 1046.58,588.497 c 0.35,-0.392 0.94,-0.431 1.33,-0.087 0.4,0.344 0.44,0.941 0.09,1.333 -0.34,0.392 -0.94,0.432 -1.33,0.088 -0.39,-0.344 -0.43,-0.941 -0.09,-1.334 z"
       stroke="#04316a"
       stroke-width="0.333333"
       stroke-miterlimit="8"
       fill="#7f7f7f"
       fill-rule="evenodd"
       id="path477" />
    <path
       d="m 1044.07,593.257 c 0.34,-0.392 0.94,-0.432 1.33,-0.088 0.4,0.344 0.44,0.941 0.09,1.334 -0.34,0.392 -0.94,0.431 -1.33,0.087 -0.39,-0.344 -0.43,-0.941 -0.09,-1.333 z"
       stroke="#04316a"
       stroke-width="0.333333"
       stroke-miterlimit="8"
       fill="#7f7f7f"
       fill-rule="evenodd"
       id="path479" />
    <path
       d="m 1040.43,597.183 c 0.35,-0.392 0.94,-0.431 1.34,-0.087 0.39,0.344 0.43,0.941 0.08,1.333 -0.34,0.393 -0.94,0.432 -1.33,0.088 -0.39,-0.344 -0.43,-0.941 -0.09,-1.334 z"
       stroke="#04316a"
       stroke-width="0.333333"
       stroke-miterlimit="8"
       fill="#7f7f7f"
       fill-rule="evenodd"
       id="path481"
       inkscape:label="path481" />
    <path
       d="m 1035.96,599.47 c 0.34,-0.393 0.94,-0.432 1.33,-0.088 0.39,0.344 0.43,0.941 0.09,1.333 -0.35,0.393 -0.94,0.432 -1.34,0.088 -0.39,-0.344 -0.43,-0.941 -0.08,-1.333 z"
       stroke="#04316a"
       stroke-width="0.333333"
       stroke-miterlimit="8"
       fill="#7f7f7f"
       fill-rule="evenodd"
       id="path483" />
    <path
       d="m 765,57 h 93.917 v 0 H 899.167 926 v 87.5 L 997.901,174.677 926,182 v 25 h -26.833 -40.25 v 0 H 765 v -25 -37.5 0 z"
       stroke="#2f528f"
       stroke-width="2"
       stroke-miterlimit="8"
       fill="#ffffff"
       fill-rule="evenodd"
       id="path485"
       inkscape:label="box_upper" />
    <text
       font-family="Corbel, Corbel_MSFontService, sans-serif"
       font-weight="700"
       font-size="21px"
       transform="translate(774.436,81)"
       id="text487"
       inkscape:label="box_upper-h1">Traces</text>
    <text
       font-family="Arial, Arial_MSFontService, sans-serif"
       font-weight="400"
       font-size="21px"
       transform="translate(774.436,107)"
       id="text489"
       inkscape:label="box_upper-point_b1"></text>
    <text
       font-family="Corbel, Corbel_MSFontService, sans-serif"
       font-weight="400"
       font-size="21px"
       transform="translate(804.436,107)"
       id="text491"
       inkscape:label="box_upper-text_b1">Tweet</text>
    <text
       font-family="Arial, Arial_MSFontService, sans-serif"
       font-weight="400"
       font-size="21px"
       transform="translate(774.436,132)"
       id="text493"
       inkscape:label="box_upper-point_b2"></text>
    <text
       font-family="Corbel, Corbel_MSFontService, sans-serif"
       font-weight="400"
       font-size="21px"
       transform="translate(804.436,132)"
       id="text495"
       inkscape:label="box_upper-text_b2">Retweet</text>
    <text
       font-family="Arial, Arial_MSFontService, sans-serif"
       font-weight="400"
       font-size="21px"
       transform="translate(774.436,158)"
       id="text497"
       inkscape:label="box_upper-point_b3"></text>
    <text
       font-family="Corbel, Corbel_MSFontService, sans-serif"
       font-weight="400"
       font-size="21px"
       transform="translate(804.436,158)"
       id="text499"
       inkscape:label="box_upper-text_b3">Like</text>
    <text
       font-family="Arial, Arial_MSFontService, sans-serif"
       font-weight="400"
       font-size="21px"
       transform="translate(774.436,183)"
       id="text501"
       inkscape:label="box_upper-point_b4"></text>
    <text
       font-family="Corbel, Corbel_MSFontService, sans-serif"
       font-weight="400"
       font-size="21px"
       transform="translate(804.436,183)"
       id="text503"
       inkscape:label="box_upper-text_b4">Reply</text>
    <text
       font-family="Corbel, Corbel_MSFontService, sans-serif"
       font-weight="400"
       font-size="24px"
       transform="translate(1042.35,88)"
       id="text505"
       inkscape:label="box_twitter-h1">User</text>
  </g>
</svg>
